<?xml version="1.0" encoding="utf-8" standalone="no"?>
<!DOCTYPE svg PUBLIC "-//W3C//DTD SVG 1.1//EN"
  "http://www.w3.org/Graphics/SVG/1.1/DTD/svg11.dtd">
<svg xmlns:xlink="http://www.w3.org/1999/xlink" width="288pt" height="216pt" viewBox="0 0 288 216" xmlns="http://www.w3.org/2000/svg" version="1.1">
 <metadata>
  <rdf:RDF xmlns:dc="http://purl.org/dc/elements/1.1/" xmlns:cc="http://creativecommons.org/ns#" xmlns:rdf="http://www.w3.org/1999/02/22-rdf-syntax-ns#">
   <cc:Work>
    <dc:type rdf:resource="http://purl.org/dc/dcmitype/StillImage"/>
    <dc:date>2022-05-26T11:39:45.948380</dc:date>
    <dc:format>image/svg+xml</dc:format>
    <dc:creator>
     <cc:Agent>
      <dc:title>Matplotlib v3.5.1, https://matplotlib.org/</dc:title>
     </cc:Agent>
    </dc:creator>
   </cc:Work>
  </rdf:RDF>
 </metadata>
 <defs>
  <style type="text/css">*{stroke-linejoin: round; stroke-linecap: butt}</style>
 </defs>
 <g id="figure_1">
  <g id="patch_1">
   <path d="M 0 216 
L 288 216 
L 288 0 
L 0 0 
L 0 216 
z
" style="fill: none"/>
  </g>
  <g id="axes_1">
   <g id="patch_2">
    <path d="M 56.556 203.04 
L 93.924 203.04 
L 93.924 134.6112 
L 56.556 134.6112 
z
" clip-path="url(#p9ab0c48c00)"/>
   </g>
   <g id="patch_3">
    <path d="M 56.556 134.6112 
L 93.924 134.6112 
L 93.924 88.992 
L 56.556 88.992 
z
" clip-path="url(#p9ab0c48c00)" style="fill: #1f77b4"/>
   </g>
   <g id="patch_4">
    <path d="M 56.556 88.992 
L 93.924 88.992 
L 93.924 50.976 
L 56.556 50.976 
z
" clip-path="url(#p9ab0c48c00)" style="fill: #ff7f0e"/>
   </g>
   <g id="patch_5">
    <path d="M 56.556 50.976 
L 93.924 50.976 
L 93.924 35.7696 
L 56.556 35.7696 
z
" clip-path="url(#p9ab0c48c00)" style="fill: #2ca02c"/>
   </g>
   <g id="patch_6">
    <path d="M 56.556 35.7696 
L 93.924 35.7696 
L 93.924 20.5632 
L 56.556 20.5632 
z
" clip-path="url(#p9ab0c48c00)" style="fill: #d62728"/>
   </g>
   <g id="patch_7">
    <path d="M 56.556 20.5632 
L 93.924 20.5632 
L 93.924 12.96 
L 56.556 12.96 
z
" clip-path="url(#p9ab0c48c00)" style="fill: #9467bd"/>
   </g>
   <g id="patch_8">
    <path d="M 56.556 12.96 
L 93.924 12.96 
L 93.924 12.96 
L 56.556 12.96 
z
" clip-path="url(#p9ab0c48c00)" style="fill: #8c564b"/>
   </g>
  </g>
  <g id="axes_2">
   <g id="patch_9">
    <path d="M 262.584 108 
C 262.584 98.546286 259.893348 89.285 254.827794 81.302965 
C 249.76224 73.32093 242.528002 66.943091 233.974025 62.917896 
C 225.420049 58.892701 215.894562 57.384012 206.515394 58.568878 
C 197.136225 59.753743 188.285195 63.583926 181.000984 69.609951 
L 212.76 108 
L 262.584 108 
z
"/>
   </g>
   <g id="patch_10">
    <path d="M 181.000984 69.609951 
C 171.239766 77.685134 164.916655 89.186832 163.328877 101.755401 
C 161.741098 114.32397 165.005202 127.036813 172.451539 137.285815 
L 212.76 108 
L 181.000984 69.609951 
z
" style="fill: #1f77b4"/>
   </g>
   <g id="patch_11">
    <path d="M 172.451539 137.285815 
C 178.635135 145.796803 187.358273 152.134533 197.36354 155.385441 
C 207.368808 158.636349 218.151199 158.636348 228.156466 155.385439 
L 212.76 108 
L 172.451539 137.285815 
z
" style="fill: #ff7f0e"/>
   </g>
   <g id="patch_12">
    <path d="M 228.156466 155.385439 
C 232.131436 154.093892 235.928143 152.307298 239.457037 150.067793 
C 242.985932 147.828288 246.21905 145.15362 249.080135 142.106873 
L 212.76 108 
L 228.156466 155.385439 
z
" style="fill: #2ca02c"/>
   </g>
   <g id="patch_13">
    <path d="M 249.080135 142.106873 
C 251.941221 139.060126 254.407601 135.665443 256.421105 132.002893 
C 258.434609 128.340342 259.979281 124.438946 261.018688 120.390722 
L 212.76 108 
L 249.080135 142.106873 
z
" style="fill: #d62728"/>
   </g>
   <g id="patch_14">
    <path d="M 261.018688 120.390722 
C 261.53788 118.368602 261.929464 116.315848 262.191123 114.244601 
C 262.452782 112.173354 262.584 110.087707 262.584 107.999998 
L 212.76 108 
L 261.018688 120.390722 
z
" style="fill: #9467bd"/>
   </g>
   <g id="patch_15">
    <path d="M 262.584 107.999998 
C 262.584 107.999998 262.584 107.999998 262.584 107.999998 
L 212.76 108 
L 262.584 107.999998 
z
" style="fill: #8c564b"/>
   </g>
   <g id="matplotlib.axis_1"/>
   <g id="matplotlib.axis_2"/>
  </g>
 </g>
 <defs>
  <clipPath id="p9ab0c48c00">
   <rect x="12.96" y="12.96" width="124.56" height="190.08"/>
  </clipPath>
 </defs>
</svg>
