<?xml version="1.0" encoding="utf-8" standalone="no"?>
<!DOCTYPE svg PUBLIC "-//W3C//DTD SVG 1.1//EN"
  "http://www.w3.org/Graphics/SVG/1.1/DTD/svg11.dtd">
<svg xmlns:xlink="http://www.w3.org/1999/xlink" width="288pt" height="216pt" viewBox="0 0 288 216" xmlns="http://www.w3.org/2000/svg" version="1.1">
 <metadata>
  <rdf:RDF xmlns:dc="http://purl.org/dc/elements/1.1/" xmlns:cc="http://creativecommons.org/ns#" xmlns:rdf="http://www.w3.org/1999/02/22-rdf-syntax-ns#">
   <cc:Work>
    <dc:type rdf:resource="http://purl.org/dc/dcmitype/StillImage"/>
    <dc:date>2022-05-26T11:39:46.132747</dc:date>
    <dc:format>image/svg+xml</dc:format>
    <dc:creator>
     <cc:Agent>
      <dc:title>Matplotlib v3.5.1, https://matplotlib.org/</dc:title>
     </cc:Agent>
    </dc:creator>
   </cc:Work>
  </rdf:RDF>
 </metadata>
 <defs>
  <style type="text/css">*{stroke-linejoin: round; stroke-linecap: butt}</style>
 </defs>
 <g id="figure_1">
  <g id="patch_1">
   <path d="M 0 216 
L 288 216 
L 288 0 
L 0 0 
L 0 216 
z
" style="fill: none"/>
  </g>
  <g id="axes_1">
   <g id="patch_2">
    <path d="M 58.709905 108 
C 58.709905 104.527725 57.721649 101.126128 55.861112 98.19439 
C 54.000574 95.262651 51.343495 92.920122 48.201687 91.441699 
C 45.059879 89.963277 41.561243 89.409147 38.116348 89.844339 
C 34.671454 90.279531 31.42054 91.686327 28.745107 93.899638 
L 40.409943 108 
L 58.709905 108 
z
"/>
   </g>
   <g id="patch_3">
    <path d="M 28.745107 93.899638 
C 25.159888 96.865589 22.83746 101.090072 22.254281 105.706408 
C 21.671103 110.322744 22.869983 114.992071 25.604963 118.756449 
L 40.409943 108 
L 28.745107 93.899638 
z
" style="fill: #1f77b4"/>
   </g>
   <g id="patch_4">
    <path d="M 25.604963 118.756449 
C 27.876149 121.882467 31.080089 124.210266 34.754945 125.404298 
C 38.429801 126.598331 42.390088 126.598331 46.064943 125.404298 
L 40.409943 108 
L 25.604963 118.756449 
z
" style="fill: #ff7f0e"/>
   </g>
   <g id="patch_5">
    <path d="M 46.064943 125.404298 
C 47.524918 124.929923 48.919419 124.273721 50.215554 123.451168 
C 51.511689 122.628616 52.699188 121.646231 53.750042 120.527185 
L 40.409943 108 
L 46.064943 125.404298 
z
" style="fill: #2ca02c"/>
   </g>
   <g id="patch_6">
    <path d="M 53.750042 120.527185 
C 54.800896 119.408139 55.706778 118.161299 56.446322 116.816073 
C 57.185866 115.470847 57.753212 114.037895 58.134978 112.551015 
L 40.409943 108 
L 53.750042 120.527185 
z
" style="fill: #d62728"/>
   </g>
   <g id="patch_7">
    <path d="M 58.134978 112.551015 
C 58.325673 111.808306 58.469499 111.054345 58.565604 110.293592 
C 58.66171 109.53284 58.709905 108.766798 58.709905 107.999999 
L 40.409943 108 
L 58.134978 112.551015 
z
" style="fill: #9467bd"/>
   </g>
   <g id="patch_8">
    <path d="M 58.709905 107.999999 
C 58.709905 107.999999 58.709905 107.999999 58.709905 107.999999 
L 40.409943 108 
L 58.709905 107.999999 
z
" style="fill: #8c564b"/>
   </g>
   <g id="matplotlib.axis_1"/>
   <g id="matplotlib.axis_2"/>
   <g id="text_1">
    <!-- jour 0 -->
    <g transform="translate(20.645943 74.550057)scale(0.144 -0.144)">
     <defs>
      <path id="LMRoman8-Regular-6a" d="M 1453 -294 
L 1453 2822 
L 448 2752 
L 448 2541 
C 928 2541 986 2496 986 2182 
L 986 -307 
C 986 -480 960 -1126 518 -1126 
C 422 -1126 282 -1101 198 -1069 
C 237 -1056 371 -973 371 -794 
C 371 -621 250 -493 70 -493 
C -90 -493 -230 -602 -230 -800 
C -230 -1126 128 -1306 525 -1306 
C 1037 -1306 1453 -896 1453 -294 
z
M 1453 3853 
C 1453 4064 1286 4211 1101 4211 
C 915 4211 749 4064 749 3853 
C 749 3667 896 3501 1101 3501 
C 1299 3501 1453 3667 1453 3853 
z
" transform="scale(0.015625)"/>
      <path id="LMRoman8-Regular-6f" d="M 3200 1363 
C 3200 2163 2541 2854 1696 2854 
C 851 2854 192 2163 192 1363 
C 192 563 877 -64 1696 -64 
C 2522 -64 3200 563 3200 1363 
z
M 2630 1421 
C 2630 1126 2618 774 2438 506 
C 2266 250 1978 134 1696 134 
C 1350 134 1082 301 941 525 
C 781 787 762 1101 762 1421 
C 762 1664 762 2048 960 2323 
C 1126 2547 1395 2675 1696 2675 
C 2029 2675 2304 2515 2451 2291 
C 2624 2022 2630 1677 2630 1421 
z
" transform="scale(0.015625)"/>
      <path id="LMRoman8-Regular-75" d="M 3597 0 
L 3597 211 
C 3162 211 3110 256 3110 570 
L 3110 2822 
L 2138 2752 
L 2138 2541 
C 2573 2541 2624 2496 2624 2182 
L 2624 1069 
C 2624 518 2291 115 1811 115 
C 1261 115 1235 390 1235 710 
L 1235 2822 
L 262 2752 
L 262 2541 
C 749 2541 749 2522 749 1952 
L 749 992 
C 749 531 749 -64 1773 -64 
C 2374 -64 2605 397 2637 454 
L 2643 454 
L 2643 -64 
L 3597 0 
z
" transform="scale(0.015625)"/>
      <path id="LMRoman8-Regular-72" d="M 2458 2419 
C 2458 2643 2253 2822 1971 2822 
C 1555 2822 1274 2509 1139 2150 
L 1133 2150 
L 1133 2822 
L 224 2752 
L 224 2541 
C 659 2541 710 2496 710 2182 
L 710 499 
C 710 211 634 211 224 211 
L 224 0 
C 474 19 826 19 979 19 
C 1357 19 1370 19 1786 0 
L 1786 211 
L 1658 211 
C 1190 211 1178 282 1178 512 
L 1178 1459 
C 1178 1939 1376 2630 1990 2643 
C 1952 2618 1888 2566 1888 2419 
C 1888 2221 2042 2131 2170 2131 
C 2323 2131 2458 2234 2458 2419 
z
" transform="scale(0.015625)"/>
      <path id="LMRoman8-Regular-20" transform="scale(0.015625)"/>
      <path id="LMRoman8-Regular-30" d="M 3130 2042 
C 3130 2726 3059 3142 2848 3552 
C 2566 4115 2048 4256 1696 4256 
C 890 4256 595 3654 506 3475 
C 275 3008 262 2374 262 2042 
C 262 1619 282 973 589 461 
C 883 -13 1357 -134 1696 -134 
C 2003 -134 2554 -38 2874 595 
C 3110 1056 3130 1626 3130 2042 
z
M 2560 2118 
C 2560 1741 2560 1165 2483 806 
C 2349 134 1907 45 1696 45 
C 1478 45 1037 147 902 819 
C 832 1184 832 1786 832 2118 
C 832 2560 832 3008 902 3360 
C 1037 4013 1536 4077 1696 4077 
C 1914 4077 2355 3968 2483 3386 
C 2560 3034 2560 2554 2560 2118 
z
" transform="scale(0.015625)"/>
     </defs>
     <use xlink:href="#LMRoman8-Regular-6a"/>
     <use xlink:href="#LMRoman8-Regular-6f" x="32.499985"/>
     <use xlink:href="#LMRoman8-Regular-75" x="85.599976"/>
     <use xlink:href="#LMRoman8-Regular-72" x="144.59996"/>
     <use xlink:href="#LMRoman8-Regular-20" x="185.999954"/>
     <use xlink:href="#LMRoman8-Regular-30" x="221.399948"/>
    </g>
   </g>
  </g>
  <g id="axes_2">
   <g id="patch_9">
    <path d="M 130.511151 108 
C 130.511151 105.031498 129.891787 102.095392 128.692747 99.379825 
C 127.493706 96.664258 125.74116 94.2285 123.547411 92.228633 
C 121.353662 90.228766 118.76659 88.70844 115.951973 87.765076 
C 113.137357 86.821712 110.156627 86.4759 107.200789 86.749799 
L 109.169912 108 
L 130.511151 108 
z
"/>
   </g>
   <g id="patch_10">
    <path d="M 107.200789 86.749799 
C 103.24879 87.116006 99.476213 88.57751 96.30894 90.969325 
C 93.141666 93.361139 90.70354 96.589741 89.269798 100.290657 
L 109.169912 108 
L 107.200789 86.749799 
z
" style="fill: #1f77b4"/>
   </g>
   <g id="patch_11">
    <path d="M 89.269798 100.290657 
C 87.593321 104.618145 87.373325 109.376597 88.643361 113.84031 
C 89.913398 118.304023 92.605445 122.233927 96.308944 125.030678 
L 109.169912 108 
L 89.269798 100.290657 
z
" style="fill: #ff7f0e"/>
   </g>
   <g id="patch_12">
    <path d="M 96.308944 125.030678 
C 97.88509 126.220928 99.618865 127.186634 101.46057 127.900114 
C 103.302274 128.613594 105.234142 129.067965 107.200794 129.250202 
L 109.169912 108 
L 96.308944 125.030678 
z
" style="fill: #2ca02c"/>
   </g>
   <g id="patch_13">
    <path d="M 107.200794 129.250202 
C 110.487799 129.554787 113.801088 129.092603 116.87926 127.900112 
C 119.957432 126.707621 122.717353 124.817031 124.941281 122.377497 
L 109.169912 108 
L 107.200794 129.250202 
z
" style="fill: #d62728"/>
   </g>
   <g id="patch_14">
    <path d="M 124.941281 122.377497 
C 126.271881 120.917897 127.39344 119.280622 128.273808 117.512605 
C 129.154175 115.744588 129.784858 113.862886 130.147777 111.921438 
L 109.169912 108 
L 124.941281 122.377497 
z
" style="fill: #9467bd"/>
   </g>
   <g id="patch_15">
    <path d="M 130.147777 111.921438 
C 130.268578 111.275207 130.359454 110.623738 130.420114 109.969117 
C 130.480773 109.314496 130.511151 108.657421 130.511151 107.999996 
L 109.169912 108 
L 130.147777 111.921438 
z
" style="fill: #8c564b"/>
   </g>
   <g id="matplotlib.axis_3"/>
   <g id="matplotlib.axis_4"/>
   <g id="text_2">
    <!-- jour 1 -->
    <g transform="translate(89.405912 74.550057)scale(0.144 -0.144)">
     <defs>
      <path id="LMRoman8-Regular-31" d="M 2861 0 
L 2861 211 
L 2637 211 
C 2029 211 2010 288 2010 525 
L 2010 4077 
C 2010 4250 1997 4256 1824 4256 
C 1562 4000 1222 3846 614 3846 
L 614 3635 
C 787 3635 1133 3635 1504 3808 
L 1504 525 
C 1504 288 1485 211 877 211 
L 653 211 
L 653 0 
C 915 19 1466 19 1754 19 
C 2042 19 2598 19 2861 0 
z
" transform="scale(0.015625)"/>
     </defs>
     <use xlink:href="#LMRoman8-Regular-6a"/>
     <use xlink:href="#LMRoman8-Regular-6f" x="32.499985"/>
     <use xlink:href="#LMRoman8-Regular-75" x="85.599976"/>
     <use xlink:href="#LMRoman8-Regular-72" x="144.59996"/>
     <use xlink:href="#LMRoman8-Regular-20" x="185.999954"/>
     <use xlink:href="#LMRoman8-Regular-31" x="221.399948"/>
    </g>
   </g>
  </g>
  <g id="axes_3">
   <g id="patch_16">
    <path d="M 202.753157 108 
C 202.753157 102.294622 200.786172 96.760057 197.185576 92.33433 
C 193.584981 87.908604 188.566371 84.856719 182.980326 83.695926 
L 177.929881 108 
L 202.753157 108 
z
"/>
   </g>
   <g id="patch_17">
    <path d="M 182.980326 83.695926 
C 179.088977 82.887294 175.059738 83.024936 171.232642 84.097238 
C 167.405547 85.169539 163.89137 87.145462 160.986677 89.858256 
L 177.929881 108 
L 182.980326 83.695926 
z
" style="fill: #1f77b4"/>
   </g>
   <g id="patch_18">
    <path d="M 160.986677 89.858256 
C 156.816981 93.752479 154.114693 98.967657 153.33781 104.619895 
C 152.560927 110.272133 153.755968 116.022987 156.72039 120.897773 
L 177.929881 108 
L 160.986677 89.858256 
z
" style="fill: #ff7f0e"/>
   </g>
   <g id="patch_19">
    <path d="M 156.72039 120.897773 
C 157.60202 122.347551 158.62998 123.703121 159.788135 124.943203 
C 160.946291 126.183285 162.228549 127.301356 163.614783 128.279867 
L 177.929881 108 
L 156.72039 120.897773 
z
" style="fill: #2ca02c"/>
   </g>
   <g id="patch_20">
    <path d="M 163.614783 128.279867 
C 166.861813 130.571872 170.612313 132.050878 174.549774 132.59207 
C 178.487236 133.133262 182.497688 132.720976 186.242686 131.390004 
L 177.929881 108 
L 163.614783 128.279867 
z
" style="fill: #d62728"/>
   </g>
   <g id="patch_21">
    <path d="M 186.242686 131.390004 
C 188.375901 130.63186 190.395407 129.585437 192.244972 128.279872 
C 194.094537 126.974307 195.756833 125.421831 197.185574 123.665673 
L 177.929881 108 
L 186.242686 131.390004 
z
" style="fill: #9467bd"/>
   </g>
   <g id="patch_22">
    <path d="M 197.185574 123.665673 
C 198.973052 121.468568 200.371377 118.98165 201.319882 116.312813 
C 202.268388 113.643976 202.753156 110.832381 202.753157 108.000005 
L 177.929881 108 
L 197.185574 123.665673 
z
" style="fill: #8c564b"/>
   </g>
   <g id="matplotlib.axis_5"/>
   <g id="matplotlib.axis_6"/>
   <g id="text_3">
    <!-- jour 2 -->
    <g transform="translate(158.165881 74.550057)scale(0.144 -0.144)">
     <defs>
      <path id="LMRoman8-Regular-32" d="M 3053 1146 
L 2854 1146 
C 2835 1018 2784 698 2707 576 
C 2669 525 2182 525 2080 525 
L 941 525 
L 1805 1306 
C 1907 1402 2176 1613 2278 1702 
C 2675 2067 3053 2419 3053 3002 
C 3053 3763 2413 4256 1613 4256 
C 845 4256 339 3674 339 3104 
C 339 2790 589 2746 678 2746 
C 813 2746 1011 2842 1011 3085 
C 1011 3418 691 3418 614 3418 
C 800 3885 1229 4045 1542 4045 
C 2138 4045 2445 3539 2445 3002 
C 2445 2336 1978 1850 1222 1075 
L 416 243 
C 339 173 339 160 339 0 
L 2867 0 
L 3053 1146 
z
" transform="scale(0.015625)"/>
     </defs>
     <use xlink:href="#LMRoman8-Regular-6a"/>
     <use xlink:href="#LMRoman8-Regular-6f" x="32.499985"/>
     <use xlink:href="#LMRoman8-Regular-75" x="85.599976"/>
     <use xlink:href="#LMRoman8-Regular-72" x="144.59996"/>
     <use xlink:href="#LMRoman8-Regular-20" x="185.999954"/>
     <use xlink:href="#LMRoman8-Regular-32" x="221.399948"/>
    </g>
   </g>
  </g>
  <g id="axes_4">
   <g id="patch_23">
    <path d="M 275.040029 108 
C 275.040029 102.01396 273.144132 96.178991 269.625626 91.336183 
C 266.10712 86.493375 261.143598 82.887165 255.450536 81.037377 
L 246.68985 108 
L 275.040029 108 
z
"/>
   </g>
   <g id="patch_24">
    <path d="M 255.450536 81.037377 
C 250.71796 79.49967 245.6629 79.234746 240.795515 80.269341 
C 235.92813 81.303935 231.417858 83.602034 227.719876 86.931712 
L 246.68985 108 
L 255.450536 81.037377 
z
" style="fill: #1f77b4"/>
   </g>
   <g id="patch_25">
    <path d="M 227.719876 86.931712 
C 223.647313 90.598665 220.724052 95.368993 219.305679 100.662435 
C 217.887306 105.955878 218.03376 111.548733 219.727228 116.760689 
L 246.68985 108 
L 227.719876 86.931712 
z
" style="fill: #ff7f0e"/>
   </g>
   <g id="patch_26">
    <path d="M 219.727228 116.760689 
C 220.954904 120.539089 222.96321 124.017576 225.621562 126.969975 
C 228.279915 129.922373 231.529421 132.283278 235.158796 133.899179 
L 246.68985 108 
L 219.727228 116.760689 
z
" style="fill: #2ca02c"/>
   </g>
   <g id="patch_27">
    <path d="M 235.158796 133.899179 
C 239.245757 135.71881 243.705983 136.545464 248.173587 136.311326 
C 252.641191 136.077188 256.990575 134.788841 260.864943 132.551973 
L 246.68985 108 
L 235.158796 133.899179 
z
" style="fill: #d62728"/>
   </g>
   <g id="patch_28">
    <path d="M 260.864943 132.551973 
C 263.010562 131.313199 264.984567 129.798491 266.736457 128.046601 
C 268.488347 126.29471 270.003054 124.320704 271.241827 122.175085 
L 246.68985 108 
L 260.864943 132.551973 
z
" style="fill: #9467bd"/>
   </g>
   <g id="patch_29">
    <path d="M 271.241827 122.175085 
C 272.4806 120.029466 273.432785 117.730688 274.074021 115.337561 
C 274.715257 112.944434 275.040029 110.477542 275.040029 107.999995 
L 246.68985 108 
L 271.241827 122.175085 
z
" style="fill: #8c564b"/>
   </g>
   <g id="matplotlib.axis_7"/>
   <g id="matplotlib.axis_8"/>
   <g id="text_4">
    <!-- jour 3 -->
    <g transform="translate(226.92585 74.550057)scale(0.144 -0.144)">
     <defs>
      <path id="LMRoman8-Regular-33" d="M 3110 1094 
C 3110 1626 2688 2112 2035 2253 
C 2541 2432 2918 2867 2918 3379 
C 2918 3891 2342 4256 1677 4256 
C 992 4256 474 3885 474 3398 
C 474 3162 634 3059 800 3059 
C 998 3059 1126 3200 1126 3386 
C 1126 3622 922 3712 781 3718 
C 1050 4070 1542 4090 1658 4090 
C 1824 4090 2310 4038 2310 3379 
C 2310 2931 2125 2662 2035 2560 
C 1843 2362 1696 2349 1306 2323 
C 1184 2317 1133 2310 1133 2227 
C 1133 2138 1190 2138 1299 2138 
L 1619 2138 
C 2125 2138 2445 1766 2445 1094 
C 2445 294 1990 58 1651 58 
C 1299 58 819 186 595 525 
C 826 525 986 672 986 883 
C 986 1088 838 1235 634 1235 
C 461 1235 282 1126 282 870 
C 282 262 934 -134 1664 -134 
C 2515 -134 3110 454 3110 1094 
z
" transform="scale(0.015625)"/>
     </defs>
     <use xlink:href="#LMRoman8-Regular-6a"/>
     <use xlink:href="#LMRoman8-Regular-6f" x="32.499985"/>
     <use xlink:href="#LMRoman8-Regular-75" x="85.599976"/>
     <use xlink:href="#LMRoman8-Regular-72" x="144.59996"/>
     <use xlink:href="#LMRoman8-Regular-20" x="185.999954"/>
     <use xlink:href="#LMRoman8-Regular-33" x="221.399948"/>
    </g>
   </g>
  </g>
 </g>
</svg>
