<?xml version="1.0" encoding="utf-8" standalone="no"?>
<!DOCTYPE svg PUBLIC "-//W3C//DTD SVG 1.1//EN"
  "http://www.w3.org/Graphics/SVG/1.1/DTD/svg11.dtd">
<svg xmlns:xlink="http://www.w3.org/1999/xlink" width="288pt" height="216pt" viewBox="0 0 288 216" xmlns="http://www.w3.org/2000/svg" version="1.1">
 <metadata>
  <rdf:RDF xmlns:dc="http://purl.org/dc/elements/1.1/" xmlns:cc="http://creativecommons.org/ns#" xmlns:rdf="http://www.w3.org/1999/02/22-rdf-syntax-ns#">
   <cc:Work>
    <dc:type rdf:resource="http://purl.org/dc/dcmitype/StillImage"/>
    <dc:date>2022-05-18T22:31:56.264323</dc:date>
    <dc:format>image/svg+xml</dc:format>
    <dc:creator>
     <cc:Agent>
      <dc:title>Matplotlib v3.5.1, https://matplotlib.org/</dc:title>
     </cc:Agent>
    </dc:creator>
   </cc:Work>
  </rdf:RDF>
 </metadata>
 <defs>
  <style type="text/css">*{stroke-linejoin: round; stroke-linecap: butt}</style>
 </defs>
 <g id="figure_1">
  <g id="patch_1">
   <path d="M 0 216 
L 288 216 
L 288 0 
L 0 0 
L 0 216 
z
" style="fill: none"/>
  </g>
  <g id="axes_1">
   <g id="patch_2">
    <path d="M 83.808 108 
C 83.808 102.822065 82.530799 97.723191 80.089937 93.15666 
C 77.649075 88.590128 74.119091 84.695392 69.813795 81.818685 
C 65.5085 78.941978 60.559366 77.17115 55.406364 76.663623 
C 50.253362 76.156097 45.053852 76.927371 40.270064 78.908881 
C 35.486276 80.890391 31.264294 84.021626 27.979447 88.024224 
C 24.6946 92.026822 22.447198 96.778553 21.437033 101.856996 
C 20.426868 106.935439 20.684787 112.185509 22.187863 117.140484 
C 23.690938 122.095459 26.393269 126.604025 30.054622 130.265378 
L 52.32 108 
L 83.808 108 
z
" style="fill: #1f77b4"/>
   </g>
   <g id="patch_3">
    <path d="M 30.054622 130.265378 
C 34.45777 134.668527 40.069653 137.668141 46.176996 138.882967 
C 52.284339 140.097793 58.616945 139.474086 64.369936 137.091119 
C 70.122927 134.708152 75.041783 130.671351 78.501315 125.493795 
C 81.960847 120.31624 83.808 114.226993 83.808 108 
L 52.32 108 
L 30.054622 130.265378 
z
" style="fill: #ff7f0e"/>
   </g>
   <g id="matplotlib.axis_1"/>
   <g id="matplotlib.axis_2"/>
   <g id="text_1">
    <!-- year 1 -->
    <g transform="translate(31.706625 62.64)scale(0.144 -0.144)">
     <defs>
      <path id="LMRoman8-Regular-79" d="M 3443 2547 
L 3443 2758 
C 3219 2739 3206 2739 2938 2739 
C 2912 2739 2573 2739 2387 2758 
L 2387 2547 
C 2573 2534 2662 2432 2662 2285 
C 2662 2246 2656 2202 2624 2125 
L 1939 576 
L 1197 2253 
C 1152 2349 1152 2362 1152 2387 
C 1152 2541 1350 2547 1491 2547 
L 1491 2758 
C 1203 2739 928 2739 787 2739 
C 653 2739 346 2739 141 2758 
L 141 2547 
C 474 2547 563 2534 672 2291 
L 1683 0 
C 1395 -678 1203 -1126 755 -1126 
C 595 -1126 493 -1050 493 -1050 
C 538 -1037 685 -966 685 -781 
C 685 -602 550 -506 410 -506 
C 282 -506 134 -589 134 -787 
C 134 -1069 410 -1306 755 -1306 
C 1325 -1306 1632 -621 1658 -557 
L 2835 2112 
C 2995 2477 3232 2541 3443 2547 
z
" transform="scale(0.015625)"/>
      <path id="LMRoman8-Regular-65" d="M 2822 768 
C 2822 794 2803 858 2720 858 
C 2650 858 2637 813 2624 774 
C 2394 154 1843 134 1728 134 
C 1440 134 1146 269 954 563 
C 762 858 762 1267 762 1459 
L 2643 1459 
C 2784 1459 2822 1459 2822 1606 
C 2822 2176 2509 2854 1606 2854 
C 813 2854 192 2195 192 1402 
C 192 576 883 -64 1690 -64 
C 2502 -64 2822 621 2822 768 
z
M 2387 1626 
L 768 1626 
C 826 2522 1370 2675 1606 2675 
C 2355 2675 2381 1773 2387 1626 
z
" transform="scale(0.015625)"/>
      <path id="LMRoman8-Regular-61" d="M 3290 576 
L 3290 928 
L 3091 928 
L 3091 576 
C 3091 314 2995 211 2861 211 
C 2624 211 2624 506 2624 576 
L 2624 1907 
C 2624 2534 2016 2854 1434 2854 
C 902 2854 429 2650 429 2227 
C 429 2035 563 1920 730 1920 
C 909 1920 1030 2048 1030 2221 
C 1030 2374 934 2483 794 2515 
C 1030 2675 1376 2675 1421 2675 
C 1779 2675 2138 2426 2138 1901 
L 2138 1702 
C 1766 1683 1338 1664 890 1478 
C 326 1235 218 864 218 653 
C 218 102 864 -64 1306 -64 
C 1773 -64 2061 198 2202 454 
C 2234 211 2400 -32 2682 -32 
C 2746 -32 3290 -6 3290 576 
z
M 2138 902 
C 2138 282 1613 115 1357 115 
C 1024 115 742 339 742 646 
C 742 1069 1139 1504 2138 1536 
L 2138 902 
z
" transform="scale(0.015625)"/>
      <path id="LMRoman8-Regular-72" d="M 2458 2419 
C 2458 2643 2253 2822 1971 2822 
C 1555 2822 1274 2509 1139 2150 
L 1133 2150 
L 1133 2822 
L 224 2752 
L 224 2541 
C 659 2541 710 2496 710 2182 
L 710 499 
C 710 211 634 211 224 211 
L 224 0 
C 474 19 826 19 979 19 
C 1357 19 1370 19 1786 0 
L 1786 211 
L 1658 211 
C 1190 211 1178 282 1178 512 
L 1178 1459 
C 1178 1939 1376 2630 1990 2643 
C 1952 2618 1888 2566 1888 2419 
C 1888 2221 2042 2131 2170 2131 
C 2323 2131 2458 2234 2458 2419 
z
" transform="scale(0.015625)"/>
      <path id="LMRoman8-Regular-20" transform="scale(0.015625)"/>
      <path id="LMRoman8-Regular-31" d="M 2861 0 
L 2861 211 
L 2637 211 
C 2029 211 2010 288 2010 525 
L 2010 4077 
C 2010 4250 1997 4256 1824 4256 
C 1562 4000 1222 3846 614 3846 
L 614 3635 
C 787 3635 1133 3635 1504 3808 
L 1504 525 
C 1504 288 1485 211 877 211 
L 653 211 
L 653 0 
C 915 19 1466 19 1754 19 
C 2042 19 2598 19 2861 0 
z
" transform="scale(0.015625)"/>
     </defs>
     <use xlink:href="#LMRoman8-Regular-79"/>
     <use xlink:href="#LMRoman8-Regular-65" x="56.099991"/>
     <use xlink:href="#LMRoman8-Regular-61" x="103.299988"/>
     <use xlink:href="#LMRoman8-Regular-72" x="156.399979"/>
     <use xlink:href="#LMRoman8-Regular-20" x="197.799973"/>
     <use xlink:href="#LMRoman8-Regular-31" x="233.199966"/>
    </g>
   </g>
  </g>
  <g id="axes_2">
   <g id="patch_4">
    <path d="M 175.488 108 
C 175.488 101.89678 173.713548 95.923224 170.381617 90.809758 
C 167.049687 85.696292 162.301854 81.66019 156.718665 79.194971 
C 151.135477 76.729752 144.954167 75.940165 138.930562 76.922758 
C 132.906958 77.905352 127.297007 80.618374 122.786673 84.730086 
C 118.276338 88.841799 115.057268 94.177493 113.523078 100.084739 
C 111.988888 105.991985 112.204766 112.219781 114.144317 118.006614 
C 116.083867 123.793448 119.664677 128.893432 124.448898 132.682961 
C 129.233119 136.47249 135.017466 138.790543 141.094651 139.353677 
L 144 108 
L 175.488 108 
z
" style="fill: #1f77b4"/>
   </g>
   <g id="patch_5">
    <path d="M 141.094651 139.353677 
C 145.455853 139.757803 149.853779 139.247573 154.006614 137.855683 
C 158.159449 136.463793 161.976553 134.220623 165.213327 131.269914 
C 168.450102 128.319204 171.035901 124.725357 172.805029 120.718665 
C 174.574157 116.711973 175.488 112.379885 175.488 108 
L 144 108 
L 141.094651 139.353677 
z
" style="fill: #ff7f0e"/>
   </g>
   <g id="matplotlib.axis_3"/>
   <g id="matplotlib.axis_4"/>
   <g id="text_2">
    <!-- year 2 -->
    <g transform="translate(123.386625 62.64)scale(0.144 -0.144)">
     <defs>
      <path id="LMRoman8-Regular-32" d="M 3053 1146 
L 2854 1146 
C 2835 1018 2784 698 2707 576 
C 2669 525 2182 525 2080 525 
L 941 525 
L 1805 1306 
C 1907 1402 2176 1613 2278 1702 
C 2675 2067 3053 2419 3053 3002 
C 3053 3763 2413 4256 1613 4256 
C 845 4256 339 3674 339 3104 
C 339 2790 589 2746 678 2746 
C 813 2746 1011 2842 1011 3085 
C 1011 3418 691 3418 614 3418 
C 800 3885 1229 4045 1542 4045 
C 2138 4045 2445 3539 2445 3002 
C 2445 2336 1978 1850 1222 1075 
L 416 243 
C 339 173 339 160 339 0 
L 2867 0 
L 3053 1146 
z
" transform="scale(0.015625)"/>
     </defs>
     <use xlink:href="#LMRoman8-Regular-79"/>
     <use xlink:href="#LMRoman8-Regular-65" x="56.099991"/>
     <use xlink:href="#LMRoman8-Regular-61" x="103.299988"/>
     <use xlink:href="#LMRoman8-Regular-72" x="156.399979"/>
     <use xlink:href="#LMRoman8-Regular-20" x="197.799973"/>
     <use xlink:href="#LMRoman8-Regular-32" x="233.199966"/>
    </g>
   </g>
  </g>
  <g id="axes_3">
   <g id="patch_6">
    <path d="M 267.168 108 
C 267.168 104.557547 266.603476 101.138277 265.496936 97.878514 
C 264.390396 94.618752 262.756743 91.562402 260.66111 88.831321 
C 258.565478 86.100239 256.036091 83.73121 253.173796 81.818685 
C 250.311501 79.906161 247.154849 78.4759 243.829695 77.584928 
C 240.504541 76.693955 237.05567 76.354271 233.620587 76.579418 
C 230.185505 76.804565 226.810477 77.591511 223.630065 78.908881 
C 220.449653 80.22625 217.506694 82.0563 214.91852 84.326067 
C 212.330347 86.595834 210.13182 89.274747 208.410593 92.255998 
C 206.689366 95.23725 205.468623 98.480687 204.797034 101.856994 
C 204.125444 105.233301 204.012054 108.697004 204.461384 112.110006 
C 204.910714 115.523009 205.916712 118.839341 207.43927 121.926784 
C 208.961828 125.014226 210.980438 127.831194 213.41462 130.265376 
C 215.848801 132.699558 218.665769 134.718169 221.753211 136.240727 
C 224.840653 137.763286 228.156986 138.769285 231.569988 139.218615 
C 234.98299 139.667946 238.446693 139.554557 241.823 138.882968 
C 245.199308 138.211379 248.442745 136.990636 251.423997 135.26941 
L 235.68 108 
L 267.168 108 
z
" style="fill: #1f77b4"/>
   </g>
   <g id="patch_7">
    <path d="M 251.423997 135.26941 
C 256.210422 132.505967 260.185962 128.530427 262.949406 123.744003 
C 265.71285 118.957579 267.167999 113.52689 267.168 108.000003 
L 235.68 108 
L 251.423997 135.26941 
z
" style="fill: #ff7f0e"/>
   </g>
   <g id="matplotlib.axis_5"/>
   <g id="matplotlib.axis_6"/>
   <g id="text_3">
    <!-- year 3 -->
    <g transform="translate(215.066625 62.64)scale(0.144 -0.144)">
     <defs>
      <path id="LMRoman8-Regular-33" d="M 3110 1094 
C 3110 1626 2688 2112 2035 2253 
C 2541 2432 2918 2867 2918 3379 
C 2918 3891 2342 4256 1677 4256 
C 992 4256 474 3885 474 3398 
C 474 3162 634 3059 800 3059 
C 998 3059 1126 3200 1126 3386 
C 1126 3622 922 3712 781 3718 
C 1050 4070 1542 4090 1658 4090 
C 1824 4090 2310 4038 2310 3379 
C 2310 2931 2125 2662 2035 2560 
C 1843 2362 1696 2349 1306 2323 
C 1184 2317 1133 2310 1133 2227 
C 1133 2138 1190 2138 1299 2138 
L 1619 2138 
C 2125 2138 2445 1766 2445 1094 
C 2445 294 1990 58 1651 58 
C 1299 58 819 186 595 525 
C 826 525 986 672 986 883 
C 986 1088 838 1235 634 1235 
C 461 1235 282 1126 282 870 
C 282 262 934 -134 1664 -134 
C 2515 -134 3110 454 3110 1094 
z
" transform="scale(0.015625)"/>
     </defs>
     <use xlink:href="#LMRoman8-Regular-79"/>
     <use xlink:href="#LMRoman8-Regular-65" x="56.099991"/>
     <use xlink:href="#LMRoman8-Regular-61" x="103.299988"/>
     <use xlink:href="#LMRoman8-Regular-72" x="156.399979"/>
     <use xlink:href="#LMRoman8-Regular-20" x="197.799973"/>
     <use xlink:href="#LMRoman8-Regular-33" x="233.199966"/>
    </g>
   </g>
  </g>
 </g>
</svg>
