<?xml version="1.0" encoding="utf-8" standalone="no"?>
<!DOCTYPE svg PUBLIC "-//W3C//DTD SVG 1.1//EN"
  "http://www.w3.org/Graphics/SVG/1.1/DTD/svg11.dtd">
<svg xmlns:xlink="http://www.w3.org/1999/xlink" width="288pt" height="216pt" viewBox="0 0 288 216" xmlns="http://www.w3.org/2000/svg" version="1.1">
 <metadata>
  <rdf:RDF xmlns:dc="http://purl.org/dc/elements/1.1/" xmlns:cc="http://creativecommons.org/ns#" xmlns:rdf="http://www.w3.org/1999/02/22-rdf-syntax-ns#">
   <cc:Work>
    <dc:type rdf:resource="http://purl.org/dc/dcmitype/StillImage"/>
    <dc:date>2022-05-20T12:57:49.434281</dc:date>
    <dc:format>image/svg+xml</dc:format>
    <dc:creator>
     <cc:Agent>
      <dc:title>Matplotlib v3.5.1, https://matplotlib.org/</dc:title>
     </cc:Agent>
    </dc:creator>
   </cc:Work>
  </rdf:RDF>
 </metadata>
 <defs>
  <style type="text/css">*{stroke-linejoin: round; stroke-linecap: butt}</style>
 </defs>
 <g id="figure_1">
  <g id="patch_1">
   <path d="M 0 216 
L 288 216 
L 288 0 
L 0 0 
L 0 216 
z
" style="fill: none"/>
  </g>
  <g id="axes_1">
   <g id="patch_2">
    <path d="M 39.07375 170.725 
L 274.17869 170.725 
L 274.17869 12.96 
L 39.07375 12.96 
L 39.07375 170.725 
z
" style="fill: none"/>
   </g>
   <g id="matplotlib.axis_1">
    <g id="xtick_1">
     <g id="line2d_1">
      <defs>
       <path id="m42a5f0fbed" d="M 0 0 
L 0 3.5 
" style="stroke: #000000; stroke-width: 0.8"/>
      </defs>
      <g>
       <use xlink:href="#m42a5f0fbed" x="47.235752" y="170.725" style="stroke: #000000; stroke-width: 0.8"/>
      </g>
     </g>
     <g id="text_1">
      <!-- 0 -->
      <g transform="translate(44.050127 186.05375)scale(0.12 -0.12)">
       <defs>
        <path id="LMRoman8-Regular-30" d="M 3130 2042 
C 3130 2726 3059 3142 2848 3552 
C 2566 4115 2048 4256 1696 4256 
C 890 4256 595 3654 506 3475 
C 275 3008 262 2374 262 2042 
C 262 1619 282 973 589 461 
C 883 -13 1357 -134 1696 -134 
C 2003 -134 2554 -38 2874 595 
C 3110 1056 3130 1626 3130 2042 
z
M 2560 2118 
C 2560 1741 2560 1165 2483 806 
C 2349 134 1907 45 1696 45 
C 1478 45 1037 147 902 819 
C 832 1184 832 1786 832 2118 
C 832 2560 832 3008 902 3360 
C 1037 4013 1536 4077 1696 4077 
C 1914 4077 2355 3968 2483 3386 
C 2560 3034 2560 2554 2560 2118 
z
" transform="scale(0.015625)"/>
       </defs>
       <use xlink:href="#LMRoman8-Regular-30"/>
      </g>
     </g>
    </g>
    <g id="xtick_2">
     <g id="line2d_2">
      <g>
       <use xlink:href="#m42a5f0fbed" x="101.794589" y="170.725" style="stroke: #000000; stroke-width: 0.8"/>
      </g>
     </g>
     <g id="text_2">
      <!-- 100 -->
      <g transform="translate(92.237714 186.05375)scale(0.12 -0.12)">
       <defs>
        <path id="LMRoman8-Regular-31" d="M 2861 0 
L 2861 211 
L 2637 211 
C 2029 211 2010 288 2010 525 
L 2010 4077 
C 2010 4250 1997 4256 1824 4256 
C 1562 4000 1222 3846 614 3846 
L 614 3635 
C 787 3635 1133 3635 1504 3808 
L 1504 525 
C 1504 288 1485 211 877 211 
L 653 211 
L 653 0 
C 915 19 1466 19 1754 19 
C 2042 19 2598 19 2861 0 
z
" transform="scale(0.015625)"/>
       </defs>
       <use xlink:href="#LMRoman8-Regular-31"/>
       <use xlink:href="#LMRoman8-Regular-30" x="53.099991"/>
       <use xlink:href="#LMRoman8-Regular-30" x="106.199982"/>
      </g>
     </g>
    </g>
    <g id="xtick_3">
     <g id="line2d_3">
      <g>
       <use xlink:href="#m42a5f0fbed" x="156.353426" y="170.725" style="stroke: #000000; stroke-width: 0.8"/>
      </g>
     </g>
     <g id="text_3">
      <!-- 200 -->
      <g transform="translate(146.796551 186.05375)scale(0.12 -0.12)">
       <defs>
        <path id="LMRoman8-Regular-32" d="M 3053 1146 
L 2854 1146 
C 2835 1018 2784 698 2707 576 
C 2669 525 2182 525 2080 525 
L 941 525 
L 1805 1306 
C 1907 1402 2176 1613 2278 1702 
C 2675 2067 3053 2419 3053 3002 
C 3053 3763 2413 4256 1613 4256 
C 845 4256 339 3674 339 3104 
C 339 2790 589 2746 678 2746 
C 813 2746 1011 2842 1011 3085 
C 1011 3418 691 3418 614 3418 
C 800 3885 1229 4045 1542 4045 
C 2138 4045 2445 3539 2445 3002 
C 2445 2336 1978 1850 1222 1075 
L 416 243 
C 339 173 339 160 339 0 
L 2867 0 
L 3053 1146 
z
" transform="scale(0.015625)"/>
       </defs>
       <use xlink:href="#LMRoman8-Regular-32"/>
       <use xlink:href="#LMRoman8-Regular-30" x="53.099991"/>
       <use xlink:href="#LMRoman8-Regular-30" x="106.199982"/>
      </g>
     </g>
    </g>
    <g id="xtick_4">
     <g id="line2d_4">
      <g>
       <use xlink:href="#m42a5f0fbed" x="210.912263" y="170.725" style="stroke: #000000; stroke-width: 0.8"/>
      </g>
     </g>
     <g id="text_4">
      <!-- 300 -->
      <g transform="translate(201.355388 186.05375)scale(0.12 -0.12)">
       <defs>
        <path id="LMRoman8-Regular-33" d="M 3110 1094 
C 3110 1626 2688 2112 2035 2253 
C 2541 2432 2918 2867 2918 3379 
C 2918 3891 2342 4256 1677 4256 
C 992 4256 474 3885 474 3398 
C 474 3162 634 3059 800 3059 
C 998 3059 1126 3200 1126 3386 
C 1126 3622 922 3712 781 3718 
C 1050 4070 1542 4090 1658 4090 
C 1824 4090 2310 4038 2310 3379 
C 2310 2931 2125 2662 2035 2560 
C 1843 2362 1696 2349 1306 2323 
C 1184 2317 1133 2310 1133 2227 
C 1133 2138 1190 2138 1299 2138 
L 1619 2138 
C 2125 2138 2445 1766 2445 1094 
C 2445 294 1990 58 1651 58 
C 1299 58 819 186 595 525 
C 826 525 986 672 986 883 
C 986 1088 838 1235 634 1235 
C 461 1235 282 1126 282 870 
C 282 262 934 -134 1664 -134 
C 2515 -134 3110 454 3110 1094 
z
" transform="scale(0.015625)"/>
       </defs>
       <use xlink:href="#LMRoman8-Regular-33"/>
       <use xlink:href="#LMRoman8-Regular-30" x="53.099991"/>
       <use xlink:href="#LMRoman8-Regular-30" x="106.199982"/>
      </g>
     </g>
    </g>
    <g id="xtick_5">
     <g id="line2d_5">
      <g>
       <use xlink:href="#m42a5f0fbed" x="265.471099" y="170.725" style="stroke: #000000; stroke-width: 0.8"/>
      </g>
     </g>
     <g id="text_5">
      <!-- 400 -->
      <g transform="translate(255.914224 186.05375)scale(0.12 -0.12)">
       <defs>
        <path id="LMRoman8-Regular-34" d="M 3200 1050 
L 3200 1261 
L 2522 1261 
L 2522 4141 
C 2522 4269 2522 4320 2387 4320 
C 2304 4320 2298 4314 2234 4224 
L 192 1261 
L 192 1050 
L 1997 1050 
L 1997 518 
C 1997 282 1978 211 1485 211 
L 1338 211 
L 1338 0 
L 2259 19 
L 3181 0 
L 3181 211 
L 3034 211 
C 2541 211 2522 282 2522 518 
L 2522 1050 
L 3200 1050 
z
M 2042 1261 
L 416 1261 
L 2042 3622 
L 2042 1261 
z
" transform="scale(0.015625)"/>
       </defs>
       <use xlink:href="#LMRoman8-Regular-34"/>
       <use xlink:href="#LMRoman8-Regular-30" x="53.099991"/>
       <use xlink:href="#LMRoman8-Regular-30" x="106.199982"/>
      </g>
     </g>
    </g>
    <g id="text_6">
     <!-- surface -->
     <g transform="translate(137.28747 200.71125)scale(0.12 -0.12)">
      <defs>
       <path id="LMRoman8-Regular-73" d="M 2451 826 
C 2451 1133 2266 1581 1504 1722 
C 1453 1734 1094 1798 1069 1798 
C 870 1843 570 1978 570 2234 
C 570 2426 710 2694 1318 2694 
C 2035 2694 2067 2170 2080 1990 
C 2086 1939 2131 1920 2176 1920 
C 2278 1920 2278 1965 2278 2086 
L 2278 2688 
C 2278 2790 2278 2854 2195 2854 
C 2163 2854 2144 2854 2042 2752 
C 2029 2746 1971 2688 1952 2688 
C 1952 2688 1933 2688 1894 2714 
C 1792 2784 1606 2854 1318 2854 
C 422 2854 224 2368 224 2061 
C 224 1741 461 1555 480 1536 
C 736 1344 883 1318 1312 1242 
C 1613 1184 2106 1094 2106 659 
C 2106 410 1939 115 1350 115 
C 704 115 518 614 435 954 
C 410 1037 403 1069 326 1069 
C 224 1069 224 1018 224 896 
L 224 102 
C 224 0 224 -64 307 -64 
C 346 -64 352 -58 467 64 
C 499 96 570 179 602 211 
C 890 -51 1190 -64 1357 -64 
C 2170 -64 2451 403 2451 826 
z
" transform="scale(0.015625)"/>
       <path id="LMRoman8-Regular-75" d="M 3597 0 
L 3597 211 
C 3162 211 3110 256 3110 570 
L 3110 2822 
L 2138 2752 
L 2138 2541 
C 2573 2541 2624 2496 2624 2182 
L 2624 1069 
C 2624 518 2291 115 1811 115 
C 1261 115 1235 390 1235 710 
L 1235 2822 
L 262 2752 
L 262 2541 
C 749 2541 749 2522 749 1952 
L 749 992 
C 749 531 749 -64 1773 -64 
C 2374 -64 2605 397 2637 454 
L 2643 454 
L 2643 -64 
L 3597 0 
z
" transform="scale(0.015625)"/>
       <path id="LMRoman8-Regular-72" d="M 2458 2419 
C 2458 2643 2253 2822 1971 2822 
C 1555 2822 1274 2509 1139 2150 
L 1133 2150 
L 1133 2822 
L 224 2752 
L 224 2541 
C 659 2541 710 2496 710 2182 
L 710 499 
C 710 211 634 211 224 211 
L 224 0 
C 474 19 826 19 979 19 
C 1357 19 1370 19 1786 0 
L 1786 211 
L 1658 211 
C 1190 211 1178 282 1178 512 
L 1178 1459 
C 1178 1939 1376 2630 1990 2643 
C 1952 2618 1888 2566 1888 2419 
C 1888 2221 2042 2131 2170 2131 
C 2323 2131 2458 2234 2458 2419 
z
" transform="scale(0.015625)"/>
       <path id="LMRoman8-Regular-66" d="M 2413 4045 
C 2413 4320 2144 4506 1805 4506 
C 1325 4506 755 4160 755 3475 
L 755 2758 
L 230 2758 
L 230 2547 
L 755 2547 
L 755 499 
C 755 211 678 211 269 211 
L 269 0 
C 518 19 870 19 1024 19 
C 1402 19 1414 19 1830 0 
L 1830 211 
L 1702 211 
C 1235 211 1222 282 1222 512 
L 1222 2547 
L 1990 2547 
L 1990 2758 
L 1203 2758 
L 1203 3482 
C 1203 4038 1517 4326 1798 4326 
C 1901 4326 1958 4301 1984 4294 
C 1869 4237 1837 4128 1837 4045 
C 1837 3878 1958 3757 2125 3757 
C 2298 3757 2413 3878 2413 4045 
z
" transform="scale(0.015625)"/>
       <path id="LMRoman8-Regular-61" d="M 3290 576 
L 3290 928 
L 3091 928 
L 3091 576 
C 3091 314 2995 211 2861 211 
C 2624 211 2624 506 2624 576 
L 2624 1907 
C 2624 2534 2016 2854 1434 2854 
C 902 2854 429 2650 429 2227 
C 429 2035 563 1920 730 1920 
C 909 1920 1030 2048 1030 2221 
C 1030 2374 934 2483 794 2515 
C 1030 2675 1376 2675 1421 2675 
C 1779 2675 2138 2426 2138 1901 
L 2138 1702 
C 1766 1683 1338 1664 890 1478 
C 326 1235 218 864 218 653 
C 218 102 864 -64 1306 -64 
C 1773 -64 2061 198 2202 454 
C 2234 211 2400 -32 2682 -32 
C 2746 -32 3290 -6 3290 576 
z
M 2138 902 
C 2138 282 1613 115 1357 115 
C 1024 115 742 339 742 646 
C 742 1069 1139 1504 2138 1536 
L 2138 902 
z
" transform="scale(0.015625)"/>
       <path id="LMRoman8-Regular-63" d="M 2822 768 
C 2822 845 2739 845 2720 845 
C 2675 845 2643 838 2624 774 
C 2579 640 2400 134 1760 134 
C 1363 134 794 442 794 1389 
C 794 2310 1267 2656 1734 2656 
C 1792 2656 2131 2656 2355 2541 
C 2176 2483 2150 2336 2150 2259 
C 2150 2086 2272 1958 2451 1958 
C 2618 1958 2752 2074 2752 2266 
C 2752 2662 2317 2854 1715 2854 
C 826 2854 224 2144 224 1382 
C 224 570 890 -64 1696 -64 
C 2598 -64 2822 691 2822 768 
z
" transform="scale(0.015625)"/>
       <path id="LMRoman8-Regular-65" d="M 2822 768 
C 2822 794 2803 858 2720 858 
C 2650 858 2637 813 2624 774 
C 2394 154 1843 134 1728 134 
C 1440 134 1146 269 954 563 
C 762 858 762 1267 762 1459 
L 2643 1459 
C 2784 1459 2822 1459 2822 1606 
C 2822 2176 2509 2854 1606 2854 
C 813 2854 192 2195 192 1402 
C 192 576 883 -64 1690 -64 
C 2502 -64 2822 621 2822 768 
z
M 2387 1626 
L 768 1626 
C 826 2522 1370 2675 1606 2675 
C 2355 2675 2381 1773 2387 1626 
z
" transform="scale(0.015625)"/>
      </defs>
      <use xlink:href="#LMRoman8-Regular-73"/>
      <use xlink:href="#LMRoman8-Regular-75" x="41.899994"/>
      <use xlink:href="#LMRoman8-Regular-72" x="100.899979"/>
      <use xlink:href="#LMRoman8-Regular-66" x="142.299973"/>
      <use xlink:href="#LMRoman8-Regular-61" x="174.799957"/>
      <use xlink:href="#LMRoman8-Regular-63" x="227.899948"/>
      <use xlink:href="#LMRoman8-Regular-65" x="275.099945"/>
     </g>
    </g>
   </g>
   <g id="matplotlib.axis_2">
    <g id="ytick_1">
     <g id="line2d_6">
      <defs>
       <path id="macb68d18ed" d="M 0 0 
L -3.5 0 
" style="stroke: #000000; stroke-width: 0.8"/>
      </defs>
      <g>
       <use xlink:href="#macb68d18ed" x="39.07375" y="165.247964" style="stroke: #000000; stroke-width: 0.8"/>
      </g>
     </g>
     <g id="text_7">
      <!-- 0 -->
      <g transform="translate(25.7025 169.412339)scale(0.12 -0.12)">
       <use xlink:href="#LMRoman8-Regular-30"/>
      </g>
     </g>
    </g>
    <g id="ytick_2">
     <g id="line2d_7">
      <g>
       <use xlink:href="#macb68d18ed" x="39.07375" y="128.63676" style="stroke: #000000; stroke-width: 0.8"/>
      </g>
     </g>
     <g id="text_8">
      <!-- 100 -->
      <g transform="translate(12.96 132.801135)scale(0.12 -0.12)">
       <use xlink:href="#LMRoman8-Regular-31"/>
       <use xlink:href="#LMRoman8-Regular-30" x="53.099991"/>
       <use xlink:href="#LMRoman8-Regular-30" x="106.199982"/>
      </g>
     </g>
    </g>
    <g id="ytick_3">
     <g id="line2d_8">
      <g>
       <use xlink:href="#macb68d18ed" x="39.07375" y="92.025556" style="stroke: #000000; stroke-width: 0.8"/>
      </g>
     </g>
     <g id="text_9">
      <!-- 200 -->
      <g transform="translate(12.96 96.189931)scale(0.12 -0.12)">
       <use xlink:href="#LMRoman8-Regular-32"/>
       <use xlink:href="#LMRoman8-Regular-30" x="53.099991"/>
       <use xlink:href="#LMRoman8-Regular-30" x="106.199982"/>
      </g>
     </g>
    </g>
    <g id="ytick_4">
     <g id="line2d_9">
      <g>
       <use xlink:href="#macb68d18ed" x="39.07375" y="55.414352" style="stroke: #000000; stroke-width: 0.8"/>
      </g>
     </g>
     <g id="text_10">
      <!-- 300 -->
      <g transform="translate(12.96 59.578727)scale(0.12 -0.12)">
       <use xlink:href="#LMRoman8-Regular-33"/>
       <use xlink:href="#LMRoman8-Regular-30" x="53.099991"/>
       <use xlink:href="#LMRoman8-Regular-30" x="106.199982"/>
      </g>
     </g>
    </g>
    <g id="ytick_5">
     <g id="line2d_10">
      <g>
       <use xlink:href="#macb68d18ed" x="39.07375" y="18.803148" style="stroke: #000000; stroke-width: 0.8"/>
      </g>
     </g>
     <g id="text_11">
      <!-- 400 -->
      <g transform="translate(12.96 22.967523)scale(0.12 -0.12)">
       <use xlink:href="#LMRoman8-Regular-34"/>
       <use xlink:href="#LMRoman8-Regular-30" x="53.099991"/>
       <use xlink:href="#LMRoman8-Regular-30" x="106.199982"/>
      </g>
     </g>
    </g>
   </g>
   <g id="line2d_11">
    <path d="M 47.78134 164.881852 
L 48.286481 164.542882 
L 48.955685 164.093819 
L 49.788951 163.534663 
L 50.78628 162.865415 
L 51.947672 162.086073 
L 53.273127 161.196639 
L 54.762645 160.197112 
L 56.416225 159.087492 
L 58.233868 157.86778 
L 60.215574 156.537974 
L 62.361343 155.098076 
L 64.671175 153.548084 
L 67.145069 151.888 
L 69.783026 150.117823 
L 72.585046 148.237554 
L 75.551129 146.247191 
L 78.681275 144.146736 
L 81.975483 141.936188 
L 85.433755 139.615547 
L 89.056089 137.184813 
L 92.842486 134.643986 
L 96.792946 131.993067 
L 100.907468 129.232054 
L 105.186053 126.360949 
L 109.628702 123.379751 
L 114.235412 120.28846 
L 119.006186 117.087076 
L 123.941023 113.7756 
L 129.039922 110.35403 
L 134.302884 106.822368 
L 139.729909 103.180613 
L 145.320997 99.428765 
L 151.076148 95.566825 
L 156.995361 91.594791 
L 163.078637 87.512665 
L 169.325976 83.320446 
L 175.737378 79.018134 
L 182.312843 74.605729 
L 189.05237 70.083231 
L 195.955961 65.45064 
L 203.023614 60.707957 
L 210.25533 55.855181 
L 217.651108 50.892312 
L 225.21095 45.81935 
L 232.934854 40.636295 
L 240.822821 35.343148 
L 248.874851 29.939907 
L 257.090944 24.426574 
L 265.471099 18.803148 
" clip-path="url(#p1a3c451608)" style="fill: none; stroke-dasharray: 1,1.65; stroke-dashoffset: 0; stroke: #000000"/>
   </g>
   <g id="line2d_12">
    <path d="M 47.78134 164.881852 
L 48.286481 164.604696 
L 48.955685 164.265198 
L 49.788951 163.867571 
L 50.78628 163.414966 
L 51.947672 162.909879 
L 53.273127 162.354358 
L 54.762645 161.750127 
L 56.416225 161.098672 
L 58.233868 160.40129 
L 60.215574 159.659131 
L 62.361343 158.873221 
L 64.671175 158.044491 
L 67.145069 157.173783 
L 69.783026 156.261871 
L 72.585046 155.309468 
L 75.551129 154.317232 
L 78.681275 153.285776 
L 81.975483 152.215673 
L 85.433755 151.107457 
L 89.056089 149.961632 
L 92.842486 148.778672 
L 96.792946 147.559025 
L 100.907468 146.303115 
L 105.186053 145.011346 
L 109.628702 143.684101 
L 114.235412 142.321744 
L 119.006186 140.924624 
L 123.941023 139.493074 
L 129.039922 138.027413 
L 134.302884 136.527948 
L 139.729909 134.994973 
L 145.320997 133.428769 
L 151.076148 131.829609 
L 156.995361 130.197754 
L 163.078637 128.533459 
L 169.325976 126.836966 
L 175.737378 125.108512 
L 182.312843 123.348325 
L 189.05237 121.556625 
L 195.955961 119.733628 
L 203.023614 117.87954 
L 210.25533 115.994564 
L 217.651108 114.078893 
L 225.21095 112.13272 
L 232.934854 110.156228 
L 240.822821 108.149598 
L 248.874851 106.113004 
L 257.090944 104.046617 
L 265.471099 101.950603 
" clip-path="url(#p1a3c451608)" style="fill: none; stroke: #000000; stroke-linecap: square"/>
   </g>
   <g id="patch_3">
    <path d="M 39.07375 164.881852 
L 39.07375 18.803148 
" style="fill: none; stroke: #000000; stroke-width: 0.5; stroke-linejoin: miter; stroke-linecap: square"/>
   </g>
   <g id="patch_4">
    <path d="M 47.78134 170.725 
L 265.471099 170.725 
" style="fill: none; stroke: #000000; stroke-width: 0.5; stroke-linejoin: miter; stroke-linecap: square"/>
   </g>
   <g id="legend_1">
    <g id="line2d_13">
     <path d="M 49.87375 27.96 
L 61.87375 27.96 
L 73.87375 27.96 
" style="fill: none; stroke-dasharray: 1,1.65; stroke-dashoffset: 0; stroke: #000000"/>
    </g>
    <g id="text_12">
     <!-- surface réelle -->
     <g transform="translate(83.47375 32.16)scale(0.12 -0.12)">
      <defs>
       <path id="LMRoman8-Regular-20" transform="scale(0.015625)"/>
       <path id="LMRoman8-Regular-e9" d="M 2822 768 
C 2822 794 2803 858 2720 858 
C 2650 858 2637 813 2624 774 
C 2394 154 1843 134 1728 134 
C 1440 134 1146 269 954 563 
C 762 858 762 1267 762 1459 
L 2643 1459 
C 2784 1459 2822 1459 2822 1606 
C 2822 2176 2509 2854 1606 2854 
C 813 2854 192 2195 192 1402 
C 192 576 883 -64 1690 -64 
C 2502 -64 2822 621 2822 768 
z
M 2387 1626 
L 768 1626 
C 826 2522 1370 2675 1606 2675 
C 2355 2675 2381 1773 2387 1626 
z
M 2355 4211 
C 2355 4358 2221 4467 2106 4467 
C 2080 4467 1990 4467 1907 4365 
L 1088 3392 
L 1222 3245 
L 2227 4000 
C 2298 4051 2355 4109 2355 4211 
z
" transform="scale(0.015625)"/>
       <path id="LMRoman8-Regular-6c" d="M 1709 0 
L 1709 211 
C 1299 211 1222 211 1222 499 
L 1222 4442 
L 269 4371 
L 269 4160 
C 704 4160 755 4115 755 3802 
L 755 499 
C 755 211 678 211 269 211 
L 269 0 
C 518 19 877 19 986 19 
C 1114 19 1459 19 1709 0 
z
" transform="scale(0.015625)"/>
      </defs>
      <use xlink:href="#LMRoman8-Regular-73"/>
      <use xlink:href="#LMRoman8-Regular-75" x="41.899994"/>
      <use xlink:href="#LMRoman8-Regular-72" x="100.899979"/>
      <use xlink:href="#LMRoman8-Regular-66" x="142.299973"/>
      <use xlink:href="#LMRoman8-Regular-61" x="174.799957"/>
      <use xlink:href="#LMRoman8-Regular-63" x="227.899948"/>
      <use xlink:href="#LMRoman8-Regular-65" x="275.099945"/>
      <use xlink:href="#LMRoman8-Regular-20" x="322.299942"/>
      <use xlink:href="#LMRoman8-Regular-72" x="357.699936"/>
      <use xlink:href="#LMRoman8-Regular-e9" x="399.09993"/>
      <use xlink:href="#LMRoman8-Regular-65" x="446.299927"/>
      <use xlink:href="#LMRoman8-Regular-6c" x="493.499924"/>
      <use xlink:href="#LMRoman8-Regular-6c" x="522.999908"/>
      <use xlink:href="#LMRoman8-Regular-65" x="552.499893"/>
     </g>
    </g>
    <g id="line2d_14">
     <path d="M 49.87375 44.7375 
L 61.87375 44.7375 
L 73.87375 44.7375 
" style="fill: none; stroke: #000000; stroke-linecap: square"/>
    </g>
    <g id="text_13">
     <!-- surface perçue -->
     <g transform="translate(83.47375 48.9375)scale(0.12 -0.12)">
      <defs>
       <path id="LMRoman8-Regular-70" d="M 3546 1382 
C 3546 2182 2899 2822 2125 2822 
C 1875 2822 1504 2758 1178 2426 
L 1178 2822 
L 224 2752 
L 224 2541 
C 678 2541 710 2502 710 2234 
L 710 -742 
C 710 -1030 634 -1030 224 -1030 
L 224 -1242 
C 499 -1222 781 -1222 954 -1222 
C 1139 -1222 1408 -1222 1683 -1242 
L 1683 -1030 
C 1274 -1030 1197 -1030 1197 -742 
L 1197 314 
C 1498 -13 1824 -64 2029 -64 
C 2842 -64 3546 563 3546 1382 
z
M 2976 1382 
C 2976 646 2515 115 1997 115 
C 1773 115 1478 211 1274 531 
C 1197 640 1197 646 1197 768 
L 1197 2131 
C 1344 2387 1664 2624 2067 2624 
C 2560 2624 2976 2080 2976 1382 
z
" transform="scale(0.015625)"/>
       <path id="LMRoman8-Regular-e7" d="M 2822 768 
C 2822 845 2739 845 2720 845 
C 2675 845 2643 838 2624 774 
C 2579 640 2400 134 1760 134 
C 1363 134 794 442 794 1389 
C 794 2310 1267 2656 1734 2656 
C 1792 2656 2131 2656 2355 2541 
C 2176 2483 2150 2336 2150 2259 
C 2150 2086 2272 1958 2451 1958 
C 2618 1958 2752 2074 2752 2266 
C 2752 2662 2317 2854 1715 2854 
C 826 2854 224 2144 224 1382 
C 224 653 762 64 1459 -45 
L 1459 -608 
C 1715 -608 2010 -621 2010 -838 
C 2010 -1075 1357 -1075 858 -1075 
L 755 -1075 
L 755 -1280 
L 960 -1280 
C 1677 -1280 2573 -1280 2573 -838 
C 2573 -538 2214 -403 1869 -403 
L 1869 -58 
C 2624 32 2822 698 2822 768 
z
" transform="scale(0.015625)"/>
      </defs>
      <use xlink:href="#LMRoman8-Regular-73"/>
      <use xlink:href="#LMRoman8-Regular-75" x="41.899994"/>
      <use xlink:href="#LMRoman8-Regular-72" x="100.899979"/>
      <use xlink:href="#LMRoman8-Regular-66" x="142.299973"/>
      <use xlink:href="#LMRoman8-Regular-61" x="174.799957"/>
      <use xlink:href="#LMRoman8-Regular-63" x="227.899948"/>
      <use xlink:href="#LMRoman8-Regular-65" x="275.099945"/>
      <use xlink:href="#LMRoman8-Regular-20" x="322.299942"/>
      <use xlink:href="#LMRoman8-Regular-70" x="357.699936"/>
      <use xlink:href="#LMRoman8-Regular-65" x="416.699921"/>
      <use xlink:href="#LMRoman8-Regular-72" x="463.899918"/>
      <use xlink:href="#LMRoman8-Regular-e7" x="505.299911"/>
      <use xlink:href="#LMRoman8-Regular-75" x="552.499908"/>
      <use xlink:href="#LMRoman8-Regular-65" x="611.499893"/>
     </g>
    </g>
   </g>
  </g>
 </g>
 <defs>
  <clipPath id="p1a3c451608">
   <rect x="39.07375" y="12.96" width="235.10494" height="157.765"/>
  </clipPath>
 </defs>
</svg>
