<?xml version="1.0" encoding="utf-8" standalone="no"?>
<!DOCTYPE svg PUBLIC "-//W3C//DTD SVG 1.1//EN"
  "http://www.w3.org/Graphics/SVG/1.1/DTD/svg11.dtd">
<svg xmlns:xlink="http://www.w3.org/1999/xlink" width="288pt" height="216pt" viewBox="0 0 288 216" xmlns="http://www.w3.org/2000/svg" version="1.1">
 <metadata>
  <rdf:RDF xmlns:dc="http://purl.org/dc/elements/1.1/" xmlns:cc="http://creativecommons.org/ns#" xmlns:rdf="http://www.w3.org/1999/02/22-rdf-syntax-ns#">
   <cc:Work>
    <dc:type rdf:resource="http://purl.org/dc/dcmitype/StillImage"/>
    <dc:date>2022-05-18T22:31:57.817208</dc:date>
    <dc:format>image/svg+xml</dc:format>
    <dc:creator>
     <cc:Agent>
      <dc:title>Matplotlib v3.5.1, https://matplotlib.org/</dc:title>
     </cc:Agent>
    </dc:creator>
   </cc:Work>
  </rdf:RDF>
 </metadata>
 <defs>
  <style type="text/css">*{stroke-linejoin: round; stroke-linecap: butt}</style>
 </defs>
 <g id="figure_1">
  <g id="patch_1">
   <path d="M 0 216 
L 288 216 
L 288 0 
L 0 0 
L 0 216 
z
" style="fill: none"/>
  </g>
  <g id="axes_1">
   <g id="patch_2">
    <path d="M 59.314878 108 
C 59.314878 104.67935 58.459623 101.414 56.831815 98.519703 
C 55.204007 95.625405 52.857862 93.19856 50.020249 91.473838 
C 47.182635 89.749116 43.948064 88.783962 40.629312 88.671705 
C 37.31056 88.559447 34.018164 89.303825 31.070491 90.832859 
L 39.975529 108 
L 59.314878 108 
z
"/>
   </g>
   <g id="patch_3">
    <path d="M 31.070491 90.832859 
C 26.992514 92.94821 23.798756 96.448936 22.065479 100.703388 
C 20.332201 104.95784 20.170322 109.693763 21.609049 114.056638 
L 39.975529 108 
L 31.070491 90.832859 
z
" style="fill: #1f77b4"/>
   </g>
   <g id="patch_4">
    <path d="M 21.609049 114.056638 
C 22.903872 117.983129 25.424331 121.392796 28.798365 123.782314 
C 32.172398 126.171832 36.225392 127.417539 40.359056 127.335546 
L 39.975529 108 
L 21.609049 114.056638 
z
" style="fill: #ff7f0e"/>
   </g>
   <g id="patch_5">
    <path d="M 40.359056 127.335546 
C 42.231571 127.298404 44.088799 126.989448 45.872491 126.418368 
C 47.656183 125.847287 49.347496 125.020116 50.893383 123.962797 
L 39.975529 108 
L 40.359056 127.335546 
z
" style="fill: #2ca02c"/>
   </g>
   <g id="patch_6">
    <path d="M 50.893383 123.962797 
C 52.395464 122.93544 53.745044 121.701189 54.902141 120.296612 
C 56.059238 118.892036 57.012311 117.331141 57.733124 115.660172 
L 39.975529 108 
L 50.893383 123.962797 
z
" style="fill: #d62728"/>
   </g>
   <g id="patch_7">
    <path d="M 57.733124 115.660172 
C 58.148569 114.6971 58.484978 113.701825 58.739022 112.6842 
C 58.993067 111.666574 59.163906 110.629965 59.249847 109.584635 
L 39.975529 108 
L 57.733124 115.660172 
z
" style="fill: #9467bd"/>
   </g>
   <g id="patch_8">
    <path d="M 59.249847 109.584635 
C 59.271513 109.321113 59.287771 109.057174 59.298613 108.792985 
C 59.309455 108.528796 59.314878 108.264413 59.314878 108.000002 
L 39.975529 108 
L 59.249847 109.584635 
z
" style="fill: #8c564b"/>
   </g>
   <g id="matplotlib.axis_1"/>
   <g id="matplotlib.axis_2"/>
   <g id="text_1">
    <!-- jour 0 -->
    <g transform="translate(20.211529 74.984471)scale(0.144 -0.144)">
     <defs>
      <path id="LMRoman8-Regular-6a" d="M 1453 -294 
L 1453 2822 
L 448 2752 
L 448 2541 
C 928 2541 986 2496 986 2182 
L 986 -307 
C 986 -480 960 -1126 518 -1126 
C 422 -1126 282 -1101 198 -1069 
C 237 -1056 371 -973 371 -794 
C 371 -621 250 -493 70 -493 
C -90 -493 -230 -602 -230 -800 
C -230 -1126 128 -1306 525 -1306 
C 1037 -1306 1453 -896 1453 -294 
z
M 1453 3853 
C 1453 4064 1286 4211 1101 4211 
C 915 4211 749 4064 749 3853 
C 749 3667 896 3501 1101 3501 
C 1299 3501 1453 3667 1453 3853 
z
" transform="scale(0.015625)"/>
      <path id="LMRoman8-Regular-6f" d="M 3200 1363 
C 3200 2163 2541 2854 1696 2854 
C 851 2854 192 2163 192 1363 
C 192 563 877 -64 1696 -64 
C 2522 -64 3200 563 3200 1363 
z
M 2630 1421 
C 2630 1126 2618 774 2438 506 
C 2266 250 1978 134 1696 134 
C 1350 134 1082 301 941 525 
C 781 787 762 1101 762 1421 
C 762 1664 762 2048 960 2323 
C 1126 2547 1395 2675 1696 2675 
C 2029 2675 2304 2515 2451 2291 
C 2624 2022 2630 1677 2630 1421 
z
" transform="scale(0.015625)"/>
      <path id="LMRoman8-Regular-75" d="M 3597 0 
L 3597 211 
C 3162 211 3110 256 3110 570 
L 3110 2822 
L 2138 2752 
L 2138 2541 
C 2573 2541 2624 2496 2624 2182 
L 2624 1069 
C 2624 518 2291 115 1811 115 
C 1261 115 1235 390 1235 710 
L 1235 2822 
L 262 2752 
L 262 2541 
C 749 2541 749 2522 749 1952 
L 749 992 
C 749 531 749 -64 1773 -64 
C 2374 -64 2605 397 2637 454 
L 2643 454 
L 2643 -64 
L 3597 0 
z
" transform="scale(0.015625)"/>
      <path id="LMRoman8-Regular-72" d="M 2458 2419 
C 2458 2643 2253 2822 1971 2822 
C 1555 2822 1274 2509 1139 2150 
L 1133 2150 
L 1133 2822 
L 224 2752 
L 224 2541 
C 659 2541 710 2496 710 2182 
L 710 499 
C 710 211 634 211 224 211 
L 224 0 
C 474 19 826 19 979 19 
C 1357 19 1370 19 1786 0 
L 1786 211 
L 1658 211 
C 1190 211 1178 282 1178 512 
L 1178 1459 
C 1178 1939 1376 2630 1990 2643 
C 1952 2618 1888 2566 1888 2419 
C 1888 2221 2042 2131 2170 2131 
C 2323 2131 2458 2234 2458 2419 
z
" transform="scale(0.015625)"/>
      <path id="LMRoman8-Regular-20" transform="scale(0.015625)"/>
      <path id="LMRoman8-Regular-30" d="M 3130 2042 
C 3130 2726 3059 3142 2848 3552 
C 2566 4115 2048 4256 1696 4256 
C 890 4256 595 3654 506 3475 
C 275 3008 262 2374 262 2042 
C 262 1619 282 973 589 461 
C 883 -13 1357 -134 1696 -134 
C 2003 -134 2554 -38 2874 595 
C 3110 1056 3130 1626 3130 2042 
z
M 2560 2118 
C 2560 1741 2560 1165 2483 806 
C 2349 134 1907 45 1696 45 
C 1478 45 1037 147 902 819 
C 832 1184 832 1786 832 2118 
C 832 2560 832 3008 902 3360 
C 1037 4013 1536 4077 1696 4077 
C 1914 4077 2355 3968 2483 3386 
C 2560 3034 2560 2554 2560 2118 
z
" transform="scale(0.015625)"/>
     </defs>
     <use xlink:href="#LMRoman8-Regular-6a"/>
     <use xlink:href="#LMRoman8-Regular-6f" x="32.499985"/>
     <use xlink:href="#LMRoman8-Regular-75" x="85.599976"/>
     <use xlink:href="#LMRoman8-Regular-72" x="144.59996"/>
     <use xlink:href="#LMRoman8-Regular-20" x="185.999954"/>
     <use xlink:href="#LMRoman8-Regular-30" x="221.399948"/>
    </g>
   </g>
  </g>
  <g id="axes_2">
   <g id="patch_9">
    <path d="M 130.822908 108 
C 130.822908 105.037679 130.226956 102.105407 129.070604 99.378101 
C 127.914251 96.650796 126.220957 94.183787 124.09173 92.124239 
C 121.962504 90.06469 119.440541 88.454385 116.676284 87.389382 
C 113.912028 86.324379 110.961557 85.826284 108.000875 85.924811 
L 108.735498 108 
L 130.822908 108 
z
"/>
   </g>
   <g id="patch_10">
    <path d="M 108.000875 85.924811 
C 103.813486 86.064159 99.750931 87.392117 96.28969 89.752931 
C 92.828448 92.113746 90.109344 95.411366 88.451291 99.259027 
L 108.735498 108 
L 108.000875 85.924811 
z
" style="fill: #1f77b4"/>
   </g>
   <g id="patch_11">
    <path d="M 88.451291 99.259027 
C 86.696012 103.332308 86.207713 107.841382 87.050312 112.195994 
C 87.892911 116.550605 90.027966 120.552072 93.175987 123.676584 
L 108.735498 108 
L 88.451291 99.259027 
z
" style="fill: #ff7f0e"/>
   </g>
   <g id="patch_12">
    <path d="M 93.175987 123.676584 
C 94.68454 125.173871 96.40135 126.445597 98.273247 127.452377 
C 100.145144 128.459156 102.1526 129.190487 104.233445 129.623718 
L 108.735498 108 
L 93.175987 123.676584 
z
" style="fill: #2ca02c"/>
   </g>
   <g id="patch_13">
    <path d="M 104.233445 129.623718 
C 107.86236 130.379257 111.623749 130.209267 115.169718 129.129469 
C 118.715688 128.049672 121.933439 126.094416 124.525359 123.444545 
L 108.735498 108 
L 104.233445 129.623718 
z
" style="fill: #d62728"/>
   </g>
   <g id="patch_14">
    <path d="M 124.525359 123.444545 
C 126.039669 121.896377 127.318087 120.133879 128.319522 118.2137 
C 129.320957 116.293521 130.034564 114.236457 130.437408 112.108623 
L 108.735498 108 
L 124.525359 123.444545 
z
" style="fill: #9467bd"/>
   </g>
   <g id="patch_15">
    <path d="M 130.437408 112.108623 
C 130.565556 111.431736 130.661967 110.749224 130.726322 110.063325 
C 130.790678 109.377427 130.822908 108.688893 130.822908 107.999982 
L 108.735498 108 
L 130.437408 112.108623 
z
" style="fill: #8c564b"/>
   </g>
   <g id="matplotlib.axis_3"/>
   <g id="matplotlib.axis_4"/>
   <g id="text_2">
    <!-- jour 1 -->
    <g transform="translate(88.971498 74.984471)scale(0.144 -0.144)">
     <defs>
      <path id="LMRoman8-Regular-31" d="M 2861 0 
L 2861 211 
L 2637 211 
C 2029 211 2010 288 2010 525 
L 2010 4077 
C 2010 4250 1997 4256 1824 4256 
C 1562 4000 1222 3846 614 3846 
L 614 3635 
C 787 3635 1133 3635 1504 3808 
L 1504 525 
C 1504 288 1485 211 877 211 
L 653 211 
L 653 0 
C 915 19 1466 19 1754 19 
C 2042 19 2598 19 2861 0 
z
" transform="scale(0.015625)"/>
     </defs>
     <use xlink:href="#LMRoman8-Regular-6a"/>
     <use xlink:href="#LMRoman8-Regular-6f" x="32.499985"/>
     <use xlink:href="#LMRoman8-Regular-75" x="85.599976"/>
     <use xlink:href="#LMRoman8-Regular-72" x="144.59996"/>
     <use xlink:href="#LMRoman8-Regular-20" x="185.999954"/>
     <use xlink:href="#LMRoman8-Regular-31" x="221.399948"/>
    </g>
   </g>
  </g>
  <g id="axes_3">
   <g id="patch_16">
    <path d="M 203.136793 108 
C 203.136793 102.122478 201.115919 96.419968 197.414925 91.854017 
C 193.713932 87.288065 188.553226 84.130588 182.802994 82.913993 
L 177.495468 108 
L 203.136793 108 
z
"/>
   </g>
   <g id="patch_17">
    <path d="M 182.802994 82.913993 
C 178.669537 82.039464 174.383301 82.199956 170.326818 83.381145 
C 166.270334 84.562333 162.567977 86.728003 159.550168 89.684876 
L 177.495468 108 
L 182.802994 82.913993 
z
" style="fill: #1f77b4"/>
   </g>
   <g id="patch_18">
    <path d="M 159.550168 89.684876 
C 155.484726 93.668226 152.859038 98.894022 152.089555 104.533419 
C 151.320072 110.172815 152.449745 115.911022 155.299402 120.837923 
L 177.495468 108 
L 159.550168 89.684876 
z
" style="fill: #ff7f0e"/>
   </g>
   <g id="patch_19">
    <path d="M 155.299402 120.837923 
C 156.239225 122.462825 157.354643 123.979622 158.625587 125.361025 
C 159.896531 126.742427 161.315333 127.9801 162.856465 129.051774 
L 177.495468 108 
L 155.299402 120.837923 
z
" style="fill: #2ca02c"/>
   </g>
   <g id="patch_20">
    <path d="M 162.856465 129.051774 
C 165.966825 131.214659 169.518219 132.661579 173.254499 133.288174 
C 176.99078 133.91477 180.819908 133.705604 184.465706 132.675764 
L 177.495468 108 
L 162.856465 129.051774 
z
" style="fill: #d62728"/>
   </g>
   <g id="patch_21">
    <path d="M 184.465706 132.675764 
C 186.878122 131.994322 189.177618 130.962775 191.29071 129.614089 
C 193.403802 128.265403 195.307738 126.6141 196.941672 124.71295 
L 177.495468 108 
L 184.465706 132.675764 
z
" style="fill: #9467bd"/>
   </g>
   <g id="patch_22">
    <path d="M 196.941672 124.71295 
C 198.924415 122.405947 200.480893 119.76441 201.538181 116.912099 
C 202.595469 114.059788 203.136794 111.041956 203.136793 107.999994 
L 177.495468 108 
L 196.941672 124.71295 
z
" style="fill: #8c564b"/>
   </g>
   <g id="matplotlib.axis_5"/>
   <g id="matplotlib.axis_6"/>
   <g id="text_3">
    <!-- jour 2 -->
    <g transform="translate(157.731468 74.984471)scale(0.144 -0.144)">
     <defs>
      <path id="LMRoman8-Regular-32" d="M 3053 1146 
L 2854 1146 
C 2835 1018 2784 698 2707 576 
C 2669 525 2182 525 2080 525 
L 941 525 
L 1805 1306 
C 1907 1402 2176 1613 2278 1702 
C 2675 2067 3053 2419 3053 3002 
C 3053 3763 2413 4256 1613 4256 
C 845 4256 339 3674 339 3104 
C 339 2790 589 2746 678 2746 
C 813 2746 1011 2842 1011 3085 
C 1011 3418 691 3418 614 3418 
C 800 3885 1229 4045 1542 4045 
C 2138 4045 2445 3539 2445 3002 
C 2445 2336 1978 1850 1222 1075 
L 416 243 
C 339 173 339 160 339 0 
L 2867 0 
L 3053 1146 
z
" transform="scale(0.015625)"/>
     </defs>
     <use xlink:href="#LMRoman8-Regular-6a"/>
     <use xlink:href="#LMRoman8-Regular-6f" x="32.499985"/>
     <use xlink:href="#LMRoman8-Regular-75" x="85.599976"/>
     <use xlink:href="#LMRoman8-Regular-72" x="144.59996"/>
     <use xlink:href="#LMRoman8-Regular-20" x="185.999954"/>
     <use xlink:href="#LMRoman8-Regular-32" x="221.399948"/>
    </g>
   </g>
  </g>
  <g id="axes_4">
   <g id="patch_23">
    <path d="M 275.0402 108 
C 275.0402 101.911461 273.108432 95.977125 269.524299 91.055307 
C 265.940165 86.133488 260.885216 82.473495 255.090573 80.604692 
L 246.255437 108 
L 275.0402 108 
z
"/>
   </g>
   <g id="patch_24">
    <path d="M 255.090573 80.604692 
C 250.501586 79.124718 245.613451 78.821249 240.876646 79.72225 
C 236.139841 80.623251 231.704486 82.700168 227.979332 85.761598 
L 246.255437 108 
L 255.090573 80.604692 
z
" style="fill: #1f77b4"/>
   </g>
   <g id="patch_25">
    <path d="M 227.979332 85.761598 
C 223.709503 89.270656 220.539302 93.936293 218.849359 99.198328 
C 217.159416 104.460363 217.020186 110.09942 218.448386 115.438443 
L 246.255437 108 
L 227.979332 85.761598 
z
" style="fill: #ff7f0e"/>
   </g>
   <g id="patch_26">
    <path d="M 218.448386 115.438443 
C 219.498646 119.364619 221.368621 123.024209 223.934916 126.175723 
C 226.501211 129.327237 229.706107 131.899794 233.338119 133.723636 
L 246.255437 108 
L 218.448386 115.438443 
z
" style="fill: #2ca02c"/>
   </g>
   <g id="patch_27">
    <path d="M 233.338119 133.723636 
C 237.376224 135.751401 241.835639 136.800105 246.354254 136.784593 
C 250.87287 136.769081 255.324979 135.689783 259.349066 133.634341 
L 246.255437 108 
L 233.338119 133.723636 
z
" style="fill: #d62728"/>
   </g>
   <g id="patch_28">
    <path d="M 259.349066 133.634341 
C 261.586013 132.491743 263.663807 131.061238 265.529444 129.379317 
C 267.395082 127.697397 269.032564 125.778485 270.400119 123.671531 
L 246.255437 108 
L 259.349066 133.634341 
z
" style="fill: #9467bd"/>
   </g>
   <g id="patch_29">
    <path d="M 270.400119 123.671531 
C 271.906445 121.350778 273.070331 118.824922 273.855814 116.172012 
C 274.641296 113.519102 275.0402 110.766747 275.0402 107.999996 
L 246.255437 108 
L 270.400119 123.671531 
z
" style="fill: #8c564b"/>
   </g>
   <g id="matplotlib.axis_7"/>
   <g id="matplotlib.axis_8"/>
   <g id="text_4">
    <!-- jour 3 -->
    <g transform="translate(226.491437 74.984471)scale(0.144 -0.144)">
     <defs>
      <path id="LMRoman8-Regular-33" d="M 3110 1094 
C 3110 1626 2688 2112 2035 2253 
C 2541 2432 2918 2867 2918 3379 
C 2918 3891 2342 4256 1677 4256 
C 992 4256 474 3885 474 3398 
C 474 3162 634 3059 800 3059 
C 998 3059 1126 3200 1126 3386 
C 1126 3622 922 3712 781 3718 
C 1050 4070 1542 4090 1658 4090 
C 1824 4090 2310 4038 2310 3379 
C 2310 2931 2125 2662 2035 2560 
C 1843 2362 1696 2349 1306 2323 
C 1184 2317 1133 2310 1133 2227 
C 1133 2138 1190 2138 1299 2138 
L 1619 2138 
C 2125 2138 2445 1766 2445 1094 
C 2445 294 1990 58 1651 58 
C 1299 58 819 186 595 525 
C 826 525 986 672 986 883 
C 986 1088 838 1235 634 1235 
C 461 1235 282 1126 282 870 
C 282 262 934 -134 1664 -134 
C 2515 -134 3110 454 3110 1094 
z
" transform="scale(0.015625)"/>
     </defs>
     <use xlink:href="#LMRoman8-Regular-6a"/>
     <use xlink:href="#LMRoman8-Regular-6f" x="32.499985"/>
     <use xlink:href="#LMRoman8-Regular-75" x="85.599976"/>
     <use xlink:href="#LMRoman8-Regular-72" x="144.59996"/>
     <use xlink:href="#LMRoman8-Regular-20" x="185.999954"/>
     <use xlink:href="#LMRoman8-Regular-33" x="221.399948"/>
    </g>
   </g>
  </g>
 </g>
</svg>
