<?xml version="1.0" encoding="utf-8" standalone="no"?>
<!DOCTYPE svg PUBLIC "-//W3C//DTD SVG 1.1//EN"
  "http://www.w3.org/Graphics/SVG/1.1/DTD/svg11.dtd">
<svg xmlns:xlink="http://www.w3.org/1999/xlink" width="288pt" height="216pt" viewBox="0 0 288 216" xmlns="http://www.w3.org/2000/svg" version="1.1">
 <metadata>
  <rdf:RDF xmlns:dc="http://purl.org/dc/elements/1.1/" xmlns:cc="http://creativecommons.org/ns#" xmlns:rdf="http://www.w3.org/1999/02/22-rdf-syntax-ns#">
   <cc:Work>
    <dc:type rdf:resource="http://purl.org/dc/dcmitype/StillImage"/>
    <dc:date>2022-05-18T22:31:57.623400</dc:date>
    <dc:format>image/svg+xml</dc:format>
    <dc:creator>
     <cc:Agent>
      <dc:title>Matplotlib v3.5.1, https://matplotlib.org/</dc:title>
     </cc:Agent>
    </dc:creator>
   </cc:Work>
  </rdf:RDF>
 </metadata>
 <defs>
  <style type="text/css">*{stroke-linejoin: round; stroke-linecap: butt}</style>
 </defs>
 <g id="figure_1">
  <g id="patch_1">
   <path d="M 0 216 
L 288 216 
L 288 0 
L 0 0 
L 0 216 
z
" style="fill: none"/>
  </g>
  <g id="axes_1">
   <g id="patch_2">
    <path d="M 56.556 203.04 
L 93.924 203.04 
L 93.924 143.996055 
L 56.556 143.996055 
z
" clip-path="url(#pb2dc94d731)"/>
   </g>
   <g id="patch_3">
    <path d="M 56.556 143.996055 
L 93.924 143.996055 
L 93.924 103.34817 
L 56.556 103.34817 
z
" clip-path="url(#pb2dc94d731)" style="fill: #1f77b4"/>
   </g>
   <g id="patch_4">
    <path d="M 56.556 103.34817 
L 93.924 103.34817 
L 93.924 66.697154 
L 56.556 66.697154 
z
" clip-path="url(#pb2dc94d731)" style="fill: #ff7f0e"/>
   </g>
   <g id="patch_5">
    <path d="M 56.556 66.697154 
L 93.924 66.697154 
L 93.924 49.985158 
L 56.556 49.985158 
z
" clip-path="url(#pb2dc94d731)" style="fill: #2ca02c"/>
   </g>
   <g id="patch_6">
    <path d="M 56.556 49.985158 
L 93.924 49.985158 
L 93.924 33.74516 
L 56.556 33.74516 
z
" clip-path="url(#pb2dc94d731)" style="fill: #d62728"/>
   </g>
   <g id="patch_7">
    <path d="M 56.556 33.74516 
L 93.924 33.74516 
L 93.924 24.374851 
L 56.556 24.374851 
z
" clip-path="url(#pb2dc94d731)" style="fill: #9467bd"/>
   </g>
   <g id="patch_8">
    <path d="M 56.556 24.374851 
L 93.924 24.374851 
L 93.924 22.011429 
L 56.556 22.011429 
z
" clip-path="url(#pb2dc94d731)" style="fill: #8c564b"/>
   </g>
  </g>
  <g id="axes_2">
   <g id="patch_9">
    <path d="M 262.584 108 
C 262.584 99.445004 260.380605 91.032476 256.186881 83.575893 
C 251.993156 76.11931 245.948779 69.867024 238.638231 65.42362 
C 231.327682 60.980216 222.99445 58.493688 214.444344 58.204479 
C 205.894238 57.915269 197.412031 59.833012 189.817937 63.772263 
L 212.76 108 
L 262.584 108 
z
"/>
   </g>
   <g id="patch_10">
    <path d="M 189.817937 63.772263 
C 179.311836 69.222047 171.083753 78.240973 166.618307 89.201726 
C 162.152861 100.162478 161.735811 112.363644 165.442406 123.603727 
L 212.76 108 
L 189.817937 63.772263 
z
" style="fill: #1f77b4"/>
   </g>
   <g id="patch_11">
    <path d="M 165.442406 123.603727 
C 168.77826 133.719553 175.271724 142.503884 183.964253 148.660004 
C 192.656782 154.816124 203.098518 158.02544 213.748083 157.814201 
L 212.76 108 
L 165.442406 123.603727 
z
" style="fill: #ff7f0e"/>
   </g>
   <g id="patch_12">
    <path d="M 213.748083 157.814201 
C 218.572246 157.718512 223.357026 156.922548 227.952355 155.451273 
C 232.547685 153.979998 236.905016 151.848956 240.887688 149.124982 
L 212.76 108 
L 213.748083 157.814201 
z
" style="fill: #2ca02c"/>
   </g>
   <g id="patch_13">
    <path d="M 240.887688 149.124982 
C 244.757501 146.478199 248.234427 143.298399 251.215458 139.679785 
C 254.196489 136.06117 256.651893 132.039835 258.508925 127.734914 
L 212.76 108 
L 240.887688 149.124982 
z
" style="fill: #d62728"/>
   </g>
   <g id="patch_14">
    <path d="M 258.508925 127.734914 
C 259.579235 125.253751 260.445928 122.689623 261.100423 120.067912 
C 261.754918 117.4462 262.19505 114.775584 262.416462 112.082498 
L 212.76 108 
L 258.508925 127.734914 
z
" style="fill: #9467bd"/>
   </g>
   <g id="patch_15">
    <path d="M 262.416462 112.082498 
C 262.472278 111.403586 262.514166 110.7236 262.542098 110.042969 
C 262.57003 109.362339 262.584 108.681207 262.584 108.000004 
L 212.76 108 
L 262.416462 112.082498 
z
" style="fill: #8c564b"/>
   </g>
   <g id="matplotlib.axis_1"/>
   <g id="matplotlib.axis_2"/>
  </g>
 </g>
 <defs>
  <clipPath id="pb2dc94d731">
   <rect x="12.96" y="12.96" width="124.56" height="190.08"/>
  </clipPath>
 </defs>
</svg>
