<?xml version="1.0" encoding="utf-8" standalone="no"?>
<!DOCTYPE svg PUBLIC "-//W3C//DTD SVG 1.1//EN"
  "http://www.w3.org/Graphics/SVG/1.1/DTD/svg11.dtd">
<svg xmlns:xlink="http://www.w3.org/1999/xlink" width="288pt" height="216pt" viewBox="0 0 288 216" xmlns="http://www.w3.org/2000/svg" version="1.1">
 <metadata>
  <rdf:RDF xmlns:dc="http://purl.org/dc/elements/1.1/" xmlns:cc="http://creativecommons.org/ns#" xmlns:rdf="http://www.w3.org/1999/02/22-rdf-syntax-ns#">
   <cc:Work>
    <dc:type rdf:resource="http://purl.org/dc/dcmitype/StillImage"/>
    <dc:date>2022-05-20T12:57:48.305620</dc:date>
    <dc:format>image/svg+xml</dc:format>
    <dc:creator>
     <cc:Agent>
      <dc:title>Matplotlib v3.5.1, https://matplotlib.org/</dc:title>
     </cc:Agent>
    </dc:creator>
   </cc:Work>
  </rdf:RDF>
 </metadata>
 <defs>
  <style type="text/css">*{stroke-linejoin: round; stroke-linecap: butt}</style>
 </defs>
 <g id="figure_1">
  <g id="patch_1">
   <path d="M 0 216 
L 288 216 
L 288 0 
L 0 0 
L 0 216 
z
" style="fill: none"/>
  </g>
  <g id="axes_1">
   <g id="patch_2">
    <path d="M 86.813376 108 
C 86.813376 102.327856 85.414272 96.742319 82.740442 91.739935 
C 80.066611 86.737551 76.199708 82.47108 71.483493 79.319806 
C 66.767278 76.168532 61.345773 74.228687 55.700942 73.672719 
C 50.056111 73.116752 44.360334 73.961641 39.119957 76.132276 
C 33.879579 78.302912 29.25463 81.733008 25.65626 86.117634 
C 22.05789 90.502261 19.595985 95.707521 18.489405 101.270676 
C 17.382824 106.833831 17.665361 112.584995 19.311897 118.012898 
C 20.958434 123.440802 23.918689 128.379689 27.9295 132.3905 
L 52.32 108 
L 86.813376 108 
z
" style="fill: #1f77b4"/>
   </g>
   <g id="patch_3">
    <path d="M 27.9295 132.3905 
C 32.752908 137.213908 38.900417 140.49982 45.590676 141.830595 
C 52.280935 143.16137 59.217957 142.478133 65.520043 139.867724 
C 71.822129 137.257314 77.210467 132.83522 81.000194 127.163493 
C 84.789921 121.491765 86.813376 114.821329 86.813376 108 
L 52.32 108 
L 27.9295 132.3905 
z
" style="fill: #ff7f0e"/>
   </g>
   <g id="matplotlib.axis_1"/>
   <g id="matplotlib.axis_2"/>
   <g id="text_1">
    <!-- year 1 -->
    <g transform="translate(31.706625 62.64)scale(0.144 -0.144)">
     <defs>
      <path id="LMRoman8-Regular-79" d="M 3443 2547 
L 3443 2758 
C 3219 2739 3206 2739 2938 2739 
C 2912 2739 2573 2739 2387 2758 
L 2387 2547 
C 2573 2534 2662 2432 2662 2285 
C 2662 2246 2656 2202 2624 2125 
L 1939 576 
L 1197 2253 
C 1152 2349 1152 2362 1152 2387 
C 1152 2541 1350 2547 1491 2547 
L 1491 2758 
C 1203 2739 928 2739 787 2739 
C 653 2739 346 2739 141 2758 
L 141 2547 
C 474 2547 563 2534 672 2291 
L 1683 0 
C 1395 -678 1203 -1126 755 -1126 
C 595 -1126 493 -1050 493 -1050 
C 538 -1037 685 -966 685 -781 
C 685 -602 550 -506 410 -506 
C 282 -506 134 -589 134 -787 
C 134 -1069 410 -1306 755 -1306 
C 1325 -1306 1632 -621 1658 -557 
L 2835 2112 
C 2995 2477 3232 2541 3443 2547 
z
" transform="scale(0.015625)"/>
      <path id="LMRoman8-Regular-65" d="M 2822 768 
C 2822 794 2803 858 2720 858 
C 2650 858 2637 813 2624 774 
C 2394 154 1843 134 1728 134 
C 1440 134 1146 269 954 563 
C 762 858 762 1267 762 1459 
L 2643 1459 
C 2784 1459 2822 1459 2822 1606 
C 2822 2176 2509 2854 1606 2854 
C 813 2854 192 2195 192 1402 
C 192 576 883 -64 1690 -64 
C 2502 -64 2822 621 2822 768 
z
M 2387 1626 
L 768 1626 
C 826 2522 1370 2675 1606 2675 
C 2355 2675 2381 1773 2387 1626 
z
" transform="scale(0.015625)"/>
      <path id="LMRoman8-Regular-61" d="M 3290 576 
L 3290 928 
L 3091 928 
L 3091 576 
C 3091 314 2995 211 2861 211 
C 2624 211 2624 506 2624 576 
L 2624 1907 
C 2624 2534 2016 2854 1434 2854 
C 902 2854 429 2650 429 2227 
C 429 2035 563 1920 730 1920 
C 909 1920 1030 2048 1030 2221 
C 1030 2374 934 2483 794 2515 
C 1030 2675 1376 2675 1421 2675 
C 1779 2675 2138 2426 2138 1901 
L 2138 1702 
C 1766 1683 1338 1664 890 1478 
C 326 1235 218 864 218 653 
C 218 102 864 -64 1306 -64 
C 1773 -64 2061 198 2202 454 
C 2234 211 2400 -32 2682 -32 
C 2746 -32 3290 -6 3290 576 
z
M 2138 902 
C 2138 282 1613 115 1357 115 
C 1024 115 742 339 742 646 
C 742 1069 1139 1504 2138 1536 
L 2138 902 
z
" transform="scale(0.015625)"/>
      <path id="LMRoman8-Regular-72" d="M 2458 2419 
C 2458 2643 2253 2822 1971 2822 
C 1555 2822 1274 2509 1139 2150 
L 1133 2150 
L 1133 2822 
L 224 2752 
L 224 2541 
C 659 2541 710 2496 710 2182 
L 710 499 
C 710 211 634 211 224 211 
L 224 0 
C 474 19 826 19 979 19 
C 1357 19 1370 19 1786 0 
L 1786 211 
L 1658 211 
C 1190 211 1178 282 1178 512 
L 1178 1459 
C 1178 1939 1376 2630 1990 2643 
C 1952 2618 1888 2566 1888 2419 
C 1888 2221 2042 2131 2170 2131 
C 2323 2131 2458 2234 2458 2419 
z
" transform="scale(0.015625)"/>
      <path id="LMRoman8-Regular-20" transform="scale(0.015625)"/>
      <path id="LMRoman8-Regular-31" d="M 2861 0 
L 2861 211 
L 2637 211 
C 2029 211 2010 288 2010 525 
L 2010 4077 
C 2010 4250 1997 4256 1824 4256 
C 1562 4000 1222 3846 614 3846 
L 614 3635 
C 787 3635 1133 3635 1504 3808 
L 1504 525 
C 1504 288 1485 211 877 211 
L 653 211 
L 653 0 
C 915 19 1466 19 1754 19 
C 2042 19 2598 19 2861 0 
z
" transform="scale(0.015625)"/>
     </defs>
     <use xlink:href="#LMRoman8-Regular-79"/>
     <use xlink:href="#LMRoman8-Regular-65" x="56.099991"/>
     <use xlink:href="#LMRoman8-Regular-61" x="103.299988"/>
     <use xlink:href="#LMRoman8-Regular-72" x="156.399979"/>
     <use xlink:href="#LMRoman8-Regular-20" x="197.799973"/>
     <use xlink:href="#LMRoman8-Regular-31" x="233.199966"/>
    </g>
   </g>
  </g>
  <g id="axes_2">
   <g id="patch_4">
    <path d="M 173.030502 108 
C 173.030502 102.373109 171.394538 96.865763 168.322649 92.15138 
C 165.250761 87.436998 160.873475 83.715895 155.72603 81.443075 
C 150.578585 79.170256 144.879698 78.442293 139.32621 79.348199 
C 133.772721 80.254105 128.600601 82.755388 124.442278 86.5462 
C 120.283956 90.337011 117.31612 95.256278 115.901666 100.70249 
C 114.487213 106.148702 114.686243 111.890446 116.47442 117.225642 
C 118.262598 122.560839 121.563941 127.262793 125.974775 130.756566 
C 130.385608 134.250338 135.718513 136.387478 141.321401 136.906662 
L 144 108 
L 173.030502 108 
z
" style="fill: #1f77b4"/>
   </g>
   <g id="patch_5">
    <path d="M 141.321401 136.906662 
C 145.34223 137.279247 149.396918 136.808839 153.225642 135.52558 
C 157.054367 134.242321 160.573563 132.17422 163.557722 129.4538 
C 166.54188 126.733381 168.925869 123.420018 170.556925 119.72603 
C 172.18798 116.032042 173.030502 112.038055 173.030502 108 
L 144 108 
L 141.321401 136.906662 
z
" style="fill: #ff7f0e"/>
   </g>
   <g id="matplotlib.axis_3"/>
   <g id="matplotlib.axis_4"/>
   <g id="text_2">
    <!-- year 2 -->
    <g transform="translate(123.386625 62.64)scale(0.144 -0.144)">
     <defs>
      <path id="LMRoman8-Regular-32" d="M 3053 1146 
L 2854 1146 
C 2835 1018 2784 698 2707 576 
C 2669 525 2182 525 2080 525 
L 941 525 
L 1805 1306 
C 1907 1402 2176 1613 2278 1702 
C 2675 2067 3053 2419 3053 3002 
C 3053 3763 2413 4256 1613 4256 
C 845 4256 339 3674 339 3104 
C 339 2790 589 2746 678 2746 
C 813 2746 1011 2842 1011 3085 
C 1011 3418 691 3418 614 3418 
C 800 3885 1229 4045 1542 4045 
C 2138 4045 2445 3539 2445 3002 
C 2445 2336 1978 1850 1222 1075 
L 416 243 
C 339 173 339 160 339 0 
L 2867 0 
L 3053 1146 
z
" transform="scale(0.015625)"/>
     </defs>
     <use xlink:href="#LMRoman8-Regular-79"/>
     <use xlink:href="#LMRoman8-Regular-65" x="56.099991"/>
     <use xlink:href="#LMRoman8-Regular-61" x="103.299988"/>
     <use xlink:href="#LMRoman8-Regular-72" x="156.399979"/>
     <use xlink:href="#LMRoman8-Regular-20" x="197.799973"/>
     <use xlink:href="#LMRoman8-Regular-32" x="233.199966"/>
    </g>
   </g>
  </g>
  <g id="axes_3">
   <g id="patch_6">
    <path d="M 260.0705 108 
C 260.0705 105.333487 259.633222 102.684932 258.776099 100.159931 
C 257.918977 97.63493 256.653555 95.267491 255.030285 93.152005 
C 253.407015 91.036518 251.44776 89.201476 249.230636 87.720041 
C 247.013512 86.238606 244.56838 85.130731 241.992727 84.440586 
C 239.417073 83.750442 236.745589 83.487324 234.084786 83.661722 
C 231.423982 83.83612 228.809697 84.445686 226.346161 85.466116 
C 223.882624 86.486546 221.603017 87.904097 219.598227 89.66225 
C 217.593436 91.420404 215.890465 93.495481 214.557208 95.804749 
C 213.223952 98.114016 212.278368 100.626372 211.758157 103.241648 
C 211.237946 105.856924 211.150114 108.539897 211.498164 111.183597 
C 211.846213 113.827297 212.625456 116.396118 213.804825 118.78764 
C 214.984193 121.179163 216.547801 123.361177 218.43331 125.246686 
C 220.318819 127.132196 222.500833 128.695805 224.892356 129.875173 
C 227.283878 131.054542 229.852698 131.833785 232.496398 132.181835 
C 235.140099 132.529885 237.823071 132.442054 240.438348 131.921844 
C 243.053624 131.401633 245.565979 130.45605 247.875247 129.122794 
L 235.68 108 
L 260.0705 108 
z
" style="fill: #1f77b4"/>
   </g>
   <g id="patch_7">
    <path d="M 247.875247 129.122794 
C 251.582796 126.98224 254.662237 123.902801 256.802791 120.195252 
C 258.943346 116.487704 260.0705 112.281111 260.0705 108.000002 
L 235.68 108 
L 247.875247 129.122794 
z
" style="fill: #ff7f0e"/>
   </g>
   <g id="matplotlib.axis_5"/>
   <g id="matplotlib.axis_6"/>
   <g id="text_3">
    <!-- year 3 -->
    <g transform="translate(215.066625 62.64)scale(0.144 -0.144)">
     <defs>
      <path id="LMRoman8-Regular-33" d="M 3110 1094 
C 3110 1626 2688 2112 2035 2253 
C 2541 2432 2918 2867 2918 3379 
C 2918 3891 2342 4256 1677 4256 
C 992 4256 474 3885 474 3398 
C 474 3162 634 3059 800 3059 
C 998 3059 1126 3200 1126 3386 
C 1126 3622 922 3712 781 3718 
C 1050 4070 1542 4090 1658 4090 
C 1824 4090 2310 4038 2310 3379 
C 2310 2931 2125 2662 2035 2560 
C 1843 2362 1696 2349 1306 2323 
C 1184 2317 1133 2310 1133 2227 
C 1133 2138 1190 2138 1299 2138 
L 1619 2138 
C 2125 2138 2445 1766 2445 1094 
C 2445 294 1990 58 1651 58 
C 1299 58 819 186 595 525 
C 826 525 986 672 986 883 
C 986 1088 838 1235 634 1235 
C 461 1235 282 1126 282 870 
C 282 262 934 -134 1664 -134 
C 2515 -134 3110 454 3110 1094 
z
" transform="scale(0.015625)"/>
     </defs>
     <use xlink:href="#LMRoman8-Regular-79"/>
     <use xlink:href="#LMRoman8-Regular-65" x="56.099991"/>
     <use xlink:href="#LMRoman8-Regular-61" x="103.299988"/>
     <use xlink:href="#LMRoman8-Regular-72" x="156.399979"/>
     <use xlink:href="#LMRoman8-Regular-20" x="197.799973"/>
     <use xlink:href="#LMRoman8-Regular-33" x="233.199966"/>
    </g>
   </g>
  </g>
 </g>
</svg>
