<?xml version="1.0" encoding="utf-8" standalone="no"?>
<!DOCTYPE svg PUBLIC "-//W3C//DTD SVG 1.1//EN"
  "http://www.w3.org/Graphics/SVG/1.1/DTD/svg11.dtd">
<svg xmlns:xlink="http://www.w3.org/1999/xlink" width="216pt" height="216pt" viewBox="0 0 216 216" xmlns="http://www.w3.org/2000/svg" version="1.1">
 <metadata>
  <rdf:RDF xmlns:dc="http://purl.org/dc/elements/1.1/" xmlns:cc="http://creativecommons.org/ns#" xmlns:rdf="http://www.w3.org/1999/02/22-rdf-syntax-ns#">
   <cc:Work>
    <dc:type rdf:resource="http://purl.org/dc/dcmitype/StillImage"/>
    <dc:date>2022-05-18T22:31:57.364734</dc:date>
    <dc:format>image/svg+xml</dc:format>
    <dc:creator>
     <cc:Agent>
      <dc:title>Matplotlib v3.5.1, https://matplotlib.org/</dc:title>
     </cc:Agent>
    </dc:creator>
   </cc:Work>
  </rdf:RDF>
 </metadata>
 <defs>
  <style type="text/css">*{stroke-linejoin: round; stroke-linecap: butt}</style>
 </defs>
 <g id="figure_1">
  <g id="patch_1">
   <path d="M 0 216 
L 216 216 
L 216 0 
L 0 0 
L 0 216 
z
" style="fill: none"/>
  </g>
  <g id="axes_1">
   <g id="patch_2">
    <path d="M 32.7025 91.8425 
L 203.04 91.8425 
L 203.04 12.96 
L 32.7025 12.96 
L 32.7025 91.8425 
z
" style="fill: none"/>
   </g>
   <g id="matplotlib.axis_1">
    <g id="ytick_1">
     <g id="line2d_1">
      <defs>
       <path id="m06b6ceea91" d="M 0 0 
L -3.5 0 
" style="stroke: #000000; stroke-width: 0.8"/>
      </defs>
      <g>
       <use xlink:href="#m06b6ceea91" x="32.7025" y="91.8425" style="stroke: #000000; stroke-width: 0.8"/>
      </g>
     </g>
     <g id="text_1">
      <!-- 0 -->
      <g transform="translate(19.33125 96.006875)scale(0.12 -0.12)">
       <defs>
        <path id="LMRoman8-Regular-30" d="M 3130 2042 
C 3130 2726 3059 3142 2848 3552 
C 2566 4115 2048 4256 1696 4256 
C 890 4256 595 3654 506 3475 
C 275 3008 262 2374 262 2042 
C 262 1619 282 973 589 461 
C 883 -13 1357 -134 1696 -134 
C 2003 -134 2554 -38 2874 595 
C 3110 1056 3130 1626 3130 2042 
z
M 2560 2118 
C 2560 1741 2560 1165 2483 806 
C 2349 134 1907 45 1696 45 
C 1478 45 1037 147 902 819 
C 832 1184 832 1786 832 2118 
C 832 2560 832 3008 902 3360 
C 1037 4013 1536 4077 1696 4077 
C 1914 4077 2355 3968 2483 3386 
C 2560 3034 2560 2554 2560 2118 
z
" transform="scale(0.015625)"/>
       </defs>
       <use xlink:href="#LMRoman8-Regular-30"/>
      </g>
     </g>
    </g>
    <g id="ytick_2">
     <g id="line2d_2">
      <g>
       <use xlink:href="#m06b6ceea91" x="32.7025" y="46.766786" style="stroke: #000000; stroke-width: 0.8"/>
      </g>
     </g>
     <g id="text_2">
      <!-- 20 -->
      <g transform="translate(12.96 50.931161)scale(0.12 -0.12)">
       <defs>
        <path id="LMRoman8-Regular-32" d="M 3053 1146 
L 2854 1146 
C 2835 1018 2784 698 2707 576 
C 2669 525 2182 525 2080 525 
L 941 525 
L 1805 1306 
C 1907 1402 2176 1613 2278 1702 
C 2675 2067 3053 2419 3053 3002 
C 3053 3763 2413 4256 1613 4256 
C 845 4256 339 3674 339 3104 
C 339 2790 589 2746 678 2746 
C 813 2746 1011 2842 1011 3085 
C 1011 3418 691 3418 614 3418 
C 800 3885 1229 4045 1542 4045 
C 2138 4045 2445 3539 2445 3002 
C 2445 2336 1978 1850 1222 1075 
L 416 243 
C 339 173 339 160 339 0 
L 2867 0 
L 3053 1146 
z
" transform="scale(0.015625)"/>
       </defs>
       <use xlink:href="#LMRoman8-Regular-32"/>
       <use xlink:href="#LMRoman8-Regular-30" x="53.099991"/>
      </g>
     </g>
    </g>
   </g>
   <g id="LineCollection_1">
    <path d="M 46.180383 91.8425 
L 46.180383 24.228929 
" clip-path="url(#p9d75b2bb7b)" style="fill: none; stroke: #1f77b4"/>
    <path d="M 117.87125 91.8425 
L 117.87125 35.497857 
" clip-path="url(#p9d75b2bb7b)" style="fill: none; stroke: #1f77b4"/>
    <path d="M 189.562117 91.8425 
L 189.562117 46.766786 
" clip-path="url(#p9d75b2bb7b)" style="fill: none; stroke: #1f77b4"/>
   </g>
   <g id="line2d_3">
    <defs>
     <path id="m5a670cb1b9" d="M 0 3 
C 0.795609 3 1.55874 2.683901 2.12132 2.12132 
C 2.683901 1.55874 3 0.795609 3 0 
C 3 -0.795609 2.683901 -1.55874 2.12132 -2.12132 
C 1.55874 -2.683901 0.795609 -3 0 -3 
C -0.795609 -3 -1.55874 -2.683901 -2.12132 -2.12132 
C -2.683901 -1.55874 -3 -0.795609 -3 0 
C -3 0.795609 -2.683901 1.55874 -2.12132 2.12132 
C -1.55874 2.683901 -0.795609 3 0 3 
z
" style="stroke: #1f77b4"/>
    </defs>
    <g clip-path="url(#p9d75b2bb7b)">
     <use xlink:href="#m5a670cb1b9" x="46.180383" y="24.228929" style="fill: #1f77b4; stroke: #1f77b4"/>
     <use xlink:href="#m5a670cb1b9" x="117.87125" y="35.497857" style="fill: #1f77b4; stroke: #1f77b4"/>
     <use xlink:href="#m5a670cb1b9" x="189.562117" y="46.766786" style="fill: #1f77b4; stroke: #1f77b4"/>
    </g>
   </g>
   <g id="line2d_4">
    <path d="M 46.180383 91.8425 
L 189.562117 91.8425 
" clip-path="url(#p9d75b2bb7b)" style="fill: none; stroke-dasharray: 1,1.65; stroke-dashoffset: 0; stroke: #000000"/>
   </g>
   <g id="patch_3">
    <path d="M 32.7025 91.8425 
L 32.7025 12.96 
" style="fill: none; stroke: #000000; stroke-width: 0.5; stroke-linejoin: miter; stroke-linecap: square"/>
   </g>
  </g>
  <g id="axes_2">
   <g id="patch_4">
    <path d="M 32.7025 170.725 
L 203.04 170.725 
L 203.04 91.8425 
L 32.7025 91.8425 
L 32.7025 170.725 
z
" style="fill: none"/>
   </g>
   <g id="matplotlib.axis_2">
    <g id="xtick_1">
     <g id="line2d_5">
      <defs>
       <path id="m717e23d473" d="M 0 0 
L 0 3.5 
" style="stroke: #000000; stroke-width: 0.8"/>
      </defs>
      <g>
       <use xlink:href="#m717e23d473" x="46.180383" y="170.725" style="stroke: #000000; stroke-width: 0.8"/>
      </g>
     </g>
     <g id="text_3">
      <!-- 1 -->
      <g transform="translate(42.994758 186.05375)scale(0.12 -0.12)">
       <defs>
        <path id="LMRoman8-Regular-31" d="M 2861 0 
L 2861 211 
L 2637 211 
C 2029 211 2010 288 2010 525 
L 2010 4077 
C 2010 4250 1997 4256 1824 4256 
C 1562 4000 1222 3846 614 3846 
L 614 3635 
C 787 3635 1133 3635 1504 3808 
L 1504 525 
C 1504 288 1485 211 877 211 
L 653 211 
L 653 0 
C 915 19 1466 19 1754 19 
C 2042 19 2598 19 2861 0 
z
" transform="scale(0.015625)"/>
       </defs>
       <use xlink:href="#LMRoman8-Regular-31"/>
      </g>
     </g>
    </g>
    <g id="xtick_2">
     <g id="line2d_6">
      <g>
       <use xlink:href="#m717e23d473" x="117.87125" y="170.725" style="stroke: #000000; stroke-width: 0.8"/>
      </g>
     </g>
     <g id="text_4">
      <!-- 2 -->
      <g transform="translate(114.685625 186.05375)scale(0.12 -0.12)">
       <use xlink:href="#LMRoman8-Regular-32"/>
      </g>
     </g>
    </g>
    <g id="xtick_3">
     <g id="line2d_7">
      <g>
       <use xlink:href="#m717e23d473" x="189.562117" y="170.725" style="stroke: #000000; stroke-width: 0.8"/>
      </g>
     </g>
     <g id="text_5">
      <!-- 3 -->
      <g transform="translate(186.376492 186.05375)scale(0.12 -0.12)">
       <defs>
        <path id="LMRoman8-Regular-33" d="M 3110 1094 
C 3110 1626 2688 2112 2035 2253 
C 2541 2432 2918 2867 2918 3379 
C 2918 3891 2342 4256 1677 4256 
C 992 4256 474 3885 474 3398 
C 474 3162 634 3059 800 3059 
C 998 3059 1126 3200 1126 3386 
C 1126 3622 922 3712 781 3718 
C 1050 4070 1542 4090 1658 4090 
C 1824 4090 2310 4038 2310 3379 
C 2310 2931 2125 2662 2035 2560 
C 1843 2362 1696 2349 1306 2323 
C 1184 2317 1133 2310 1133 2227 
C 1133 2138 1190 2138 1299 2138 
L 1619 2138 
C 2125 2138 2445 1766 2445 1094 
C 2445 294 1990 58 1651 58 
C 1299 58 819 186 595 525 
C 826 525 986 672 986 883 
C 986 1088 838 1235 634 1235 
C 461 1235 282 1126 282 870 
C 282 262 934 -134 1664 -134 
C 2515 -134 3110 454 3110 1094 
z
" transform="scale(0.015625)"/>
       </defs>
       <use xlink:href="#LMRoman8-Regular-33"/>
      </g>
     </g>
    </g>
    <g id="text_6">
     <!-- year -->
     <g transform="translate(106.003438 200.59125)scale(0.12 -0.12)">
      <defs>
       <path id="LMRoman8-Regular-79" d="M 3443 2547 
L 3443 2758 
C 3219 2739 3206 2739 2938 2739 
C 2912 2739 2573 2739 2387 2758 
L 2387 2547 
C 2573 2534 2662 2432 2662 2285 
C 2662 2246 2656 2202 2624 2125 
L 1939 576 
L 1197 2253 
C 1152 2349 1152 2362 1152 2387 
C 1152 2541 1350 2547 1491 2547 
L 1491 2758 
C 1203 2739 928 2739 787 2739 
C 653 2739 346 2739 141 2758 
L 141 2547 
C 474 2547 563 2534 672 2291 
L 1683 0 
C 1395 -678 1203 -1126 755 -1126 
C 595 -1126 493 -1050 493 -1050 
C 538 -1037 685 -966 685 -781 
C 685 -602 550 -506 410 -506 
C 282 -506 134 -589 134 -787 
C 134 -1069 410 -1306 755 -1306 
C 1325 -1306 1632 -621 1658 -557 
L 2835 2112 
C 2995 2477 3232 2541 3443 2547 
z
" transform="scale(0.015625)"/>
       <path id="LMRoman8-Regular-65" d="M 2822 768 
C 2822 794 2803 858 2720 858 
C 2650 858 2637 813 2624 774 
C 2394 154 1843 134 1728 134 
C 1440 134 1146 269 954 563 
C 762 858 762 1267 762 1459 
L 2643 1459 
C 2784 1459 2822 1459 2822 1606 
C 2822 2176 2509 2854 1606 2854 
C 813 2854 192 2195 192 1402 
C 192 576 883 -64 1690 -64 
C 2502 -64 2822 621 2822 768 
z
M 2387 1626 
L 768 1626 
C 826 2522 1370 2675 1606 2675 
C 2355 2675 2381 1773 2387 1626 
z
" transform="scale(0.015625)"/>
       <path id="LMRoman8-Regular-61" d="M 3290 576 
L 3290 928 
L 3091 928 
L 3091 576 
C 3091 314 2995 211 2861 211 
C 2624 211 2624 506 2624 576 
L 2624 1907 
C 2624 2534 2016 2854 1434 2854 
C 902 2854 429 2650 429 2227 
C 429 2035 563 1920 730 1920 
C 909 1920 1030 2048 1030 2221 
C 1030 2374 934 2483 794 2515 
C 1030 2675 1376 2675 1421 2675 
C 1779 2675 2138 2426 2138 1901 
L 2138 1702 
C 1766 1683 1338 1664 890 1478 
C 326 1235 218 864 218 653 
C 218 102 864 -64 1306 -64 
C 1773 -64 2061 198 2202 454 
C 2234 211 2400 -32 2682 -32 
C 2746 -32 3290 -6 3290 576 
z
M 2138 902 
C 2138 282 1613 115 1357 115 
C 1024 115 742 339 742 646 
C 742 1069 1139 1504 2138 1536 
L 2138 902 
z
" transform="scale(0.015625)"/>
       <path id="LMRoman8-Regular-72" d="M 2458 2419 
C 2458 2643 2253 2822 1971 2822 
C 1555 2822 1274 2509 1139 2150 
L 1133 2150 
L 1133 2822 
L 224 2752 
L 224 2541 
C 659 2541 710 2496 710 2182 
L 710 499 
C 710 211 634 211 224 211 
L 224 0 
C 474 19 826 19 979 19 
C 1357 19 1370 19 1786 0 
L 1786 211 
L 1658 211 
C 1190 211 1178 282 1178 512 
L 1178 1459 
C 1178 1939 1376 2630 1990 2643 
C 1952 2618 1888 2566 1888 2419 
C 1888 2221 2042 2131 2170 2131 
C 2323 2131 2458 2234 2458 2419 
z
" transform="scale(0.015625)"/>
      </defs>
      <use xlink:href="#LMRoman8-Regular-79"/>
      <use xlink:href="#LMRoman8-Regular-65" x="56.099991"/>
      <use xlink:href="#LMRoman8-Regular-61" x="103.299988"/>
      <use xlink:href="#LMRoman8-Regular-72" x="156.399979"/>
     </g>
    </g>
   </g>
   <g id="matplotlib.axis_3">
    <g id="ytick_3">
     <g id="line2d_8">
      <g>
       <use xlink:href="#m06b6ceea91" x="32.7025" y="91.8425" style="stroke: #000000; stroke-width: 0.8"/>
      </g>
     </g>
     <g id="text_7">
      <!-- 0 -->
      <g transform="translate(19.33125 96.006875)scale(0.12 -0.12)">
       <use xlink:href="#LMRoman8-Regular-30"/>
      </g>
     </g>
    </g>
    <g id="ytick_4">
     <g id="line2d_9">
      <g>
       <use xlink:href="#m06b6ceea91" x="32.7025" y="136.918214" style="stroke: #000000; stroke-width: 0.8"/>
      </g>
     </g>
     <g id="text_8">
      <!-- 20 -->
      <g transform="translate(12.96 141.082589)scale(0.12 -0.12)">
       <use xlink:href="#LMRoman8-Regular-32"/>
       <use xlink:href="#LMRoman8-Regular-30" x="53.099991"/>
      </g>
     </g>
    </g>
   </g>
   <g id="LineCollection_2">
    <path d="M 46.180383 91.8425 
L 46.180383 132.410643 
" clip-path="url(#pdb644e20d8)" style="fill: none; stroke: #ff7f0e"/>
    <path d="M 117.87125 91.8425 
L 117.87125 112.126571 
" clip-path="url(#pdb644e20d8)" style="fill: none; stroke: #ff7f0e"/>
    <path d="M 189.562117 91.8425 
L 189.562117 100.857643 
" clip-path="url(#pdb644e20d8)" style="fill: none; stroke: #ff7f0e"/>
   </g>
   <g id="line2d_10">
    <defs>
     <path id="m647951a363" d="M 0 3 
C 0.795609 3 1.55874 2.683901 2.12132 2.12132 
C 2.683901 1.55874 3 0.795609 3 0 
C 3 -0.795609 2.683901 -1.55874 2.12132 -2.12132 
C 1.55874 -2.683901 0.795609 -3 0 -3 
C -0.795609 -3 -1.55874 -2.683901 -2.12132 -2.12132 
C -2.683901 -1.55874 -3 -0.795609 -3 0 
C -3 0.795609 -2.683901 1.55874 -2.12132 2.12132 
C -1.55874 2.683901 -0.795609 3 0 3 
z
" style="stroke: #ff7f0e"/>
    </defs>
    <g clip-path="url(#pdb644e20d8)">
     <use xlink:href="#m647951a363" x="46.180383" y="132.410643" style="fill: #ff7f0e; stroke: #ff7f0e"/>
     <use xlink:href="#m647951a363" x="117.87125" y="112.126571" style="fill: #ff7f0e; stroke: #ff7f0e"/>
     <use xlink:href="#m647951a363" x="189.562117" y="100.857643" style="fill: #ff7f0e; stroke: #ff7f0e"/>
    </g>
   </g>
   <g id="line2d_11">
    <path d="M 46.180383 91.8425 
L 189.562117 91.8425 
" clip-path="url(#pdb644e20d8)" style="fill: none; stroke-dasharray: 1,1.65; stroke-dashoffset: 0; stroke: #000000"/>
   </g>
   <g id="patch_5">
    <path d="M 32.7025 170.725 
L 32.7025 91.8425 
" style="fill: none; stroke: #000000; stroke-width: 0.5; stroke-linejoin: miter; stroke-linecap: square"/>
   </g>
   <g id="patch_6">
    <path d="M 39.011296 170.725 
L 196.731204 170.725 
" style="fill: none; stroke: #000000; stroke-width: 0.5; stroke-linejoin: miter; stroke-linecap: square"/>
   </g>
  </g>
 </g>
 <defs>
  <clipPath id="p9d75b2bb7b">
   <rect x="32.7025" y="12.96" width="170.3375" height="78.8825"/>
  </clipPath>
  <clipPath id="pdb644e20d8">
   <rect x="32.7025" y="91.8425" width="170.3375" height="78.8825"/>
  </clipPath>
 </defs>
</svg>
