<?xml version="1.0" encoding="utf-8" standalone="no"?>
<!DOCTYPE svg PUBLIC "-//W3C//DTD SVG 1.1//EN"
  "http://www.w3.org/Graphics/SVG/1.1/DTD/svg11.dtd">
<svg xmlns:xlink="http://www.w3.org/1999/xlink" width="288pt" height="216pt" viewBox="0 0 288 216" xmlns="http://www.w3.org/2000/svg" version="1.1">
 <metadata>
  <rdf:RDF xmlns:dc="http://purl.org/dc/elements/1.1/" xmlns:cc="http://creativecommons.org/ns#" xmlns:rdf="http://www.w3.org/1999/02/22-rdf-syntax-ns#">
   <cc:Work>
    <dc:type rdf:resource="http://purl.org/dc/dcmitype/StillImage"/>
    <dc:date>2022-05-18T22:33:50.241475</dc:date>
    <dc:format>image/svg+xml</dc:format>
    <dc:creator>
     <cc:Agent>
      <dc:title>Matplotlib v3.5.1, https://matplotlib.org/</dc:title>
     </cc:Agent>
    </dc:creator>
   </cc:Work>
  </rdf:RDF>
 </metadata>
 <defs>
  <style type="text/css">*{stroke-linejoin: round; stroke-linecap: butt}</style>
 </defs>
 <g id="figure_1">
  <g id="patch_1">
   <path d="M 0 216 
L 288 216 
L 288 0 
L 0 0 
L 0 216 
z
" style="fill: none"/>
  </g>
  <g id="axes_1">
   <g id="patch_2">
    <path d="M 58.61375 170.725 
L 270.087578 170.725 
L 270.087578 12.96 
L 58.61375 12.96 
L 58.61375 170.725 
z
" style="fill: none"/>
   </g>
   <g id="matplotlib.axis_1">
    <g id="xtick_1">
     <g id="line2d_1">
      <defs>
       <path id="m50086c9bb0" d="M 0 0 
L 0 3.5 
" style="stroke: #000000; stroke-width: 0.8"/>
      </defs>
      <g>
       <use xlink:href="#m50086c9bb0" x="66.446114" y="170.725" style="stroke: #000000; stroke-width: 0.8"/>
      </g>
     </g>
     <g id="text_1">
      <!-- 2010 -->
      <g transform="translate(53.703614 186.05375)scale(0.12 -0.12)">
       <defs>
        <path id="LMRoman8-Regular-32" d="M 3053 1146 
L 2854 1146 
C 2835 1018 2784 698 2707 576 
C 2669 525 2182 525 2080 525 
L 941 525 
L 1805 1306 
C 1907 1402 2176 1613 2278 1702 
C 2675 2067 3053 2419 3053 3002 
C 3053 3763 2413 4256 1613 4256 
C 845 4256 339 3674 339 3104 
C 339 2790 589 2746 678 2746 
C 813 2746 1011 2842 1011 3085 
C 1011 3418 691 3418 614 3418 
C 800 3885 1229 4045 1542 4045 
C 2138 4045 2445 3539 2445 3002 
C 2445 2336 1978 1850 1222 1075 
L 416 243 
C 339 173 339 160 339 0 
L 2867 0 
L 3053 1146 
z
" transform="scale(0.015625)"/>
        <path id="LMRoman8-Regular-30" d="M 3130 2042 
C 3130 2726 3059 3142 2848 3552 
C 2566 4115 2048 4256 1696 4256 
C 890 4256 595 3654 506 3475 
C 275 3008 262 2374 262 2042 
C 262 1619 282 973 589 461 
C 883 -13 1357 -134 1696 -134 
C 2003 -134 2554 -38 2874 595 
C 3110 1056 3130 1626 3130 2042 
z
M 2560 2118 
C 2560 1741 2560 1165 2483 806 
C 2349 134 1907 45 1696 45 
C 1478 45 1037 147 902 819 
C 832 1184 832 1786 832 2118 
C 832 2560 832 3008 902 3360 
C 1037 4013 1536 4077 1696 4077 
C 1914 4077 2355 3968 2483 3386 
C 2560 3034 2560 2554 2560 2118 
z
" transform="scale(0.015625)"/>
        <path id="LMRoman8-Regular-31" d="M 2861 0 
L 2861 211 
L 2637 211 
C 2029 211 2010 288 2010 525 
L 2010 4077 
C 2010 4250 1997 4256 1824 4256 
C 1562 4000 1222 3846 614 3846 
L 614 3635 
C 787 3635 1133 3635 1504 3808 
L 1504 525 
C 1504 288 1485 211 877 211 
L 653 211 
L 653 0 
C 915 19 1466 19 1754 19 
C 2042 19 2598 19 2861 0 
z
" transform="scale(0.015625)"/>
       </defs>
       <use xlink:href="#LMRoman8-Regular-32"/>
       <use xlink:href="#LMRoman8-Regular-30" x="53.099991"/>
       <use xlink:href="#LMRoman8-Regular-31" x="106.199982"/>
       <use xlink:href="#LMRoman8-Regular-30" x="159.299973"/>
      </g>
     </g>
    </g>
    <g id="xtick_2">
     <g id="line2d_2">
      <g>
       <use xlink:href="#m50086c9bb0" x="164.350664" y="170.725" style="stroke: #000000; stroke-width: 0.8"/>
      </g>
     </g>
     <g id="text_2">
      <!-- 2011 -->
      <g transform="translate(151.608164 186.05375)scale(0.12 -0.12)">
       <use xlink:href="#LMRoman8-Regular-32"/>
       <use xlink:href="#LMRoman8-Regular-30" x="53.099991"/>
       <use xlink:href="#LMRoman8-Regular-31" x="106.199982"/>
       <use xlink:href="#LMRoman8-Regular-31" x="159.299973"/>
      </g>
     </g>
    </g>
    <g id="xtick_3">
     <g id="line2d_3">
      <g>
       <use xlink:href="#m50086c9bb0" x="262.255214" y="170.725" style="stroke: #000000; stroke-width: 0.8"/>
      </g>
     </g>
     <g id="text_3">
      <!-- 2012 -->
      <g transform="translate(249.512714 186.05375)scale(0.12 -0.12)">
       <use xlink:href="#LMRoman8-Regular-32"/>
       <use xlink:href="#LMRoman8-Regular-30" x="53.099991"/>
       <use xlink:href="#LMRoman8-Regular-31" x="106.199982"/>
       <use xlink:href="#LMRoman8-Regular-32" x="159.299973"/>
      </g>
     </g>
    </g>
    <g id="text_4">
     <!-- année -->
     <g transform="translate(148.420664 200.71125)scale(0.12 -0.12)">
      <defs>
       <path id="LMRoman8-Regular-61" d="M 3290 576 
L 3290 928 
L 3091 928 
L 3091 576 
C 3091 314 2995 211 2861 211 
C 2624 211 2624 506 2624 576 
L 2624 1907 
C 2624 2534 2016 2854 1434 2854 
C 902 2854 429 2650 429 2227 
C 429 2035 563 1920 730 1920 
C 909 1920 1030 2048 1030 2221 
C 1030 2374 934 2483 794 2515 
C 1030 2675 1376 2675 1421 2675 
C 1779 2675 2138 2426 2138 1901 
L 2138 1702 
C 1766 1683 1338 1664 890 1478 
C 326 1235 218 864 218 653 
C 218 102 864 -64 1306 -64 
C 1773 -64 2061 198 2202 454 
C 2234 211 2400 -32 2682 -32 
C 2746 -32 3290 -6 3290 576 
z
M 2138 902 
C 2138 282 1613 115 1357 115 
C 1024 115 742 339 742 646 
C 742 1069 1139 1504 2138 1536 
L 2138 902 
z
" transform="scale(0.015625)"/>
       <path id="LMRoman8-Regular-6e" d="M 3597 0 
L 3597 211 
C 3187 211 3110 211 3110 499 
L 3110 1939 
C 3110 2477 2867 2822 2195 2822 
C 1562 2822 1274 2362 1197 2208 
L 1190 2208 
L 1190 2822 
L 262 2752 
L 262 2541 
C 698 2541 749 2496 749 2182 
L 749 499 
C 749 211 672 211 262 211 
L 262 0 
C 538 19 819 19 992 19 
C 1178 19 1446 19 1722 0 
L 1722 211 
C 1312 211 1235 211 1235 499 
L 1235 1658 
C 1235 2330 1747 2643 2138 2643 
C 2528 2643 2624 2368 2624 1965 
L 2624 499 
C 2624 211 2547 211 2138 211 
L 2138 0 
C 2413 19 2694 19 2867 19 
C 3053 19 3322 19 3597 0 
z
" transform="scale(0.015625)"/>
       <path id="LMRoman8-Regular-e9" d="M 2822 768 
C 2822 794 2803 858 2720 858 
C 2650 858 2637 813 2624 774 
C 2394 154 1843 134 1728 134 
C 1440 134 1146 269 954 563 
C 762 858 762 1267 762 1459 
L 2643 1459 
C 2784 1459 2822 1459 2822 1606 
C 2822 2176 2509 2854 1606 2854 
C 813 2854 192 2195 192 1402 
C 192 576 883 -64 1690 -64 
C 2502 -64 2822 621 2822 768 
z
M 2387 1626 
L 768 1626 
C 826 2522 1370 2675 1606 2675 
C 2355 2675 2381 1773 2387 1626 
z
M 2355 4211 
C 2355 4358 2221 4467 2106 4467 
C 2080 4467 1990 4467 1907 4365 
L 1088 3392 
L 1222 3245 
L 2227 4000 
C 2298 4051 2355 4109 2355 4211 
z
" transform="scale(0.015625)"/>
       <path id="LMRoman8-Regular-65" d="M 2822 768 
C 2822 794 2803 858 2720 858 
C 2650 858 2637 813 2624 774 
C 2394 154 1843 134 1728 134 
C 1440 134 1146 269 954 563 
C 762 858 762 1267 762 1459 
L 2643 1459 
C 2784 1459 2822 1459 2822 1606 
C 2822 2176 2509 2854 1606 2854 
C 813 2854 192 2195 192 1402 
C 192 576 883 -64 1690 -64 
C 2502 -64 2822 621 2822 768 
z
M 2387 1626 
L 768 1626 
C 826 2522 1370 2675 1606 2675 
C 2355 2675 2381 1773 2387 1626 
z
" transform="scale(0.015625)"/>
      </defs>
      <use xlink:href="#LMRoman8-Regular-61"/>
      <use xlink:href="#LMRoman8-Regular-6e" x="53.099991"/>
      <use xlink:href="#LMRoman8-Regular-6e" x="112.099976"/>
      <use xlink:href="#LMRoman8-Regular-e9" x="171.09996"/>
      <use xlink:href="#LMRoman8-Regular-65" x="218.299957"/>
     </g>
    </g>
   </g>
   <g id="matplotlib.axis_2">
    <g id="ytick_1">
     <g id="line2d_4">
      <defs>
       <path id="mf90a4fc1a0" d="M 0 0 
L -3.5 0 
" style="stroke: #000000; stroke-width: 0.8"/>
      </defs>
      <g>
       <use xlink:href="#mf90a4fc1a0" x="58.61375" y="136.108774" style="stroke: #000000; stroke-width: 0.8"/>
      </g>
     </g>
     <g id="text_5">
      <!-- 21.0 -->
      <g transform="translate(28.96 140.273149)scale(0.12 -0.12)">
       <defs>
        <path id="LMRoman8-Regular-2e" d="M 1299 352 
C 1299 570 1126 710 947 710 
C 730 710 589 538 589 358 
C 589 141 762 0 941 0 
C 1158 0 1299 173 1299 352 
z
" transform="scale(0.015625)"/>
       </defs>
       <use xlink:href="#LMRoman8-Regular-32"/>
       <use xlink:href="#LMRoman8-Regular-31" x="53.099991"/>
       <use xlink:href="#LMRoman8-Regular-2e" x="106.199982"/>
       <use xlink:href="#LMRoman8-Regular-30" x="135.699966"/>
      </g>
     </g>
    </g>
    <g id="ytick_2">
     <g id="line2d_5">
      <g>
       <use xlink:href="#mf90a4fc1a0" x="58.61375" y="91.8425" style="stroke: #000000; stroke-width: 0.8"/>
      </g>
     </g>
     <g id="text_6">
      <!-- 21.2 -->
      <g transform="translate(28.96 96.006875)scale(0.12 -0.12)">
       <use xlink:href="#LMRoman8-Regular-32"/>
       <use xlink:href="#LMRoman8-Regular-31" x="53.099991"/>
       <use xlink:href="#LMRoman8-Regular-2e" x="106.199982"/>
       <use xlink:href="#LMRoman8-Regular-32" x="135.699966"/>
      </g>
     </g>
    </g>
    <g id="ytick_3">
     <g id="line2d_6">
      <g>
       <use xlink:href="#mf90a4fc1a0" x="58.61375" y="47.576226" style="stroke: #000000; stroke-width: 0.8"/>
      </g>
     </g>
     <g id="text_7">
      <!-- 21.4 -->
      <g transform="translate(28.96 51.740601)scale(0.12 -0.12)">
       <defs>
        <path id="LMRoman8-Regular-34" d="M 3200 1050 
L 3200 1261 
L 2522 1261 
L 2522 4141 
C 2522 4269 2522 4320 2387 4320 
C 2304 4320 2298 4314 2234 4224 
L 192 1261 
L 192 1050 
L 1997 1050 
L 1997 518 
C 1997 282 1978 211 1485 211 
L 1338 211 
L 1338 0 
L 2259 19 
L 3181 0 
L 3181 211 
L 3034 211 
C 2541 211 2522 282 2522 518 
L 2522 1050 
L 3200 1050 
z
M 2042 1261 
L 416 1261 
L 2042 3622 
L 2042 1261 
z
" transform="scale(0.015625)"/>
       </defs>
       <use xlink:href="#LMRoman8-Regular-32"/>
       <use xlink:href="#LMRoman8-Regular-31" x="53.099991"/>
       <use xlink:href="#LMRoman8-Regular-2e" x="106.199982"/>
       <use xlink:href="#LMRoman8-Regular-34" x="135.699966"/>
      </g>
     </g>
    </g>
    <g id="text_8">
     <!-- conso. fromage (kg/hab/an) -->
     <g transform="translate(21.96 170.121875)rotate(-90)scale(0.12 -0.12)">
      <defs>
       <path id="LMRoman8-Regular-63" d="M 2822 768 
C 2822 845 2739 845 2720 845 
C 2675 845 2643 838 2624 774 
C 2579 640 2400 134 1760 134 
C 1363 134 794 442 794 1389 
C 794 2310 1267 2656 1734 2656 
C 1792 2656 2131 2656 2355 2541 
C 2176 2483 2150 2336 2150 2259 
C 2150 2086 2272 1958 2451 1958 
C 2618 1958 2752 2074 2752 2266 
C 2752 2662 2317 2854 1715 2854 
C 826 2854 224 2144 224 1382 
C 224 570 890 -64 1696 -64 
C 2598 -64 2822 691 2822 768 
z
" transform="scale(0.015625)"/>
       <path id="LMRoman8-Regular-6f" d="M 3200 1363 
C 3200 2163 2541 2854 1696 2854 
C 851 2854 192 2163 192 1363 
C 192 563 877 -64 1696 -64 
C 2522 -64 3200 563 3200 1363 
z
M 2630 1421 
C 2630 1126 2618 774 2438 506 
C 2266 250 1978 134 1696 134 
C 1350 134 1082 301 941 525 
C 781 787 762 1101 762 1421 
C 762 1664 762 2048 960 2323 
C 1126 2547 1395 2675 1696 2675 
C 2029 2675 2304 2515 2451 2291 
C 2624 2022 2630 1677 2630 1421 
z
" transform="scale(0.015625)"/>
       <path id="LMRoman8-Regular-73" d="M 2451 826 
C 2451 1133 2266 1581 1504 1722 
C 1453 1734 1094 1798 1069 1798 
C 870 1843 570 1978 570 2234 
C 570 2426 710 2694 1318 2694 
C 2035 2694 2067 2170 2080 1990 
C 2086 1939 2131 1920 2176 1920 
C 2278 1920 2278 1965 2278 2086 
L 2278 2688 
C 2278 2790 2278 2854 2195 2854 
C 2163 2854 2144 2854 2042 2752 
C 2029 2746 1971 2688 1952 2688 
C 1952 2688 1933 2688 1894 2714 
C 1792 2784 1606 2854 1318 2854 
C 422 2854 224 2368 224 2061 
C 224 1741 461 1555 480 1536 
C 736 1344 883 1318 1312 1242 
C 1613 1184 2106 1094 2106 659 
C 2106 410 1939 115 1350 115 
C 704 115 518 614 435 954 
C 410 1037 403 1069 326 1069 
C 224 1069 224 1018 224 896 
L 224 102 
C 224 0 224 -64 307 -64 
C 346 -64 352 -58 467 64 
C 499 96 570 179 602 211 
C 890 -51 1190 -64 1357 -64 
C 2170 -64 2451 403 2451 826 
z
" transform="scale(0.015625)"/>
       <path id="LMRoman8-Regular-20" transform="scale(0.015625)"/>
       <path id="LMRoman8-Regular-66" d="M 2413 4045 
C 2413 4320 2144 4506 1805 4506 
C 1325 4506 755 4160 755 3475 
L 755 2758 
L 230 2758 
L 230 2547 
L 755 2547 
L 755 499 
C 755 211 678 211 269 211 
L 269 0 
C 518 19 870 19 1024 19 
C 1402 19 1414 19 1830 0 
L 1830 211 
L 1702 211 
C 1235 211 1222 282 1222 512 
L 1222 2547 
L 1990 2547 
L 1990 2758 
L 1203 2758 
L 1203 3482 
C 1203 4038 1517 4326 1798 4326 
C 1901 4326 1958 4301 1984 4294 
C 1869 4237 1837 4128 1837 4045 
C 1837 3878 1958 3757 2125 3757 
C 2298 3757 2413 3878 2413 4045 
z
" transform="scale(0.015625)"/>
       <path id="LMRoman8-Regular-72" d="M 2458 2419 
C 2458 2643 2253 2822 1971 2822 
C 1555 2822 1274 2509 1139 2150 
L 1133 2150 
L 1133 2822 
L 224 2752 
L 224 2541 
C 659 2541 710 2496 710 2182 
L 710 499 
C 710 211 634 211 224 211 
L 224 0 
C 474 19 826 19 979 19 
C 1357 19 1370 19 1786 0 
L 1786 211 
L 1658 211 
C 1190 211 1178 282 1178 512 
L 1178 1459 
C 1178 1939 1376 2630 1990 2643 
C 1952 2618 1888 2566 1888 2419 
C 1888 2221 2042 2131 2170 2131 
C 2323 2131 2458 2234 2458 2419 
z
" transform="scale(0.015625)"/>
       <path id="LMRoman8-Regular-6d" d="M 5485 0 
L 5485 211 
C 5075 211 4998 211 4998 499 
L 4998 1939 
C 4998 2458 4774 2822 4077 2822 
C 3488 2822 3194 2419 3091 2234 
C 2976 2694 2611 2822 2195 2822 
C 1574 2822 1280 2381 1197 2208 
L 1190 2208 
L 1190 2822 
L 262 2752 
L 262 2541 
C 698 2541 749 2496 749 2182 
L 749 499 
C 749 211 672 211 262 211 
L 262 0 
C 538 19 819 19 992 19 
C 1178 19 1446 19 1722 0 
L 1722 211 
C 1312 211 1235 211 1235 499 
L 1235 1658 
C 1235 2330 1741 2643 2144 2643 
C 2560 2643 2630 2317 2630 1965 
L 2630 499 
C 2630 211 2554 211 2144 211 
L 2144 0 
C 2419 19 2701 19 2874 19 
C 3059 19 3328 19 3603 0 
L 3603 211 
C 3194 211 3117 211 3117 499 
L 3117 1658 
C 3117 2330 3622 2643 4026 2643 
C 4442 2643 4512 2317 4512 1965 
L 4512 499 
C 4512 211 4435 211 4026 211 
L 4026 0 
C 4301 19 4582 19 4755 19 
C 4941 19 5210 19 5485 0 
z
" transform="scale(0.015625)"/>
       <path id="LMRoman8-Regular-67" d="M 3296 2566 
C 3296 2675 3213 2893 2931 2893 
C 2822 2893 2515 2867 2221 2598 
C 2061 2714 1811 2822 1510 2822 
C 877 2822 410 2381 410 1882 
C 410 1581 576 1357 710 1229 
C 570 1069 518 864 518 710 
C 518 448 646 250 787 141 
C 454 51 192 -198 192 -493 
C 192 -954 851 -1312 1696 -1312 
C 2496 -1312 3200 -986 3200 -480 
C 3200 -134 2995 134 2784 243 
C 2406 442 2093 442 1466 442 
L 1107 442 
C 909 461 749 634 749 864 
C 749 1018 787 1075 832 1133 
C 1101 973 1350 941 1504 941 
C 2138 941 2605 1382 2605 1882 
C 2605 2125 2496 2330 2342 2496 
C 2432 2573 2643 2707 2957 2714 
C 2931 2694 2899 2662 2899 2560 
C 2899 2445 2982 2362 3098 2362 
C 3187 2362 3296 2419 3296 2566 
z
M 2099 1882 
C 2099 1645 2067 1478 1971 1350 
C 1830 1171 1626 1126 1510 1126 
C 915 1126 915 1741 915 1882 
C 915 2118 947 2285 1043 2413 
C 1152 2560 1331 2637 1504 2637 
C 2099 2637 2099 2022 2099 1882 
z
M 2822 -486 
C 2822 -832 2330 -1126 1696 -1126 
C 1056 -1126 570 -832 570 -486 
C 570 -352 672 26 1197 26 
L 1811 26 
C 1984 26 2822 26 2822 -486 
z
" transform="scale(0.015625)"/>
       <path id="LMRoman8-Regular-28" d="M 2259 -1523 
C 2259 -1498 2253 -1491 2170 -1408 
C 1293 -582 1075 608 1075 1600 
C 1075 3443 1837 4307 2163 4602 
C 2253 4685 2259 4691 2259 4723 
C 2259 4755 2234 4800 2170 4800 
C 2067 4800 1747 4474 1696 4416 
C 838 3520 659 2368 659 1600 
C 659 166 1261 -986 2131 -1600 
C 2182 -1600 2259 -1600 2259 -1523 
z
" transform="scale(0.015625)"/>
       <path id="LMRoman8-Regular-6b" d="M 3469 0 
L 3469 211 
C 3200 211 3085 237 2854 538 
L 1926 1741 
L 2470 2176 
C 2893 2509 3162 2541 3322 2547 
L 3322 2758 
C 3168 2739 3078 2739 2816 2739 
C 2502 2739 2413 2746 2131 2758 
L 2131 2547 
C 2253 2541 2278 2458 2278 2419 
C 2278 2285 2150 2176 2099 2138 
L 1178 1395 
L 1178 4442 
L 224 4371 
L 224 4160 
C 659 4160 710 4115 710 3802 
L 710 499 
C 710 211 634 211 224 211 
L 224 0 
C 474 19 819 19 928 19 
C 1056 19 1389 19 1638 0 
L 1638 211 
C 1229 211 1152 211 1152 499 
L 1152 1120 
L 1587 1466 
C 1606 1466 1773 1242 1875 1120 
C 1971 986 2074 858 2176 730 
C 2266 602 2400 435 2400 339 
C 2400 230 2278 211 2202 211 
L 2202 0 
C 2477 19 2765 19 2874 19 
C 3117 19 3245 19 3469 0 
z
" transform="scale(0.015625)"/>
       <path id="LMRoman8-Regular-2f" d="M 3014 4653 
C 3014 4736 2950 4800 2867 4800 
C 2765 4800 2739 4723 2707 4646 
L 410 -1338 
C 378 -1414 378 -1453 378 -1453 
C 378 -1536 442 -1600 525 -1600 
C 627 -1600 653 -1523 685 -1446 
L 2982 4538 
C 3014 4614 3014 4653 3014 4653 
z
" transform="scale(0.015625)"/>
       <path id="LMRoman8-Regular-68" d="M 3597 0 
L 3597 211 
C 3187 211 3110 211 3110 499 
L 3110 1939 
C 3110 2477 2867 2822 2195 2822 
C 1632 2822 1338 2464 1222 2259 
L 1216 2259 
L 1216 4442 
L 262 4371 
L 262 4160 
C 698 4160 749 4115 749 3802 
L 749 499 
C 749 211 672 211 262 211 
L 262 0 
C 538 19 819 19 992 19 
C 1178 19 1446 19 1722 0 
L 1722 211 
C 1312 211 1235 211 1235 499 
L 1235 1658 
C 1235 2330 1747 2643 2138 2643 
C 2528 2643 2624 2368 2624 1965 
L 2624 499 
C 2624 211 2547 211 2138 211 
L 2138 0 
C 2413 19 2694 19 2867 19 
C 3053 19 3322 19 3597 0 
z
" transform="scale(0.015625)"/>
       <path id="LMRoman8-Regular-62" d="M 3546 1382 
C 3546 2189 2886 2822 2106 2822 
C 1600 2822 1286 2547 1178 2432 
L 1178 4442 
L 224 4371 
L 224 4160 
C 659 4160 710 4115 710 3802 
L 710 0 
L 909 0 
L 1139 397 
C 1293 179 1594 -64 2029 -64 
C 2842 -64 3546 563 3546 1382 
z
M 2976 1389 
C 2976 1242 2976 787 2746 486 
C 2515 198 2214 115 2003 115 
C 1696 115 1440 275 1274 525 
C 1197 646 1197 653 1197 774 
L 1197 2022 
C 1197 2144 1197 2157 1293 2272 
C 1478 2509 1779 2643 2067 2643 
C 2400 2643 2650 2445 2778 2253 
C 2886 2080 2976 1856 2976 1389 
z
" transform="scale(0.015625)"/>
       <path id="LMRoman8-Regular-29" d="M 1978 1600 
C 1978 2208 1875 2938 1478 3693 
C 1165 4282 582 4800 467 4800 
C 403 4800 384 4755 384 4723 
C 384 4698 384 4685 461 4608 
C 1357 3757 1562 2586 1562 1600 
C 1562 -237 800 -1107 474 -1402 
C 390 -1485 384 -1491 384 -1523 
C 384 -1555 403 -1600 467 -1600 
C 570 -1600 890 -1274 941 -1216 
C 1798 -320 1978 832 1978 1600 
z
" transform="scale(0.015625)"/>
      </defs>
      <use xlink:href="#LMRoman8-Regular-63"/>
      <use xlink:href="#LMRoman8-Regular-6f" x="47.199997"/>
      <use xlink:href="#LMRoman8-Regular-6e" x="100.299988"/>
      <use xlink:href="#LMRoman8-Regular-73" x="159.299973"/>
      <use xlink:href="#LMRoman8-Regular-6f" x="201.199966"/>
      <use xlink:href="#LMRoman8-Regular-2e" x="254.299957"/>
      <use xlink:href="#LMRoman8-Regular-20" x="283.799942"/>
      <use xlink:href="#LMRoman8-Regular-66" x="319.199936"/>
      <use xlink:href="#LMRoman8-Regular-72" x="351.699921"/>
      <use xlink:href="#LMRoman8-Regular-6f" x="393.099915"/>
      <use xlink:href="#LMRoman8-Regular-6d" x="446.199905"/>
      <use xlink:href="#LMRoman8-Regular-61" x="534.69989"/>
      <use xlink:href="#LMRoman8-Regular-67" x="587.799881"/>
      <use xlink:href="#LMRoman8-Regular-65" x="640.899872"/>
      <use xlink:href="#LMRoman8-Regular-20" x="688.099869"/>
      <use xlink:href="#LMRoman8-Regular-28" x="723.499863"/>
      <use xlink:href="#LMRoman8-Regular-6b" x="764.79985"/>
      <use xlink:href="#LMRoman8-Regular-67" x="820.899841"/>
      <use xlink:href="#LMRoman8-Regular-2f" x="873.999832"/>
      <use xlink:href="#LMRoman8-Regular-68" x="927.099823"/>
      <use xlink:href="#LMRoman8-Regular-61" x="986.099808"/>
      <use xlink:href="#LMRoman8-Regular-62" x="1039.199799"/>
      <use xlink:href="#LMRoman8-Regular-2f" x="1098.199783"/>
      <use xlink:href="#LMRoman8-Regular-61" x="1151.299774"/>
      <use xlink:href="#LMRoman8-Regular-6e" x="1204.399765"/>
      <use xlink:href="#LMRoman8-Regular-29" x="1263.39975"/>
     </g>
    </g>
   </g>
   <g id="line2d_7">
    <path d="M 66.446114 25.443089 
L 164.350664 102.909068 
L 262.255214 158.241911 
" clip-path="url(#p77275a01fa)" style="fill: none; stroke-dasharray: 3.7,1.6; stroke-dashoffset: 0; stroke: #000000"/>
    <defs>
     <path id="m2e5eac201e" d="M 0 1.5 
C 0.397805 1.5 0.77937 1.341951 1.06066 1.06066 
C 1.341951 0.77937 1.5 0.397805 1.5 0 
C 1.5 -0.397805 1.341951 -0.77937 1.06066 -1.06066 
C 0.77937 -1.341951 0.397805 -1.5 0 -1.5 
C -0.397805 -1.5 -0.77937 -1.341951 -1.06066 -1.06066 
C -1.341951 -0.77937 -1.5 -0.397805 -1.5 0 
C -1.5 0.397805 -1.341951 0.77937 -1.06066 1.06066 
C -0.77937 1.341951 -0.397805 1.5 0 1.5 
z
" style="stroke: #000000"/>
    </defs>
    <g clip-path="url(#p77275a01fa)">
     <use xlink:href="#m2e5eac201e" x="66.446114" y="25.443089" style="stroke: #000000"/>
     <use xlink:href="#m2e5eac201e" x="164.350664" y="102.909068" style="stroke: #000000"/>
     <use xlink:href="#m2e5eac201e" x="262.255214" y="158.241911" style="stroke: #000000"/>
    </g>
   </g>
   <g id="patch_3">
    <path d="M 58.61375 164.881852 
L 58.61375 18.803148 
" style="fill: none; stroke: #000000; stroke-width: 0.5; stroke-linejoin: miter; stroke-linecap: square"/>
   </g>
   <g id="patch_4">
    <path d="M 66.446114 170.725 
L 262.255214 170.725 
" style="fill: none; stroke: #000000; stroke-width: 0.5; stroke-linejoin: miter; stroke-linecap: square"/>
   </g>
  </g>
 </g>
 <defs>
  <clipPath id="p77275a01fa">
   <rect x="58.61375" y="12.96" width="211.473828" height="157.765"/>
  </clipPath>
 </defs>
</svg>
