<?xml version="1.0" encoding="utf-8" standalone="no"?>
<!DOCTYPE svg PUBLIC "-//W3C//DTD SVG 1.1//EN"
  "http://www.w3.org/Graphics/SVG/1.1/DTD/svg11.dtd">
<svg xmlns:xlink="http://www.w3.org/1999/xlink" width="288pt" height="216pt" viewBox="0 0 288 216" xmlns="http://www.w3.org/2000/svg" version="1.1">
 <metadata>
  <rdf:RDF xmlns:dc="http://purl.org/dc/elements/1.1/" xmlns:cc="http://creativecommons.org/ns#" xmlns:rdf="http://www.w3.org/1999/02/22-rdf-syntax-ns#">
   <cc:Work>
    <dc:type rdf:resource="http://purl.org/dc/dcmitype/StillImage"/>
    <dc:date>2022-05-18T22:35:25.595614</dc:date>
    <dc:format>image/svg+xml</dc:format>
    <dc:creator>
     <cc:Agent>
      <dc:title>Matplotlib v3.5.1, https://matplotlib.org/</dc:title>
     </cc:Agent>
    </dc:creator>
   </cc:Work>
  </rdf:RDF>
 </metadata>
 <defs>
  <style type="text/css">*{stroke-linejoin: round; stroke-linecap: butt}</style>
 </defs>
 <g id="figure_1">
  <g id="patch_1">
   <path d="M 0 216 
L 288 216 
L 288 0 
L 0 0 
L 0 216 
z
" style="fill: none"/>
  </g>
  <g id="axes_1">
   <g id="patch_2">
    <path d="M 50.9 170.725 
L 275.04 170.725 
L 275.04 12.96 
L 50.9 12.96 
L 50.9 170.725 
z
" style="fill: none"/>
   </g>
   <g id="patch_3">
    <path d="M 101.415996 164.881852 
L 183.016597 164.881852 
" clip-path="url(#p9e52864367)" style="fill: none; stroke: #000000; stroke-linecap: round"/>
    <path d="M 103.415996 166.881852 
L 101.415996 164.881852 
L 103.415996 162.881852 
" clip-path="url(#p9e52864367)" style="fill: none; stroke: #000000; stroke-linecap: round"/>
    <path d="M 181.016597 162.881852 
L 183.016597 164.881852 
L 181.016597 166.881852 
" clip-path="url(#p9e52864367)" style="fill: none; stroke: #000000; stroke-linecap: round"/>
   </g>
   <g id="matplotlib.axis_1">
    <g id="xtick_1">
     <g id="line2d_1">
      <defs>
       <path id="md601c4331f" d="M 0 0 
L 0 3.5 
" style="stroke: #000000; stroke-width: 0.8"/>
      </defs>
      <g>
       <use xlink:href="#md601c4331f" x="59.201481" y="170.725" style="stroke: #000000; stroke-width: 0.8"/>
      </g>
     </g>
     <g id="text_1">
      <!-- 0 -->
      <g transform="translate(56.015856 186.05375)scale(0.12 -0.12)">
       <defs>
        <path id="LMRoman8-Regular-30" d="M 3130 2042 
C 3130 2726 3059 3142 2848 3552 
C 2566 4115 2048 4256 1696 4256 
C 890 4256 595 3654 506 3475 
C 275 3008 262 2374 262 2042 
C 262 1619 282 973 589 461 
C 883 -13 1357 -134 1696 -134 
C 2003 -134 2554 -38 2874 595 
C 3110 1056 3130 1626 3130 2042 
z
M 2560 2118 
C 2560 1741 2560 1165 2483 806 
C 2349 134 1907 45 1696 45 
C 1478 45 1037 147 902 819 
C 832 1184 832 1786 832 2118 
C 832 2560 832 3008 902 3360 
C 1037 4013 1536 4077 1696 4077 
C 1914 4077 2355 3968 2483 3386 
C 2560 3034 2560 2554 2560 2118 
z
" transform="scale(0.015625)"/>
       </defs>
       <use xlink:href="#LMRoman8-Regular-30"/>
      </g>
     </g>
    </g>
    <g id="xtick_2">
     <g id="line2d_2">
      <g>
       <use xlink:href="#md601c4331f" x="100.708889" y="170.725" style="stroke: #000000; stroke-width: 0.8"/>
      </g>
     </g>
     <g id="text_2">
      <!-- 1 -->
      <g transform="translate(97.523264 186.05375)scale(0.12 -0.12)">
       <defs>
        <path id="LMRoman8-Regular-31" d="M 2861 0 
L 2861 211 
L 2637 211 
C 2029 211 2010 288 2010 525 
L 2010 4077 
C 2010 4250 1997 4256 1824 4256 
C 1562 4000 1222 3846 614 3846 
L 614 3635 
C 787 3635 1133 3635 1504 3808 
L 1504 525 
C 1504 288 1485 211 877 211 
L 653 211 
L 653 0 
C 915 19 1466 19 1754 19 
C 2042 19 2598 19 2861 0 
z
" transform="scale(0.015625)"/>
       </defs>
       <use xlink:href="#LMRoman8-Regular-31"/>
      </g>
     </g>
    </g>
    <g id="xtick_3">
     <g id="line2d_3">
      <g>
       <use xlink:href="#md601c4331f" x="142.216296" y="170.725" style="stroke: #000000; stroke-width: 0.8"/>
      </g>
     </g>
     <g id="text_3">
      <!-- 2 -->
      <g transform="translate(139.030671 186.05375)scale(0.12 -0.12)">
       <defs>
        <path id="LMRoman8-Regular-32" d="M 3053 1146 
L 2854 1146 
C 2835 1018 2784 698 2707 576 
C 2669 525 2182 525 2080 525 
L 941 525 
L 1805 1306 
C 1907 1402 2176 1613 2278 1702 
C 2675 2067 3053 2419 3053 3002 
C 3053 3763 2413 4256 1613 4256 
C 845 4256 339 3674 339 3104 
C 339 2790 589 2746 678 2746 
C 813 2746 1011 2842 1011 3085 
C 1011 3418 691 3418 614 3418 
C 800 3885 1229 4045 1542 4045 
C 2138 4045 2445 3539 2445 3002 
C 2445 2336 1978 1850 1222 1075 
L 416 243 
C 339 173 339 160 339 0 
L 2867 0 
L 3053 1146 
z
" transform="scale(0.015625)"/>
       </defs>
       <use xlink:href="#LMRoman8-Regular-32"/>
      </g>
     </g>
    </g>
    <g id="xtick_4">
     <g id="line2d_4">
      <g>
       <use xlink:href="#md601c4331f" x="183.723704" y="170.725" style="stroke: #000000; stroke-width: 0.8"/>
      </g>
     </g>
     <g id="text_4">
      <!-- 3 -->
      <g transform="translate(180.538079 186.05375)scale(0.12 -0.12)">
       <defs>
        <path id="LMRoman8-Regular-33" d="M 3110 1094 
C 3110 1626 2688 2112 2035 2253 
C 2541 2432 2918 2867 2918 3379 
C 2918 3891 2342 4256 1677 4256 
C 992 4256 474 3885 474 3398 
C 474 3162 634 3059 800 3059 
C 998 3059 1126 3200 1126 3386 
C 1126 3622 922 3712 781 3718 
C 1050 4070 1542 4090 1658 4090 
C 1824 4090 2310 4038 2310 3379 
C 2310 2931 2125 2662 2035 2560 
C 1843 2362 1696 2349 1306 2323 
C 1184 2317 1133 2310 1133 2227 
C 1133 2138 1190 2138 1299 2138 
L 1619 2138 
C 2125 2138 2445 1766 2445 1094 
C 2445 294 1990 58 1651 58 
C 1299 58 819 186 595 525 
C 826 525 986 672 986 883 
C 986 1088 838 1235 634 1235 
C 461 1235 282 1126 282 870 
C 282 262 934 -134 1664 -134 
C 2515 -134 3110 454 3110 1094 
z
" transform="scale(0.015625)"/>
       </defs>
       <use xlink:href="#LMRoman8-Regular-33"/>
      </g>
     </g>
    </g>
    <g id="xtick_5">
     <g id="line2d_5">
      <g>
       <use xlink:href="#md601c4331f" x="225.231111" y="170.725" style="stroke: #000000; stroke-width: 0.8"/>
      </g>
     </g>
     <g id="text_5">
      <!-- 4 -->
      <g transform="translate(222.045486 186.05375)scale(0.12 -0.12)">
       <defs>
        <path id="LMRoman8-Regular-34" d="M 3200 1050 
L 3200 1261 
L 2522 1261 
L 2522 4141 
C 2522 4269 2522 4320 2387 4320 
C 2304 4320 2298 4314 2234 4224 
L 192 1261 
L 192 1050 
L 1997 1050 
L 1997 518 
C 1997 282 1978 211 1485 211 
L 1338 211 
L 1338 0 
L 2259 19 
L 3181 0 
L 3181 211 
L 3034 211 
C 2541 211 2522 282 2522 518 
L 2522 1050 
L 3200 1050 
z
M 2042 1261 
L 416 1261 
L 2042 3622 
L 2042 1261 
z
" transform="scale(0.015625)"/>
       </defs>
       <use xlink:href="#LMRoman8-Regular-34"/>
      </g>
     </g>
    </g>
    <g id="xtick_6">
     <g id="line2d_6">
      <g>
       <use xlink:href="#md601c4331f" x="266.738519" y="170.725" style="stroke: #000000; stroke-width: 0.8"/>
      </g>
     </g>
     <g id="text_6">
      <!-- 5 -->
      <g transform="translate(263.552894 186.05375)scale(0.12 -0.12)">
       <defs>
        <path id="LMRoman8-Regular-35" d="M 3053 1280 
C 3053 2022 2515 2682 1760 2682 
C 1440 2682 1139 2579 896 2362 
L 896 3597 
C 979 3571 1235 3507 1504 3507 
C 2304 3507 2790 4070 2790 4166 
C 2790 4237 2746 4256 2714 4256 
C 2714 4256 2688 4256 2630 4224 
C 2381 4128 2086 4051 1741 4051 
C 1363 4051 1050 4147 851 4224 
C 787 4256 768 4256 768 4256 
C 685 4256 685 4186 685 4070 
L 685 2195 
C 685 2080 685 2003 787 2003 
C 838 2003 858 2029 890 2080 
C 966 2176 1210 2502 1754 2502 
C 2112 2502 2285 2208 2342 2086 
C 2451 1856 2464 1562 2464 1312 
C 2464 1075 2458 730 2278 448 
C 2157 256 1901 58 1562 58 
C 1146 58 736 320 589 736 
C 608 730 653 730 653 730 
C 832 730 973 845 973 1043 
C 973 1280 787 1363 659 1363 
C 544 1363 339 1299 339 1024 
C 339 448 838 -134 1574 -134 
C 2374 -134 3053 486 3053 1280 
z
" transform="scale(0.015625)"/>
       </defs>
       <use xlink:href="#LMRoman8-Regular-35"/>
      </g>
     </g>
    </g>
    <g id="text_7">
     <!-- valeur de la mesure -->
     <g transform="translate(108.578125 200.71125)scale(0.12 -0.12)">
      <defs>
       <path id="LMRoman8-Regular-76" d="M 3443 2547 
L 3443 2758 
C 3219 2739 3206 2739 2944 2739 
C 2886 2739 2586 2739 2387 2758 
L 2387 2547 
C 2611 2534 2669 2394 2669 2285 
C 2669 2221 2656 2189 2630 2131 
L 1939 518 
L 1184 2253 
C 1146 2336 1146 2387 1146 2387 
C 1146 2547 1376 2547 1485 2547 
L 1485 2758 
C 1210 2739 909 2739 787 2739 
C 653 2739 346 2739 141 2758 
L 141 2547 
C 531 2547 563 2509 659 2291 
L 1619 77 
C 1664 -19 1702 -64 1792 -64 
C 1882 -64 1926 -13 1958 64 
L 2835 2099 
C 2989 2458 3206 2541 3443 2547 
z
" transform="scale(0.015625)"/>
       <path id="LMRoman8-Regular-61" d="M 3290 576 
L 3290 928 
L 3091 928 
L 3091 576 
C 3091 314 2995 211 2861 211 
C 2624 211 2624 506 2624 576 
L 2624 1907 
C 2624 2534 2016 2854 1434 2854 
C 902 2854 429 2650 429 2227 
C 429 2035 563 1920 730 1920 
C 909 1920 1030 2048 1030 2221 
C 1030 2374 934 2483 794 2515 
C 1030 2675 1376 2675 1421 2675 
C 1779 2675 2138 2426 2138 1901 
L 2138 1702 
C 1766 1683 1338 1664 890 1478 
C 326 1235 218 864 218 653 
C 218 102 864 -64 1306 -64 
C 1773 -64 2061 198 2202 454 
C 2234 211 2400 -32 2682 -32 
C 2746 -32 3290 -6 3290 576 
z
M 2138 902 
C 2138 282 1613 115 1357 115 
C 1024 115 742 339 742 646 
C 742 1069 1139 1504 2138 1536 
L 2138 902 
z
" transform="scale(0.015625)"/>
       <path id="LMRoman8-Regular-6c" d="M 1709 0 
L 1709 211 
C 1299 211 1222 211 1222 499 
L 1222 4442 
L 269 4371 
L 269 4160 
C 704 4160 755 4115 755 3802 
L 755 499 
C 755 211 678 211 269 211 
L 269 0 
C 518 19 877 19 986 19 
C 1114 19 1459 19 1709 0 
z
" transform="scale(0.015625)"/>
       <path id="LMRoman8-Regular-65" d="M 2822 768 
C 2822 794 2803 858 2720 858 
C 2650 858 2637 813 2624 774 
C 2394 154 1843 134 1728 134 
C 1440 134 1146 269 954 563 
C 762 858 762 1267 762 1459 
L 2643 1459 
C 2784 1459 2822 1459 2822 1606 
C 2822 2176 2509 2854 1606 2854 
C 813 2854 192 2195 192 1402 
C 192 576 883 -64 1690 -64 
C 2502 -64 2822 621 2822 768 
z
M 2387 1626 
L 768 1626 
C 826 2522 1370 2675 1606 2675 
C 2355 2675 2381 1773 2387 1626 
z
" transform="scale(0.015625)"/>
       <path id="LMRoman8-Regular-75" d="M 3597 0 
L 3597 211 
C 3162 211 3110 256 3110 570 
L 3110 2822 
L 2138 2752 
L 2138 2541 
C 2573 2541 2624 2496 2624 2182 
L 2624 1069 
C 2624 518 2291 115 1811 115 
C 1261 115 1235 390 1235 710 
L 1235 2822 
L 262 2752 
L 262 2541 
C 749 2541 749 2522 749 1952 
L 749 992 
C 749 531 749 -64 1773 -64 
C 2374 -64 2605 397 2637 454 
L 2643 454 
L 2643 -64 
L 3597 0 
z
" transform="scale(0.015625)"/>
       <path id="LMRoman8-Regular-72" d="M 2458 2419 
C 2458 2643 2253 2822 1971 2822 
C 1555 2822 1274 2509 1139 2150 
L 1133 2150 
L 1133 2822 
L 224 2752 
L 224 2541 
C 659 2541 710 2496 710 2182 
L 710 499 
C 710 211 634 211 224 211 
L 224 0 
C 474 19 826 19 979 19 
C 1357 19 1370 19 1786 0 
L 1786 211 
L 1658 211 
C 1190 211 1178 282 1178 512 
L 1178 1459 
C 1178 1939 1376 2630 1990 2643 
C 1952 2618 1888 2566 1888 2419 
C 1888 2221 2042 2131 2170 2131 
C 2323 2131 2458 2234 2458 2419 
z
" transform="scale(0.015625)"/>
       <path id="LMRoman8-Regular-20" transform="scale(0.015625)"/>
       <path id="LMRoman8-Regular-64" d="M 3546 0 
L 3546 211 
C 3110 211 3059 256 3059 570 
L 3059 4442 
L 2106 4371 
L 2106 4160 
C 2541 4160 2592 4115 2592 3802 
L 2592 2451 
C 2368 2694 2067 2822 1734 2822 
C 934 2822 224 2202 224 1376 
C 224 589 864 -64 1670 -64 
C 2048 -64 2362 115 2573 339 
L 2573 -64 
L 3546 0 
z
M 2573 794 
C 2573 678 2573 653 2477 525 
C 2298 269 2003 115 1702 115 
C 1408 115 1152 269 998 506 
C 826 755 794 1069 794 1370 
C 794 1741 851 2003 998 2227 
C 1152 2464 1440 2643 1766 2643 
C 2074 2643 2381 2490 2573 2157 
L 2573 794 
z
" transform="scale(0.015625)"/>
       <path id="LMRoman8-Regular-6d" d="M 5485 0 
L 5485 211 
C 5075 211 4998 211 4998 499 
L 4998 1939 
C 4998 2458 4774 2822 4077 2822 
C 3488 2822 3194 2419 3091 2234 
C 2976 2694 2611 2822 2195 2822 
C 1574 2822 1280 2381 1197 2208 
L 1190 2208 
L 1190 2822 
L 262 2752 
L 262 2541 
C 698 2541 749 2496 749 2182 
L 749 499 
C 749 211 672 211 262 211 
L 262 0 
C 538 19 819 19 992 19 
C 1178 19 1446 19 1722 0 
L 1722 211 
C 1312 211 1235 211 1235 499 
L 1235 1658 
C 1235 2330 1741 2643 2144 2643 
C 2560 2643 2630 2317 2630 1965 
L 2630 499 
C 2630 211 2554 211 2144 211 
L 2144 0 
C 2419 19 2701 19 2874 19 
C 3059 19 3328 19 3603 0 
L 3603 211 
C 3194 211 3117 211 3117 499 
L 3117 1658 
C 3117 2330 3622 2643 4026 2643 
C 4442 2643 4512 2317 4512 1965 
L 4512 499 
C 4512 211 4435 211 4026 211 
L 4026 0 
C 4301 19 4582 19 4755 19 
C 4941 19 5210 19 5485 0 
z
" transform="scale(0.015625)"/>
       <path id="LMRoman8-Regular-73" d="M 2451 826 
C 2451 1133 2266 1581 1504 1722 
C 1453 1734 1094 1798 1069 1798 
C 870 1843 570 1978 570 2234 
C 570 2426 710 2694 1318 2694 
C 2035 2694 2067 2170 2080 1990 
C 2086 1939 2131 1920 2176 1920 
C 2278 1920 2278 1965 2278 2086 
L 2278 2688 
C 2278 2790 2278 2854 2195 2854 
C 2163 2854 2144 2854 2042 2752 
C 2029 2746 1971 2688 1952 2688 
C 1952 2688 1933 2688 1894 2714 
C 1792 2784 1606 2854 1318 2854 
C 422 2854 224 2368 224 2061 
C 224 1741 461 1555 480 1536 
C 736 1344 883 1318 1312 1242 
C 1613 1184 2106 1094 2106 659 
C 2106 410 1939 115 1350 115 
C 704 115 518 614 435 954 
C 410 1037 403 1069 326 1069 
C 224 1069 224 1018 224 896 
L 224 102 
C 224 0 224 -64 307 -64 
C 346 -64 352 -58 467 64 
C 499 96 570 179 602 211 
C 890 -51 1190 -64 1357 -64 
C 2170 -64 2451 403 2451 826 
z
" transform="scale(0.015625)"/>
      </defs>
      <use xlink:href="#LMRoman8-Regular-76"/>
      <use xlink:href="#LMRoman8-Regular-61" x="56.099991"/>
      <use xlink:href="#LMRoman8-Regular-6c" x="109.199982"/>
      <use xlink:href="#LMRoman8-Regular-65" x="138.699966"/>
      <use xlink:href="#LMRoman8-Regular-75" x="185.899963"/>
      <use xlink:href="#LMRoman8-Regular-72" x="244.899948"/>
      <use xlink:href="#LMRoman8-Regular-20" x="286.299942"/>
      <use xlink:href="#LMRoman8-Regular-64" x="321.699936"/>
      <use xlink:href="#LMRoman8-Regular-65" x="380.699921"/>
      <use xlink:href="#LMRoman8-Regular-20" x="427.899918"/>
      <use xlink:href="#LMRoman8-Regular-6c" x="463.299911"/>
      <use xlink:href="#LMRoman8-Regular-61" x="492.799896"/>
      <use xlink:href="#LMRoman8-Regular-20" x="545.899887"/>
      <use xlink:href="#LMRoman8-Regular-6d" x="581.299881"/>
      <use xlink:href="#LMRoman8-Regular-65" x="669.799866"/>
      <use xlink:href="#LMRoman8-Regular-73" x="716.999863"/>
      <use xlink:href="#LMRoman8-Regular-75" x="758.899857"/>
      <use xlink:href="#LMRoman8-Regular-72" x="817.899841"/>
      <use xlink:href="#LMRoman8-Regular-65" x="859.299835"/>
     </g>
    </g>
   </g>
   <g id="matplotlib.axis_2">
    <g id="ytick_1">
     <g id="line2d_7">
      <defs>
       <path id="m002e72504a" d="M 0 0 
L -3.5 0 
" style="stroke: #000000; stroke-width: 0.8"/>
      </defs>
      <g>
       <use xlink:href="#m002e72504a" x="50.9" y="164.881852" style="stroke: #000000; stroke-width: 0.8"/>
      </g>
     </g>
     <g id="text_8">
      <!-- 0.0 -->
      <g transform="translate(27.6175 169.046227)scale(0.12 -0.12)">
       <defs>
        <path id="LMRoman8-Regular-2e" d="M 1299 352 
C 1299 570 1126 710 947 710 
C 730 710 589 538 589 358 
C 589 141 762 0 941 0 
C 1158 0 1299 173 1299 352 
z
" transform="scale(0.015625)"/>
       </defs>
       <use xlink:href="#LMRoman8-Regular-30"/>
       <use xlink:href="#LMRoman8-Regular-2e" x="53.099991"/>
       <use xlink:href="#LMRoman8-Regular-30" x="82.599976"/>
      </g>
     </g>
    </g>
    <g id="ytick_2">
     <g id="line2d_8">
      <g>
       <use xlink:href="#m002e72504a" x="50.9" y="116.188951" style="stroke: #000000; stroke-width: 0.8"/>
      </g>
     </g>
     <g id="text_9">
      <!-- 0.2 -->
      <g transform="translate(27.6175 120.353326)scale(0.12 -0.12)">
       <use xlink:href="#LMRoman8-Regular-30"/>
       <use xlink:href="#LMRoman8-Regular-2e" x="53.099991"/>
       <use xlink:href="#LMRoman8-Regular-32" x="82.599976"/>
      </g>
     </g>
    </g>
    <g id="ytick_3">
     <g id="line2d_9">
      <g>
       <use xlink:href="#m002e72504a" x="50.9" y="67.496049" style="stroke: #000000; stroke-width: 0.8"/>
      </g>
     </g>
     <g id="text_10">
      <!-- 0.4 -->
      <g transform="translate(27.6175 71.660424)scale(0.12 -0.12)">
       <use xlink:href="#LMRoman8-Regular-30"/>
       <use xlink:href="#LMRoman8-Regular-2e" x="53.099991"/>
       <use xlink:href="#LMRoman8-Regular-34" x="82.599976"/>
      </g>
     </g>
    </g>
    <g id="ytick_4">
     <g id="line2d_10">
      <g>
       <use xlink:href="#m002e72504a" x="50.9" y="18.803148" style="stroke: #000000; stroke-width: 0.8"/>
      </g>
     </g>
     <g id="text_11">
      <!-- 0.6 -->
      <g transform="translate(27.6175 22.967523)scale(0.12 -0.12)">
       <defs>
        <path id="LMRoman8-Regular-36" d="M 3110 1299 
C 3110 2138 2477 2726 1766 2726 
C 1306 2726 1030 2432 883 2118 
C 883 2650 928 3117 1158 3507 
C 1350 3827 1677 4090 2080 4090 
C 2208 4090 2502 4070 2650 3846 
C 2362 3834 2336 3616 2336 3546 
C 2336 3354 2483 3245 2637 3245 
C 2752 3245 2938 3315 2938 3558 
C 2938 3942 2650 4256 2074 4256 
C 1184 4256 282 3411 282 2029 
C 282 294 1088 -134 1709 -134 
C 2016 -134 2349 -51 2637 224 
C 2893 474 3110 742 3110 1299 
z
M 2509 1306 
C 2509 979 2509 698 2381 467 
C 2214 173 1990 58 1709 58 
C 1370 58 1158 294 1062 474 
C 915 762 902 1197 902 1440 
C 902 2074 1248 2547 1741 2547 
C 2061 2547 2253 2381 2374 2157 
C 2509 1920 2509 1632 2509 1306 
z
" transform="scale(0.015625)"/>
       </defs>
       <use xlink:href="#LMRoman8-Regular-30"/>
       <use xlink:href="#LMRoman8-Regular-2e" x="53.099991"/>
       <use xlink:href="#LMRoman8-Regular-36" x="82.599976"/>
      </g>
     </g>
    </g>
    <g id="text_12">
     <!-- distribution -->
     <g transform="translate(21.28875 124.4525)rotate(-90)scale(0.12 -0.12)">
      <defs>
       <path id="LMRoman8-Regular-69" d="M 1664 0 
L 1664 211 
C 1248 211 1222 243 1222 493 
L 1222 2822 
L 288 2752 
L 288 2541 
C 698 2541 755 2502 755 2189 
L 755 499 
C 755 211 678 211 269 211 
L 269 0 
C 518 19 877 19 973 19 
C 1056 19 1440 19 1664 0 
z
M 1299 3853 
C 1299 4064 1133 4211 947 4211 
C 762 4211 595 4064 595 3853 
C 595 3667 742 3501 947 3501 
C 1146 3501 1299 3667 1299 3853 
z
" transform="scale(0.015625)"/>
       <path id="LMRoman8-Regular-74" d="M 2259 800 
L 2259 1158 
L 2061 1158 
L 2061 813 
C 2061 371 1862 134 1619 134 
C 1190 134 1190 685 1190 787 
L 1190 2547 
L 2144 2547 
L 2144 2758 
L 1190 2758 
L 1190 3936 
L 992 3936 
C 986 3354 723 2746 128 2726 
L 128 2547 
L 704 2547 
L 704 800 
C 704 51 1280 -64 1574 -64 
C 2003 -64 2259 320 2259 800 
z
" transform="scale(0.015625)"/>
       <path id="LMRoman8-Regular-62" d="M 3546 1382 
C 3546 2189 2886 2822 2106 2822 
C 1600 2822 1286 2547 1178 2432 
L 1178 4442 
L 224 4371 
L 224 4160 
C 659 4160 710 4115 710 3802 
L 710 0 
L 909 0 
L 1139 397 
C 1293 179 1594 -64 2029 -64 
C 2842 -64 3546 563 3546 1382 
z
M 2976 1389 
C 2976 1242 2976 787 2746 486 
C 2515 198 2214 115 2003 115 
C 1696 115 1440 275 1274 525 
C 1197 646 1197 653 1197 774 
L 1197 2022 
C 1197 2144 1197 2157 1293 2272 
C 1478 2509 1779 2643 2067 2643 
C 2400 2643 2650 2445 2778 2253 
C 2886 2080 2976 1856 2976 1389 
z
" transform="scale(0.015625)"/>
       <path id="LMRoman8-Regular-6f" d="M 3200 1363 
C 3200 2163 2541 2854 1696 2854 
C 851 2854 192 2163 192 1363 
C 192 563 877 -64 1696 -64 
C 2522 -64 3200 563 3200 1363 
z
M 2630 1421 
C 2630 1126 2618 774 2438 506 
C 2266 250 1978 134 1696 134 
C 1350 134 1082 301 941 525 
C 781 787 762 1101 762 1421 
C 762 1664 762 2048 960 2323 
C 1126 2547 1395 2675 1696 2675 
C 2029 2675 2304 2515 2451 2291 
C 2624 2022 2630 1677 2630 1421 
z
" transform="scale(0.015625)"/>
       <path id="LMRoman8-Regular-6e" d="M 3597 0 
L 3597 211 
C 3187 211 3110 211 3110 499 
L 3110 1939 
C 3110 2477 2867 2822 2195 2822 
C 1562 2822 1274 2362 1197 2208 
L 1190 2208 
L 1190 2822 
L 262 2752 
L 262 2541 
C 698 2541 749 2496 749 2182 
L 749 499 
C 749 211 672 211 262 211 
L 262 0 
C 538 19 819 19 992 19 
C 1178 19 1446 19 1722 0 
L 1722 211 
C 1312 211 1235 211 1235 499 
L 1235 1658 
C 1235 2330 1747 2643 2138 2643 
C 2528 2643 2624 2368 2624 1965 
L 2624 499 
C 2624 211 2547 211 2138 211 
L 2138 0 
C 2413 19 2694 19 2867 19 
C 3053 19 3322 19 3597 0 
z
" transform="scale(0.015625)"/>
      </defs>
      <use xlink:href="#LMRoman8-Regular-64"/>
      <use xlink:href="#LMRoman8-Regular-69" x="58.999985"/>
      <use xlink:href="#LMRoman8-Regular-73" x="88.499969"/>
      <use xlink:href="#LMRoman8-Regular-74" x="130.399963"/>
      <use xlink:href="#LMRoman8-Regular-72" x="171.699951"/>
      <use xlink:href="#LMRoman8-Regular-69" x="213.099945"/>
      <use xlink:href="#LMRoman8-Regular-62" x="242.59993"/>
      <use xlink:href="#LMRoman8-Regular-75" x="301.599915"/>
      <use xlink:href="#LMRoman8-Regular-74" x="360.599899"/>
      <use xlink:href="#LMRoman8-Regular-69" x="401.899887"/>
      <use xlink:href="#LMRoman8-Regular-6f" x="431.399872"/>
      <use xlink:href="#LMRoman8-Regular-6e" x="484.499863"/>
     </g>
    </g>
   </g>
   <g id="line2d_11">
    <path d="M 142.216296 147.06025 
L 142.216296 28.7365 
" clip-path="url(#p9e52864367)" style="fill: none; stroke-dasharray: 1,1.65; stroke-dashoffset: 0; stroke: #000000"/>
   </g>
   <g id="line2d_12">
    <path d="M 59.616556 164.881852 
L 69.252545 164.77287 
L 71.013962 164.51003 
L 72.360928 164.090387 
L 73.500669 163.516112 
L 74.64041 162.682969 
L 75.676538 161.65755 
L 76.816278 160.193259 
L 77.956019 158.342352 
L 79.199372 155.854399 
L 80.442726 152.863937 
L 81.893305 148.745773 
L 83.447497 143.620001 
L 85.208914 137.013066 
L 87.28117 128.353281 
L 90.078715 115.638366 
L 97.538836 81.254584 
L 100.025543 71.111833 
L 102.097799 63.532927 
L 104.066442 57.16404 
L 105.827859 52.193612 
L 107.485664 48.159106 
L 109.039855 44.944444 
L 110.490434 42.433112 
L 111.837401 40.513933 
L 113.184367 38.979752 
L 114.42772 37.892633 
L 115.671074 37.108035 
L 116.810814 36.642525 
L 117.950555 36.407862 
L 119.090296 36.392139 
L 120.333649 36.610377 
L 121.577003 37.058692 
L 122.923969 37.785425 
L 124.374548 38.825852 
L 126.032353 40.311252 
L 127.79377 42.197429 
L 129.762413 44.631417 
L 132.041894 47.810965 
L 134.735827 51.96759 
L 138.051436 57.516827 
L 142.714011 65.802997 
L 155.147546 88.108923 
L 159.706509 95.732091 
L 163.85102 102.243407 
L 167.788306 108.021922 
L 171.621979 113.252222 
L 175.35204 117.964317 
L 178.978487 122.195413 
L 182.604935 126.092646 
L 186.231382 129.670786 
L 189.961443 133.036245 
L 193.691503 136.102227 
L 197.525176 138.963091 
L 201.462462 141.618433 
L 205.503361 144.07046 
L 209.647872 146.323639 
L 213.999609 148.431666 
L 218.454959 150.3443 
L 223.221148 152.145534 
L 228.194561 153.786875 
L 233.478814 155.297814 
L 239.177517 156.694606 
L 245.290671 157.963738 
L 252.025503 159.130836 
L 259.382011 160.176667 
L 266.738519 161.027312 
L 266.738519 161.027312 
" clip-path="url(#p9e52864367)" style="fill: none; stroke: #000000; stroke-linecap: square"/>
   </g>
   <g id="patch_4">
    <path d="M 50.9 164.881852 
L 50.9 18.803148 
" style="fill: none; stroke: #000000; stroke-width: 0.5; stroke-linejoin: miter; stroke-linecap: square"/>
   </g>
   <g id="patch_5">
    <path d="M 59.201481 170.725 
L 266.738519 170.725 
" style="fill: none; stroke: #000000; stroke-width: 0.5; stroke-linejoin: miter; stroke-linecap: square"/>
   </g>
   <g id="text_13">
    <!-- moyenne $\mu$ -->
    <g transform="translate(148.894874 137.865231)rotate(-90)scale(0.09996 -0.09996)">
     <defs>
      <path id="LMRoman8-Regular-79" d="M 3443 2547 
L 3443 2758 
C 3219 2739 3206 2739 2938 2739 
C 2912 2739 2573 2739 2387 2758 
L 2387 2547 
C 2573 2534 2662 2432 2662 2285 
C 2662 2246 2656 2202 2624 2125 
L 1939 576 
L 1197 2253 
C 1152 2349 1152 2362 1152 2387 
C 1152 2541 1350 2547 1491 2547 
L 1491 2758 
C 1203 2739 928 2739 787 2739 
C 653 2739 346 2739 141 2758 
L 141 2547 
C 474 2547 563 2534 672 2291 
L 1683 0 
C 1395 -678 1203 -1126 755 -1126 
C 595 -1126 493 -1050 493 -1050 
C 538 -1037 685 -966 685 -781 
C 685 -602 550 -506 410 -506 
C 282 -506 134 -589 134 -787 
C 134 -1069 410 -1306 755 -1306 
C 1325 -1306 1632 -621 1658 -557 
L 2835 2112 
C 2995 2477 3232 2541 3443 2547 
z
" transform="scale(0.015625)"/>
      <path id="Cmmi10-b9" d="M 178 -1203 
Q 178 -1166 184 -1153 
L 1125 2625 
Q 1153 2716 1226 2772 
Q 1300 2828 1394 2828 
Q 1475 2828 1531 2779 
Q 1588 2731 1588 2650 
Q 1588 2631 1586 2620 
Q 1584 2609 1581 2597 
L 1203 1100 
Q 1141 834 1141 641 
Q 1141 403 1253 250 
Q 1366 97 1594 97 
Q 2059 97 2413 678 
Q 2416 684 2417 687 
Q 2419 691 2419 697 
L 2881 2553 
Q 2903 2638 2981 2698 
Q 3059 2759 3150 2759 
Q 3225 2759 3283 2709 
Q 3341 2659 3341 2578 
Q 3341 2541 3334 2528 
L 2875 684 
Q 2828 503 2828 372 
Q 2828 97 3016 97 
Q 3216 97 3317 344 
Q 3419 591 3494 941 
Q 3506 978 3547 978 
L 3622 978 
Q 3647 978 3664 958 
Q 3681 938 3681 916 
Q 3569 469 3436 198 
Q 3303 -72 3003 -72 
Q 2791 -72 2627 50 
Q 2463 172 2413 378 
Q 2253 178 2039 53 
Q 1825 -72 1588 -72 
Q 1188 -72 959 116 
L 634 -1178 
Q 616 -1269 541 -1325 
Q 466 -1381 372 -1381 
Q 294 -1381 236 -1332 
Q 178 -1284 178 -1203 
z
" transform="scale(0.015625)"/>
     </defs>
     <use xlink:href="#LMRoman8-Regular-6d" transform="translate(0 0.40625)"/>
     <use xlink:href="#LMRoman8-Regular-6f" transform="translate(88.499985 0.40625)"/>
     <use xlink:href="#LMRoman8-Regular-79" transform="translate(141.599976 0.40625)"/>
     <use xlink:href="#LMRoman8-Regular-65" transform="translate(197.699966 0.40625)"/>
     <use xlink:href="#LMRoman8-Regular-6e" transform="translate(244.899963 0.40625)"/>
     <use xlink:href="#LMRoman8-Regular-6e" transform="translate(303.899948 0.40625)"/>
     <use xlink:href="#LMRoman8-Regular-65" transform="translate(362.899933 0.40625)"/>
     <use xlink:href="#LMRoman8-Regular-20" transform="translate(410.09993 0.40625)"/>
     <use xlink:href="#Cmmi10-b9" transform="translate(445.499924 0.40625)"/>
    </g>
   </g>
   <g id="text_14">
    <!-- $\mu \pm \sigma$ -->
    <g transform="translate(130.670916 162.682732)scale(0.09996 -0.09996)">
     <defs>
      <path id="Cmsy10-a7" d="M 481 0 
Q 428 0 393 37 
Q 359 75 359 128 
Q 359 175 393 215 
Q 428 256 481 256 
L 2363 256 
L 2363 2003 
L 481 2003 
Q 428 2003 393 2043 
Q 359 2084 359 2131 
Q 359 2178 393 2218 
Q 428 2259 481 2259 
L 2363 2259 
L 2363 4147 
Q 2363 4197 2400 4230 
Q 2438 4263 2491 4263 
Q 2534 4263 2576 4230 
Q 2619 4197 2619 4147 
L 2619 2259 
L 4500 2259 
Q 4547 2259 4581 2218 
Q 4616 2178 4616 2131 
Q 4616 2084 4581 2043 
Q 4547 2003 4500 2003 
L 2619 2003 
L 2619 256 
L 4500 256 
Q 4547 256 4581 215 
Q 4616 175 4616 128 
Q 4616 75 4581 37 
Q 4547 0 4500 0 
L 481 0 
z
" transform="scale(0.015625)"/>
      <path id="Cmmi10-be" d="M 1197 -72 
Q 913 -72 692 64 
Q 472 200 351 431 
Q 231 663 231 941 
Q 231 1238 365 1566 
Q 500 1894 733 2166 
Q 966 2438 1259 2598 
Q 1553 2759 1863 2759 
L 3475 2759 
Q 3541 2759 3587 2715 
Q 3634 2672 3634 2597 
Q 3634 2503 3567 2433 
Q 3500 2363 3406 2363 
L 2625 2363 
Q 2809 2088 2809 1697 
Q 2809 1375 2684 1062 
Q 2559 750 2337 492 
Q 2116 234 1820 81 
Q 1525 -72 1197 -72 
z
M 1203 97 
Q 1553 97 1823 370 
Q 2094 644 2237 1039 
Q 2381 1434 2381 1772 
Q 2381 2047 2229 2205 
Q 2078 2363 1806 2363 
Q 1434 2363 1173 2113 
Q 913 1863 783 1484 
Q 653 1106 653 756 
Q 653 481 798 289 
Q 944 97 1203 97 
z
" transform="scale(0.015625)"/>
     </defs>
     <use xlink:href="#Cmmi10-b9" transform="translate(0 0.390625)"/>
     <use xlink:href="#Cmsy10-a7" transform="translate(77.763672 0.390625)"/>
     <use xlink:href="#Cmmi10-be" transform="translate(173.007812 0.390625)"/>
    </g>
   </g>
  </g>
 </g>
 <defs>
  <clipPath id="p9e52864367">
   <rect x="50.9" y="12.96" width="224.14" height="157.765"/>
  </clipPath>
 </defs>
</svg>
