<?xml version="1.0" encoding="utf-8" standalone="no"?>
<!DOCTYPE svg PUBLIC "-//W3C//DTD SVG 1.1//EN"
  "http://www.w3.org/Graphics/SVG/1.1/DTD/svg11.dtd">
<svg xmlns:xlink="http://www.w3.org/1999/xlink" width="288pt" height="432pt" viewBox="0 0 288 432" xmlns="http://www.w3.org/2000/svg" version="1.1">
 <metadata>
  <rdf:RDF xmlns:dc="http://purl.org/dc/elements/1.1/" xmlns:cc="http://creativecommons.org/ns#" xmlns:rdf="http://www.w3.org/1999/02/22-rdf-syntax-ns#">
   <cc:Work>
    <dc:type rdf:resource="http://purl.org/dc/dcmitype/StillImage"/>
    <dc:date>2022-05-18T22:35:25.764363</dc:date>
    <dc:format>image/svg+xml</dc:format>
    <dc:creator>
     <cc:Agent>
      <dc:title>Matplotlib v3.5.1, https://matplotlib.org/</dc:title>
     </cc:Agent>
    </dc:creator>
   </cc:Work>
  </rdf:RDF>
 </metadata>
 <defs>
  <style type="text/css">*{stroke-linejoin: round; stroke-linecap: butt}</style>
 </defs>
 <g id="figure_1">
  <g id="patch_1">
   <path d="M 0 432 
L 288 432 
L 288 0 
L 0 0 
L 0 432 
z
" style="fill: none"/>
  </g>
  <g id="axes_1">
   <g id="patch_2">
    <path d="M 27.6175 132.340833 
L 275.04 132.340833 
L 275.04 27.28875 
L 27.6175 27.28875 
L 27.6175 132.340833 
z
" style="fill: none"/>
   </g>
   <g id="matplotlib.axis_1"/>
   <g id="matplotlib.axis_2">
    <g id="text_1">
     <!-- distribution -->
     <g transform="translate(21.28875 112.424792)rotate(-90)scale(0.12 -0.12)">
      <defs>
       <path id="LMRoman8-Regular-64" d="M 3546 0 
L 3546 211 
C 3110 211 3059 256 3059 570 
L 3059 4442 
L 2106 4371 
L 2106 4160 
C 2541 4160 2592 4115 2592 3802 
L 2592 2451 
C 2368 2694 2067 2822 1734 2822 
C 934 2822 224 2202 224 1376 
C 224 589 864 -64 1670 -64 
C 2048 -64 2362 115 2573 339 
L 2573 -64 
L 3546 0 
z
M 2573 794 
C 2573 678 2573 653 2477 525 
C 2298 269 2003 115 1702 115 
C 1408 115 1152 269 998 506 
C 826 755 794 1069 794 1370 
C 794 1741 851 2003 998 2227 
C 1152 2464 1440 2643 1766 2643 
C 2074 2643 2381 2490 2573 2157 
L 2573 794 
z
" transform="scale(0.015625)"/>
       <path id="LMRoman8-Regular-69" d="M 1664 0 
L 1664 211 
C 1248 211 1222 243 1222 493 
L 1222 2822 
L 288 2752 
L 288 2541 
C 698 2541 755 2502 755 2189 
L 755 499 
C 755 211 678 211 269 211 
L 269 0 
C 518 19 877 19 973 19 
C 1056 19 1440 19 1664 0 
z
M 1299 3853 
C 1299 4064 1133 4211 947 4211 
C 762 4211 595 4064 595 3853 
C 595 3667 742 3501 947 3501 
C 1146 3501 1299 3667 1299 3853 
z
" transform="scale(0.015625)"/>
       <path id="LMRoman8-Regular-73" d="M 2451 826 
C 2451 1133 2266 1581 1504 1722 
C 1453 1734 1094 1798 1069 1798 
C 870 1843 570 1978 570 2234 
C 570 2426 710 2694 1318 2694 
C 2035 2694 2067 2170 2080 1990 
C 2086 1939 2131 1920 2176 1920 
C 2278 1920 2278 1965 2278 2086 
L 2278 2688 
C 2278 2790 2278 2854 2195 2854 
C 2163 2854 2144 2854 2042 2752 
C 2029 2746 1971 2688 1952 2688 
C 1952 2688 1933 2688 1894 2714 
C 1792 2784 1606 2854 1318 2854 
C 422 2854 224 2368 224 2061 
C 224 1741 461 1555 480 1536 
C 736 1344 883 1318 1312 1242 
C 1613 1184 2106 1094 2106 659 
C 2106 410 1939 115 1350 115 
C 704 115 518 614 435 954 
C 410 1037 403 1069 326 1069 
C 224 1069 224 1018 224 896 
L 224 102 
C 224 0 224 -64 307 -64 
C 346 -64 352 -58 467 64 
C 499 96 570 179 602 211 
C 890 -51 1190 -64 1357 -64 
C 2170 -64 2451 403 2451 826 
z
" transform="scale(0.015625)"/>
       <path id="LMRoman8-Regular-74" d="M 2259 800 
L 2259 1158 
L 2061 1158 
L 2061 813 
C 2061 371 1862 134 1619 134 
C 1190 134 1190 685 1190 787 
L 1190 2547 
L 2144 2547 
L 2144 2758 
L 1190 2758 
L 1190 3936 
L 992 3936 
C 986 3354 723 2746 128 2726 
L 128 2547 
L 704 2547 
L 704 800 
C 704 51 1280 -64 1574 -64 
C 2003 -64 2259 320 2259 800 
z
" transform="scale(0.015625)"/>
       <path id="LMRoman8-Regular-72" d="M 2458 2419 
C 2458 2643 2253 2822 1971 2822 
C 1555 2822 1274 2509 1139 2150 
L 1133 2150 
L 1133 2822 
L 224 2752 
L 224 2541 
C 659 2541 710 2496 710 2182 
L 710 499 
C 710 211 634 211 224 211 
L 224 0 
C 474 19 826 19 979 19 
C 1357 19 1370 19 1786 0 
L 1786 211 
L 1658 211 
C 1190 211 1178 282 1178 512 
L 1178 1459 
C 1178 1939 1376 2630 1990 2643 
C 1952 2618 1888 2566 1888 2419 
C 1888 2221 2042 2131 2170 2131 
C 2323 2131 2458 2234 2458 2419 
z
" transform="scale(0.015625)"/>
       <path id="LMRoman8-Regular-62" d="M 3546 1382 
C 3546 2189 2886 2822 2106 2822 
C 1600 2822 1286 2547 1178 2432 
L 1178 4442 
L 224 4371 
L 224 4160 
C 659 4160 710 4115 710 3802 
L 710 0 
L 909 0 
L 1139 397 
C 1293 179 1594 -64 2029 -64 
C 2842 -64 3546 563 3546 1382 
z
M 2976 1389 
C 2976 1242 2976 787 2746 486 
C 2515 198 2214 115 2003 115 
C 1696 115 1440 275 1274 525 
C 1197 646 1197 653 1197 774 
L 1197 2022 
C 1197 2144 1197 2157 1293 2272 
C 1478 2509 1779 2643 2067 2643 
C 2400 2643 2650 2445 2778 2253 
C 2886 2080 2976 1856 2976 1389 
z
" transform="scale(0.015625)"/>
       <path id="LMRoman8-Regular-75" d="M 3597 0 
L 3597 211 
C 3162 211 3110 256 3110 570 
L 3110 2822 
L 2138 2752 
L 2138 2541 
C 2573 2541 2624 2496 2624 2182 
L 2624 1069 
C 2624 518 2291 115 1811 115 
C 1261 115 1235 390 1235 710 
L 1235 2822 
L 262 2752 
L 262 2541 
C 749 2541 749 2522 749 1952 
L 749 992 
C 749 531 749 -64 1773 -64 
C 2374 -64 2605 397 2637 454 
L 2643 454 
L 2643 -64 
L 3597 0 
z
" transform="scale(0.015625)"/>
       <path id="LMRoman8-Regular-6f" d="M 3200 1363 
C 3200 2163 2541 2854 1696 2854 
C 851 2854 192 2163 192 1363 
C 192 563 877 -64 1696 -64 
C 2522 -64 3200 563 3200 1363 
z
M 2630 1421 
C 2630 1126 2618 774 2438 506 
C 2266 250 1978 134 1696 134 
C 1350 134 1082 301 941 525 
C 781 787 762 1101 762 1421 
C 762 1664 762 2048 960 2323 
C 1126 2547 1395 2675 1696 2675 
C 2029 2675 2304 2515 2451 2291 
C 2624 2022 2630 1677 2630 1421 
z
" transform="scale(0.015625)"/>
       <path id="LMRoman8-Regular-6e" d="M 3597 0 
L 3597 211 
C 3187 211 3110 211 3110 499 
L 3110 1939 
C 3110 2477 2867 2822 2195 2822 
C 1562 2822 1274 2362 1197 2208 
L 1190 2208 
L 1190 2822 
L 262 2752 
L 262 2541 
C 698 2541 749 2496 749 2182 
L 749 499 
C 749 211 672 211 262 211 
L 262 0 
C 538 19 819 19 992 19 
C 1178 19 1446 19 1722 0 
L 1722 211 
C 1312 211 1235 211 1235 499 
L 1235 1658 
C 1235 2330 1747 2643 2138 2643 
C 2528 2643 2624 2368 2624 1965 
L 2624 499 
C 2624 211 2547 211 2138 211 
L 2138 0 
C 2413 19 2694 19 2867 19 
C 3053 19 3322 19 3597 0 
z
" transform="scale(0.015625)"/>
      </defs>
      <use xlink:href="#LMRoman8-Regular-64"/>
      <use xlink:href="#LMRoman8-Regular-69" x="58.999985"/>
      <use xlink:href="#LMRoman8-Regular-73" x="88.499969"/>
      <use xlink:href="#LMRoman8-Regular-74" x="130.399963"/>
      <use xlink:href="#LMRoman8-Regular-72" x="171.699951"/>
      <use xlink:href="#LMRoman8-Regular-69" x="213.099945"/>
      <use xlink:href="#LMRoman8-Regular-62" x="242.59993"/>
      <use xlink:href="#LMRoman8-Regular-75" x="301.599915"/>
      <use xlink:href="#LMRoman8-Regular-74" x="360.599899"/>
      <use xlink:href="#LMRoman8-Regular-69" x="401.899887"/>
      <use xlink:href="#LMRoman8-Regular-6f" x="431.399872"/>
      <use xlink:href="#LMRoman8-Regular-6e" x="484.499863"/>
     </g>
    </g>
   </g>
   <g id="line2d_1">
    <path d="M 38.863977 126.50504 
L 43.385174 125.86929 
L 46.776072 125.193724 
L 50.16697 124.297083 
L 53.557867 123.1266 
L 56.948765 121.62408 
L 59.209363 120.407554 
L 61.469962 118.997536 
L 63.73056 117.375874 
L 65.991159 115.525389 
L 68.251757 113.430543 
L 70.512356 111.078166 
L 72.772954 108.458239 
L 75.033552 105.564695 
L 77.294151 102.396212 
L 80.685049 97.138792 
L 84.075946 91.314354 
L 87.466844 84.998665 
L 91.988041 76.013645 
L 102.160734 55.401116 
L 105.551631 49.153617 
L 107.81223 45.357932 
L 110.072828 41.933871 
L 112.333427 38.94196 
L 114.594025 36.436528 
L 116.854624 34.464072 
L 117.984923 33.689742 
L 119.115222 33.061824 
L 120.245521 32.583335 
L 121.375821 32.256579 
L 122.50612 32.083136 
L 123.636419 32.063845 
L 124.766718 32.1988 
L 125.897017 32.487347 
L 127.027317 32.928091 
L 128.157616 33.518906 
L 129.287915 34.256954 
L 131.548514 36.159966 
L 133.809112 38.601142 
L 136.06971 41.535069 
L 138.330309 44.90831 
L 140.590907 48.66102 
L 143.981805 54.859694 
L 148.503002 63.83226 
L 158.675695 84.453449 
L 162.066593 90.805501 
L 165.45749 96.674274 
L 168.848388 101.980964 
L 171.108986 105.18364 
L 173.369585 108.111585 
L 175.630183 110.765473 
L 177.890782 113.150819 
L 180.15138 115.277193 
L 182.411979 117.157414 
L 184.672577 118.806766 
L 186.933176 120.242261 
L 189.193774 121.481963 
L 191.454372 122.544389 
L 194.84527 123.845895 
L 198.236168 124.849879 
L 201.627065 125.61155 
L 206.148262 126.333952 
L 210.669459 126.809181 
L 216.320955 127.169144 
L 224.23305 127.415842 
L 236.666341 127.538276 
L 263.793523 127.565739 
L 263.793523 127.565739 
" clip-path="url(#pf60a91bc86)" style="fill: none; stroke: #000000; stroke-linecap: square"/>
   </g>
   <g id="line2d_2">
    <path d="M 123.212557 132.340833 
L 123.212557 27.28875 
" clip-path="url(#pf60a91bc86)" style="fill: none; stroke-dasharray: 1,1.65; stroke-dashoffset: 0; stroke: #000000"/>
   </g>
   <g id="line2d_3">
    <path d="M 38.863977 125.467818 
L 46.776072 124.612638 
L 53.557867 123.668958 
L 60.339663 122.498011 
L 67.121458 121.070409 
L 72.772954 119.666272 
L 78.42445 118.055164 
L 84.075946 116.230561 
L 89.727442 114.191698 
L 95.378938 111.944702 
L 102.160734 108.993868 
L 108.942529 105.804469 
L 117.984923 101.285516 
L 137.20001 91.551536 
L 143.981805 88.421807 
L 149.633301 86.070538 
L 154.154498 84.403283 
L 158.675695 82.958338 
L 163.196892 81.76208 
L 167.718089 80.836802 
L 172.239286 80.20002 
L 175.630183 79.919308 
L 179.021081 79.8109 
L 182.411979 79.875975 
L 185.802876 80.113824 
L 189.193774 80.521864 
L 193.714971 81.322778 
L 198.236168 82.402959 
L 202.757365 83.742125 
L 207.278562 85.315594 
L 211.799758 87.095042 
L 217.451255 89.561397 
L 224.23305 92.790211 
L 234.405743 97.945388 
L 249.099633 105.39176 
L 257.011727 109.121926 
L 263.793523 112.061812 
L 263.793523 112.061812 
" clip-path="url(#pf60a91bc86)" style="fill: none; stroke: #1f77b4; stroke-linecap: square"/>
   </g>
   <g id="line2d_4">
    <path d="M 179.444943 132.340833 
L 179.444943 27.28875 
" clip-path="url(#pf60a91bc86)" style="fill: none; stroke-dasharray: 1,1.65; stroke-dashoffset: 0; stroke: #1f77b4"/>
   </g>
   <g id="patch_3">
    <path d="M 27.6175 132.340833 
L 27.6175 27.28875 
" style="fill: none; stroke: #000000; stroke-width: 0.5; stroke-linejoin: miter; stroke-linecap: square"/>
   </g>
   <g id="patch_4">
    <path d="M 27.6175 132.340833 
L 275.04 132.340833 
" style="fill: none; stroke: #000000; stroke-width: 0.5; stroke-linejoin: miter; stroke-linecap: square"/>
   </g>
   <g id="text_2">
    <!-- Nombre faible d'échantillons -->
    <g transform="translate(71.636562 21.28875)scale(0.12 -0.12)">
     <defs>
      <path id="LMRoman8-Regular-4e" d="M 4806 4160 
L 4806 4371 
C 4518 4352 4218 4352 4051 4352 
C 3885 4352 3584 4352 3296 4371 
L 3296 4160 
C 3942 4160 3942 3853 3942 3686 
L 3942 954 
L 1555 4275 
C 1485 4365 1478 4371 1350 4371 
L 282 4371 
L 282 4160 
L 461 4160 
C 576 4160 627 4160 755 4147 
C 922 4128 928 4122 928 4000 
L 928 685 
C 928 518 928 211 282 211 
L 282 0 
C 570 19 870 19 1037 19 
C 1203 19 1504 19 1792 0 
L 1792 211 
C 1146 211 1146 518 1146 685 
L 1146 3949 
L 3917 96 
C 3974 19 3987 0 4051 0 
C 4160 0 4160 64 4160 179 
L 4160 3686 
C 4160 3853 4160 4160 4806 4160 
z
" transform="scale(0.015625)"/>
      <path id="LMRoman8-Regular-6d" d="M 5485 0 
L 5485 211 
C 5075 211 4998 211 4998 499 
L 4998 1939 
C 4998 2458 4774 2822 4077 2822 
C 3488 2822 3194 2419 3091 2234 
C 2976 2694 2611 2822 2195 2822 
C 1574 2822 1280 2381 1197 2208 
L 1190 2208 
L 1190 2822 
L 262 2752 
L 262 2541 
C 698 2541 749 2496 749 2182 
L 749 499 
C 749 211 672 211 262 211 
L 262 0 
C 538 19 819 19 992 19 
C 1178 19 1446 19 1722 0 
L 1722 211 
C 1312 211 1235 211 1235 499 
L 1235 1658 
C 1235 2330 1741 2643 2144 2643 
C 2560 2643 2630 2317 2630 1965 
L 2630 499 
C 2630 211 2554 211 2144 211 
L 2144 0 
C 2419 19 2701 19 2874 19 
C 3059 19 3328 19 3603 0 
L 3603 211 
C 3194 211 3117 211 3117 499 
L 3117 1658 
C 3117 2330 3622 2643 4026 2643 
C 4442 2643 4512 2317 4512 1965 
L 4512 499 
C 4512 211 4435 211 4026 211 
L 4026 0 
C 4301 19 4582 19 4755 19 
C 4941 19 5210 19 5485 0 
z
" transform="scale(0.015625)"/>
      <path id="LMRoman8-Regular-65" d="M 2822 768 
C 2822 794 2803 858 2720 858 
C 2650 858 2637 813 2624 774 
C 2394 154 1843 134 1728 134 
C 1440 134 1146 269 954 563 
C 762 858 762 1267 762 1459 
L 2643 1459 
C 2784 1459 2822 1459 2822 1606 
C 2822 2176 2509 2854 1606 2854 
C 813 2854 192 2195 192 1402 
C 192 576 883 -64 1690 -64 
C 2502 -64 2822 621 2822 768 
z
M 2387 1626 
L 768 1626 
C 826 2522 1370 2675 1606 2675 
C 2355 2675 2381 1773 2387 1626 
z
" transform="scale(0.015625)"/>
      <path id="LMRoman8-Regular-20" transform="scale(0.015625)"/>
      <path id="LMRoman8-Regular-66" d="M 2413 4045 
C 2413 4320 2144 4506 1805 4506 
C 1325 4506 755 4160 755 3475 
L 755 2758 
L 230 2758 
L 230 2547 
L 755 2547 
L 755 499 
C 755 211 678 211 269 211 
L 269 0 
C 518 19 870 19 1024 19 
C 1402 19 1414 19 1830 0 
L 1830 211 
L 1702 211 
C 1235 211 1222 282 1222 512 
L 1222 2547 
L 1990 2547 
L 1990 2758 
L 1203 2758 
L 1203 3482 
C 1203 4038 1517 4326 1798 4326 
C 1901 4326 1958 4301 1984 4294 
C 1869 4237 1837 4128 1837 4045 
C 1837 3878 1958 3757 2125 3757 
C 2298 3757 2413 3878 2413 4045 
z
" transform="scale(0.015625)"/>
      <path id="LMRoman8-Regular-61" d="M 3290 576 
L 3290 928 
L 3091 928 
L 3091 576 
C 3091 314 2995 211 2861 211 
C 2624 211 2624 506 2624 576 
L 2624 1907 
C 2624 2534 2016 2854 1434 2854 
C 902 2854 429 2650 429 2227 
C 429 2035 563 1920 730 1920 
C 909 1920 1030 2048 1030 2221 
C 1030 2374 934 2483 794 2515 
C 1030 2675 1376 2675 1421 2675 
C 1779 2675 2138 2426 2138 1901 
L 2138 1702 
C 1766 1683 1338 1664 890 1478 
C 326 1235 218 864 218 653 
C 218 102 864 -64 1306 -64 
C 1773 -64 2061 198 2202 454 
C 2234 211 2400 -32 2682 -32 
C 2746 -32 3290 -6 3290 576 
z
M 2138 902 
C 2138 282 1613 115 1357 115 
C 1024 115 742 339 742 646 
C 742 1069 1139 1504 2138 1536 
L 2138 902 
z
" transform="scale(0.015625)"/>
      <path id="LMRoman8-Regular-6c" d="M 1709 0 
L 1709 211 
C 1299 211 1222 211 1222 499 
L 1222 4442 
L 269 4371 
L 269 4160 
C 704 4160 755 4115 755 3802 
L 755 499 
C 755 211 678 211 269 211 
L 269 0 
C 518 19 877 19 986 19 
C 1114 19 1459 19 1709 0 
z
" transform="scale(0.015625)"/>
      <path id="LMRoman8-Regular-27" d="M 1190 4262 
C 1197 4397 1082 4506 947 4506 
C 806 4506 691 4397 704 4262 
L 845 2707 
L 1050 2707 
L 1190 4262 
z
" transform="scale(0.015625)"/>
      <path id="LMRoman8-Regular-e9" d="M 2822 768 
C 2822 794 2803 858 2720 858 
C 2650 858 2637 813 2624 774 
C 2394 154 1843 134 1728 134 
C 1440 134 1146 269 954 563 
C 762 858 762 1267 762 1459 
L 2643 1459 
C 2784 1459 2822 1459 2822 1606 
C 2822 2176 2509 2854 1606 2854 
C 813 2854 192 2195 192 1402 
C 192 576 883 -64 1690 -64 
C 2502 -64 2822 621 2822 768 
z
M 2387 1626 
L 768 1626 
C 826 2522 1370 2675 1606 2675 
C 2355 2675 2381 1773 2387 1626 
z
M 2355 4211 
C 2355 4358 2221 4467 2106 4467 
C 2080 4467 1990 4467 1907 4365 
L 1088 3392 
L 1222 3245 
L 2227 4000 
C 2298 4051 2355 4109 2355 4211 
z
" transform="scale(0.015625)"/>
      <path id="LMRoman8-Regular-63" d="M 2822 768 
C 2822 845 2739 845 2720 845 
C 2675 845 2643 838 2624 774 
C 2579 640 2400 134 1760 134 
C 1363 134 794 442 794 1389 
C 794 2310 1267 2656 1734 2656 
C 1792 2656 2131 2656 2355 2541 
C 2176 2483 2150 2336 2150 2259 
C 2150 2086 2272 1958 2451 1958 
C 2618 1958 2752 2074 2752 2266 
C 2752 2662 2317 2854 1715 2854 
C 826 2854 224 2144 224 1382 
C 224 570 890 -64 1696 -64 
C 2598 -64 2822 691 2822 768 
z
" transform="scale(0.015625)"/>
      <path id="LMRoman8-Regular-68" d="M 3597 0 
L 3597 211 
C 3187 211 3110 211 3110 499 
L 3110 1939 
C 3110 2477 2867 2822 2195 2822 
C 1632 2822 1338 2464 1222 2259 
L 1216 2259 
L 1216 4442 
L 262 4371 
L 262 4160 
C 698 4160 749 4115 749 3802 
L 749 499 
C 749 211 672 211 262 211 
L 262 0 
C 538 19 819 19 992 19 
C 1178 19 1446 19 1722 0 
L 1722 211 
C 1312 211 1235 211 1235 499 
L 1235 1658 
C 1235 2330 1747 2643 2138 2643 
C 2528 2643 2624 2368 2624 1965 
L 2624 499 
C 2624 211 2547 211 2138 211 
L 2138 0 
C 2413 19 2694 19 2867 19 
C 3053 19 3322 19 3597 0 
z
" transform="scale(0.015625)"/>
     </defs>
     <use xlink:href="#LMRoman8-Regular-4e"/>
     <use xlink:href="#LMRoman8-Regular-6f" x="79.599991"/>
     <use xlink:href="#LMRoman8-Regular-6d" x="132.699982"/>
     <use xlink:href="#LMRoman8-Regular-62" x="221.199966"/>
     <use xlink:href="#LMRoman8-Regular-72" x="280.199951"/>
     <use xlink:href="#LMRoman8-Regular-65" x="321.599945"/>
     <use xlink:href="#LMRoman8-Regular-20" x="368.799942"/>
     <use xlink:href="#LMRoman8-Regular-66" x="404.199936"/>
     <use xlink:href="#LMRoman8-Regular-61" x="436.699921"/>
     <use xlink:href="#LMRoman8-Regular-69" x="489.799911"/>
     <use xlink:href="#LMRoman8-Regular-62" x="519.299896"/>
     <use xlink:href="#LMRoman8-Regular-6c" x="578.299881"/>
     <use xlink:href="#LMRoman8-Regular-65" x="607.799866"/>
     <use xlink:href="#LMRoman8-Regular-20" x="654.999863"/>
     <use xlink:href="#LMRoman8-Regular-64" x="690.399857"/>
     <use xlink:href="#LMRoman8-Regular-27" x="749.399841"/>
     <use xlink:href="#LMRoman8-Regular-e9" x="778.899826"/>
     <use xlink:href="#LMRoman8-Regular-63" x="826.099823"/>
     <use xlink:href="#LMRoman8-Regular-68" x="873.29982"/>
     <use xlink:href="#LMRoman8-Regular-61" x="932.299805"/>
     <use xlink:href="#LMRoman8-Regular-6e" x="985.399796"/>
     <use xlink:href="#LMRoman8-Regular-74" x="1044.39978"/>
     <use xlink:href="#LMRoman8-Regular-69" x="1085.699768"/>
     <use xlink:href="#LMRoman8-Regular-6c" x="1115.199753"/>
     <use xlink:href="#LMRoman8-Regular-6c" x="1144.699738"/>
     <use xlink:href="#LMRoman8-Regular-6f" x="1174.199722"/>
     <use xlink:href="#LMRoman8-Regular-6e" x="1227.299713"/>
     <use xlink:href="#LMRoman8-Regular-73" x="1286.299698"/>
    </g>
   </g>
  </g>
  <g id="axes_2">
   <g id="patch_5">
    <path d="M 27.6175 268.301667 
L 275.04 268.301667 
L 275.04 163.249583 
L 27.6175 163.249583 
L 27.6175 268.301667 
z
" style="fill: none"/>
   </g>
   <g id="matplotlib.axis_3"/>
   <g id="matplotlib.axis_4">
    <g id="text_3">
     <!-- distribution -->
     <g transform="translate(21.28875 248.385625)rotate(-90)scale(0.12 -0.12)">
      <use xlink:href="#LMRoman8-Regular-64"/>
      <use xlink:href="#LMRoman8-Regular-69" x="58.999985"/>
      <use xlink:href="#LMRoman8-Regular-73" x="88.499969"/>
      <use xlink:href="#LMRoman8-Regular-74" x="130.399963"/>
      <use xlink:href="#LMRoman8-Regular-72" x="171.699951"/>
      <use xlink:href="#LMRoman8-Regular-69" x="213.099945"/>
      <use xlink:href="#LMRoman8-Regular-62" x="242.59993"/>
      <use xlink:href="#LMRoman8-Regular-75" x="301.599915"/>
      <use xlink:href="#LMRoman8-Regular-74" x="360.599899"/>
      <use xlink:href="#LMRoman8-Regular-69" x="401.899887"/>
      <use xlink:href="#LMRoman8-Regular-6f" x="431.399872"/>
      <use xlink:href="#LMRoman8-Regular-6e" x="484.499863"/>
     </g>
    </g>
   </g>
   <g id="line2d_5">
    <path d="M 38.863977 263.526571 
L 70.512356 263.441728 
L 75.033552 263.257568 
L 78.42445 262.929354 
L 80.685049 262.542535 
L 82.945647 261.946561 
L 85.206245 261.0544 
L 87.466844 259.757215 
L 88.597143 258.917108 
L 89.727442 257.926082 
L 90.857742 256.765833 
L 91.988041 255.417806 
L 93.11834 253.863662 
L 94.248639 252.085846 
L 95.378938 250.068224 
L 96.509238 247.796799 
L 98.769836 242.451875 
L 101.030435 236.011524 
L 103.291033 228.520026 
L 105.551631 220.125718 
L 108.942529 206.44898 
L 112.333427 192.704994 
L 114.594025 184.350347 
L 115.724324 180.618245 
L 116.854624 177.269636 
L 117.984923 174.364037 
L 119.115222 171.954445 
L 120.245521 170.085738 
L 121.375821 168.793281 
L 122.50612 168.101818 
L 123.636419 168.024678 
L 124.766718 168.563352 
L 125.897017 169.707445 
L 127.027317 171.435006 
L 128.157616 173.713234 
L 129.287915 176.49951 
L 130.418214 179.74272 
L 132.678813 187.362552 
L 134.939411 196.056771 
L 141.721207 223.365212 
L 143.981805 231.445553 
L 146.242403 238.554307 
L 148.503002 244.584052 
L 150.7636 249.524651 
L 151.8939 251.604511 
L 153.024199 253.440837 
L 154.154498 255.049297 
L 155.284797 256.447155 
L 156.415097 257.652608 
L 157.545396 258.684207 
L 159.805994 260.298914 
L 162.066593 261.430107 
L 164.327191 262.199612 
L 166.58779 262.708111 
L 169.978687 263.148868 
L 174.499884 263.40353 
L 181.281679 263.507728 
L 208.408861 263.526571 
L 263.793523 263.526572 
L 263.793523 263.526572 
" clip-path="url(#pbaac20fb4e)" style="fill: none; stroke: #000000; stroke-linecap: square"/>
   </g>
   <g id="line2d_6">
    <path d="M 123.212557 268.301667 
L 123.212557 163.249583 
" clip-path="url(#pbaac20fb4e)" style="fill: none; stroke-dasharray: 1,1.65; stroke-dashoffset: 0; stroke: #000000"/>
   </g>
   <g id="line2d_7">
    <path d="M 38.863977 263.526394 
L 80.685049 263.426573 
L 90.857742 263.192758 
L 97.639537 262.833264 
L 103.291033 262.307181 
L 107.81223 261.665845 
L 112.333427 260.759679 
L 115.724324 259.86342 
L 119.115222 258.746872 
L 122.50612 257.380049 
L 125.897017 255.736499 
L 129.287915 253.796037 
L 132.678813 251.547724 
L 136.06971 248.992861 
L 139.460608 246.147717 
L 142.851506 243.045677 
L 147.372703 238.602074 
L 159.805994 226.09526 
L 163.196892 223.100484 
L 165.45749 221.314487 
L 167.718089 219.733602 
L 169.978687 218.386265 
L 172.239286 217.297292 
L 174.499884 216.48712 
L 176.760483 215.971166 
L 179.021081 215.759344 
L 181.281679 215.855744 
L 183.542278 216.258502 
L 185.802876 216.959863 
L 188.063475 217.946423 
L 190.324073 219.199561 
L 192.584672 220.696021 
L 194.84527 222.408629 
L 198.236168 225.315966 
L 201.627065 228.530475 
L 207.278562 234.259789 
L 214.060357 241.137317 
L 218.581554 245.394589 
L 221.972451 248.30779 
L 225.363349 250.937387 
L 228.754247 253.263001 
L 232.145144 255.279828 
L 235.536042 256.996023 
L 238.92694 258.429743 
L 242.317837 259.606144 
L 245.708735 260.554563 
L 249.099633 261.306076 
L 253.62083 262.054858 
L 258.142027 262.57604 
L 263.793523 262.995866 
L 263.793523 262.995866 
" clip-path="url(#pbaac20fb4e)" style="fill: none; stroke: #1f77b4; stroke-linecap: square"/>
   </g>
   <g id="line2d_8">
    <path d="M 179.444943 268.301667 
L 179.444943 163.249583 
" clip-path="url(#pbaac20fb4e)" style="fill: none; stroke-dasharray: 1,1.65; stroke-dashoffset: 0; stroke: #1f77b4"/>
   </g>
   <g id="patch_6">
    <path d="M 27.6175 268.301667 
L 27.6175 163.249583 
" style="fill: none; stroke: #000000; stroke-width: 0.5; stroke-linejoin: miter; stroke-linecap: square"/>
   </g>
   <g id="patch_7">
    <path d="M 27.6175 268.301667 
L 275.04 268.301667 
" style="fill: none; stroke: #000000; stroke-width: 0.5; stroke-linejoin: miter; stroke-linecap: square"/>
   </g>
   <g id="text_4">
    <!-- Nombre moyen d'échantillons -->
    <g transform="translate(68.450937 157.249583)scale(0.12 -0.12)">
     <defs>
      <path id="LMRoman8-Regular-79" d="M 3443 2547 
L 3443 2758 
C 3219 2739 3206 2739 2938 2739 
C 2912 2739 2573 2739 2387 2758 
L 2387 2547 
C 2573 2534 2662 2432 2662 2285 
C 2662 2246 2656 2202 2624 2125 
L 1939 576 
L 1197 2253 
C 1152 2349 1152 2362 1152 2387 
C 1152 2541 1350 2547 1491 2547 
L 1491 2758 
C 1203 2739 928 2739 787 2739 
C 653 2739 346 2739 141 2758 
L 141 2547 
C 474 2547 563 2534 672 2291 
L 1683 0 
C 1395 -678 1203 -1126 755 -1126 
C 595 -1126 493 -1050 493 -1050 
C 538 -1037 685 -966 685 -781 
C 685 -602 550 -506 410 -506 
C 282 -506 134 -589 134 -787 
C 134 -1069 410 -1306 755 -1306 
C 1325 -1306 1632 -621 1658 -557 
L 2835 2112 
C 2995 2477 3232 2541 3443 2547 
z
" transform="scale(0.015625)"/>
     </defs>
     <use xlink:href="#LMRoman8-Regular-4e"/>
     <use xlink:href="#LMRoman8-Regular-6f" x="79.599991"/>
     <use xlink:href="#LMRoman8-Regular-6d" x="132.699982"/>
     <use xlink:href="#LMRoman8-Regular-62" x="221.199966"/>
     <use xlink:href="#LMRoman8-Regular-72" x="280.199951"/>
     <use xlink:href="#LMRoman8-Regular-65" x="321.599945"/>
     <use xlink:href="#LMRoman8-Regular-20" x="368.799942"/>
     <use xlink:href="#LMRoman8-Regular-6d" x="404.199936"/>
     <use xlink:href="#LMRoman8-Regular-6f" x="492.699921"/>
     <use xlink:href="#LMRoman8-Regular-79" x="545.799911"/>
     <use xlink:href="#LMRoman8-Regular-65" x="601.899902"/>
     <use xlink:href="#LMRoman8-Regular-6e" x="649.099899"/>
     <use xlink:href="#LMRoman8-Regular-20" x="708.099884"/>
     <use xlink:href="#LMRoman8-Regular-64" x="743.499878"/>
     <use xlink:href="#LMRoman8-Regular-27" x="802.499863"/>
     <use xlink:href="#LMRoman8-Regular-e9" x="831.999847"/>
     <use xlink:href="#LMRoman8-Regular-63" x="879.199844"/>
     <use xlink:href="#LMRoman8-Regular-68" x="926.399841"/>
     <use xlink:href="#LMRoman8-Regular-61" x="985.399826"/>
     <use xlink:href="#LMRoman8-Regular-6e" x="1038.499817"/>
     <use xlink:href="#LMRoman8-Regular-74" x="1097.499802"/>
     <use xlink:href="#LMRoman8-Regular-69" x="1138.799789"/>
     <use xlink:href="#LMRoman8-Regular-6c" x="1168.299774"/>
     <use xlink:href="#LMRoman8-Regular-6c" x="1197.799759"/>
     <use xlink:href="#LMRoman8-Regular-6f" x="1227.299744"/>
     <use xlink:href="#LMRoman8-Regular-6e" x="1280.399734"/>
     <use xlink:href="#LMRoman8-Regular-73" x="1339.399719"/>
    </g>
   </g>
  </g>
  <g id="axes_3">
   <g id="patch_8">
    <path d="M 27.6175 404.2625 
L 275.04 404.2625 
L 275.04 299.210417 
L 27.6175 299.210417 
L 27.6175 404.2625 
z
" style="fill: none"/>
   </g>
   <g id="matplotlib.axis_5">
    <g id="text_5">
     <!-- valeur moyenne obtenue -->
     <g transform="translate(83.34875 416.59125)scale(0.12 -0.12)">
      <defs>
       <path id="LMRoman8-Regular-76" d="M 3443 2547 
L 3443 2758 
C 3219 2739 3206 2739 2944 2739 
C 2886 2739 2586 2739 2387 2758 
L 2387 2547 
C 2611 2534 2669 2394 2669 2285 
C 2669 2221 2656 2189 2630 2131 
L 1939 518 
L 1184 2253 
C 1146 2336 1146 2387 1146 2387 
C 1146 2547 1376 2547 1485 2547 
L 1485 2758 
C 1210 2739 909 2739 787 2739 
C 653 2739 346 2739 141 2758 
L 141 2547 
C 531 2547 563 2509 659 2291 
L 1619 77 
C 1664 -19 1702 -64 1792 -64 
C 1882 -64 1926 -13 1958 64 
L 2835 2099 
C 2989 2458 3206 2541 3443 2547 
z
" transform="scale(0.015625)"/>
      </defs>
      <use xlink:href="#LMRoman8-Regular-76"/>
      <use xlink:href="#LMRoman8-Regular-61" x="56.099991"/>
      <use xlink:href="#LMRoman8-Regular-6c" x="109.199982"/>
      <use xlink:href="#LMRoman8-Regular-65" x="138.699966"/>
      <use xlink:href="#LMRoman8-Regular-75" x="185.899963"/>
      <use xlink:href="#LMRoman8-Regular-72" x="244.899948"/>
      <use xlink:href="#LMRoman8-Regular-20" x="286.299942"/>
      <use xlink:href="#LMRoman8-Regular-6d" x="321.699936"/>
      <use xlink:href="#LMRoman8-Regular-6f" x="410.199921"/>
      <use xlink:href="#LMRoman8-Regular-79" x="463.299911"/>
      <use xlink:href="#LMRoman8-Regular-65" x="519.399902"/>
      <use xlink:href="#LMRoman8-Regular-6e" x="566.599899"/>
      <use xlink:href="#LMRoman8-Regular-6e" x="625.599884"/>
      <use xlink:href="#LMRoman8-Regular-65" x="684.599869"/>
      <use xlink:href="#LMRoman8-Regular-20" x="731.799866"/>
      <use xlink:href="#LMRoman8-Regular-6f" x="767.19986"/>
      <use xlink:href="#LMRoman8-Regular-62" x="820.29985"/>
      <use xlink:href="#LMRoman8-Regular-74" x="879.299835"/>
      <use xlink:href="#LMRoman8-Regular-65" x="920.599823"/>
      <use xlink:href="#LMRoman8-Regular-6e" x="967.79982"/>
      <use xlink:href="#LMRoman8-Regular-75" x="1026.799805"/>
      <use xlink:href="#LMRoman8-Regular-65" x="1085.799789"/>
     </g>
    </g>
   </g>
   <g id="matplotlib.axis_6">
    <g id="text_6">
     <!-- distribution -->
     <g transform="translate(21.28875 384.346458)rotate(-90)scale(0.12 -0.12)">
      <use xlink:href="#LMRoman8-Regular-64"/>
      <use xlink:href="#LMRoman8-Regular-69" x="58.999985"/>
      <use xlink:href="#LMRoman8-Regular-73" x="88.499969"/>
      <use xlink:href="#LMRoman8-Regular-74" x="130.399963"/>
      <use xlink:href="#LMRoman8-Regular-72" x="171.699951"/>
      <use xlink:href="#LMRoman8-Regular-69" x="213.099945"/>
      <use xlink:href="#LMRoman8-Regular-62" x="242.59993"/>
      <use xlink:href="#LMRoman8-Regular-75" x="301.599915"/>
      <use xlink:href="#LMRoman8-Regular-74" x="360.599899"/>
      <use xlink:href="#LMRoman8-Regular-69" x="401.899887"/>
      <use xlink:href="#LMRoman8-Regular-6f" x="431.399872"/>
      <use xlink:href="#LMRoman8-Regular-6e" x="484.499863"/>
     </g>
    </g>
   </g>
   <g id="line2d_9">
    <path d="M 38.863977 399.487405 
L 96.509238 399.417122 
L 98.769836 399.260936 
L 101.030435 398.829376 
L 102.160734 398.408414 
L 103.291033 397.763311 
L 104.421332 396.802839 
L 105.551631 395.414004 
L 106.681931 393.464441 
L 107.81223 390.80913 
L 108.942529 387.302375 
L 110.072828 382.815323 
L 111.203128 377.258241 
L 112.333427 370.60546 
L 113.463726 362.919523 
L 115.724324 345.242786 
L 117.984923 326.928005 
L 119.115222 318.760694 
L 120.245521 311.966686 
L 121.375821 307.023009 
L 122.50612 304.293698 
L 123.636419 303.985511 
L 124.766718 306.122046 
L 125.897017 310.540754 
L 127.027317 316.913377 
L 128.157616 324.786238 
L 133.809112 368.776148 
L 134.939411 375.697004 
L 136.06971 381.528661 
L 137.20001 386.276876 
L 138.330309 390.017742 
L 139.460608 392.872573 
L 140.590907 394.984703 
L 141.721207 396.500664 
L 142.851506 397.556806 
L 143.981805 398.271341 
L 145.112104 398.740972 
L 147.372703 399.227167 
L 149.633301 399.405591 
L 155.284797 399.484522 
L 240.057239 399.487405 
L 263.793523 399.487405 
L 263.793523 399.487405 
" clip-path="url(#p50b05f014f)" style="fill: none; stroke: #000000; stroke-linecap: square"/>
   </g>
   <g id="line2d_10">
    <path d="M 123.212557 404.2625 
L 123.212557 299.210417 
" clip-path="url(#p50b05f014f)" style="fill: none; stroke-dasharray: 1,1.65; stroke-dashoffset: 0; stroke: #000000"/>
   </g>
   <g id="line2d_11">
    <path d="M 38.863977 399.487405 
L 130.418214 399.378065 
L 134.939411 399.168678 
L 138.330309 398.82302 
L 140.590907 398.437742 
L 142.851506 397.871374 
L 145.112104 397.062919 
L 147.372703 395.942867 
L 149.633301 394.437657 
L 151.8939 392.476892 
L 154.154498 390.003221 
L 156.415097 386.984235 
L 158.675695 383.425008 
L 160.936293 379.379325 
L 164.327191 372.655295 
L 168.848388 363.479687 
L 171.108986 359.361851 
L 173.369585 355.914498 
L 174.499884 354.51946 
L 175.630183 353.378792 
L 176.760483 352.513832 
L 177.890782 351.941005 
L 179.021081 351.671301 
L 180.15138 351.709923 
L 181.281679 352.056127 
L 182.411979 352.703237 
L 183.542278 353.638865 
L 184.672577 354.845305 
L 185.802876 356.300087 
L 188.063475 359.845274 
L 190.324073 364.028297 
L 194.84527 373.234368 
L 198.236168 379.908441 
L 200.496766 383.898137 
L 202.757365 387.391684 
L 205.017963 390.341897 
L 207.278562 392.749049 
L 209.53916 394.649358 
L 211.799758 396.102423 
L 214.060357 397.179529 
L 216.320955 397.954064 
L 218.581554 398.494666 
L 221.972451 398.994715 
L 225.363349 399.256707 
L 231.014845 399.430168 
L 243.448137 399.485896 
L 263.793523 399.487405 
L 263.793523 399.487405 
" clip-path="url(#p50b05f014f)" style="fill: none; stroke: #1f77b4; stroke-linecap: square"/>
   </g>
   <g id="line2d_12">
    <path d="M 179.444943 404.2625 
L 179.444943 299.210417 
" clip-path="url(#p50b05f014f)" style="fill: none; stroke-dasharray: 1,1.65; stroke-dashoffset: 0; stroke: #1f77b4"/>
   </g>
   <g id="patch_9">
    <path d="M 27.6175 404.2625 
L 27.6175 299.210417 
" style="fill: none; stroke: #000000; stroke-width: 0.5; stroke-linejoin: miter; stroke-linecap: square"/>
   </g>
   <g id="patch_10">
    <path d="M 27.6175 404.2625 
L 275.04 404.2625 
" style="fill: none; stroke: #000000; stroke-width: 0.5; stroke-linejoin: miter; stroke-linecap: square"/>
   </g>
   <g id="text_7">
    <!-- Nombre élevé d'échantillons -->
    <g transform="translate(73.052187 293.210417)scale(0.12 -0.12)">
     <use xlink:href="#LMRoman8-Regular-4e"/>
     <use xlink:href="#LMRoman8-Regular-6f" x="79.599991"/>
     <use xlink:href="#LMRoman8-Regular-6d" x="132.699982"/>
     <use xlink:href="#LMRoman8-Regular-62" x="221.199966"/>
     <use xlink:href="#LMRoman8-Regular-72" x="280.199951"/>
     <use xlink:href="#LMRoman8-Regular-65" x="321.599945"/>
     <use xlink:href="#LMRoman8-Regular-20" x="368.799942"/>
     <use xlink:href="#LMRoman8-Regular-e9" x="404.199936"/>
     <use xlink:href="#LMRoman8-Regular-6c" x="451.399933"/>
     <use xlink:href="#LMRoman8-Regular-65" x="480.899918"/>
     <use xlink:href="#LMRoman8-Regular-76" x="528.099915"/>
     <use xlink:href="#LMRoman8-Regular-e9" x="584.199905"/>
     <use xlink:href="#LMRoman8-Regular-20" x="631.399902"/>
     <use xlink:href="#LMRoman8-Regular-64" x="666.799896"/>
     <use xlink:href="#LMRoman8-Regular-27" x="725.799881"/>
     <use xlink:href="#LMRoman8-Regular-e9" x="755.299866"/>
     <use xlink:href="#LMRoman8-Regular-63" x="802.499863"/>
     <use xlink:href="#LMRoman8-Regular-68" x="849.69986"/>
     <use xlink:href="#LMRoman8-Regular-61" x="908.699844"/>
     <use xlink:href="#LMRoman8-Regular-6e" x="961.799835"/>
     <use xlink:href="#LMRoman8-Regular-74" x="1020.79982"/>
     <use xlink:href="#LMRoman8-Regular-69" x="1062.099808"/>
     <use xlink:href="#LMRoman8-Regular-6c" x="1091.599792"/>
     <use xlink:href="#LMRoman8-Regular-6c" x="1121.099777"/>
     <use xlink:href="#LMRoman8-Regular-6f" x="1150.599762"/>
     <use xlink:href="#LMRoman8-Regular-6e" x="1203.699753"/>
     <use xlink:href="#LMRoman8-Regular-73" x="1262.699738"/>
    </g>
   </g>
  </g>
 </g>
 <defs>
  <clipPath id="pf60a91bc86">
   <rect x="27.6175" y="27.28875" width="247.4225" height="105.052083"/>
  </clipPath>
  <clipPath id="pbaac20fb4e">
   <rect x="27.6175" y="163.249583" width="247.4225" height="105.052083"/>
  </clipPath>
  <clipPath id="p50b05f014f">
   <rect x="27.6175" y="299.210417" width="247.4225" height="105.052083"/>
  </clipPath>
 </defs>
</svg>
