<?xml version="1.0" encoding="UTF-8" standalone="no"?>
<svg
   width="254.91159pt"
   height="71.376122pt"
   viewBox="0 0 254.91159 71.376122"
   version="1.1"
   id="svg185"
   sodipodi:docname="fig12.svg"
   inkscape:version="1.1.2 (0a00cf5, 2022-02-04)"
   xmlns:inkscape="http://www.inkscape.org/namespaces/inkscape"
   xmlns:sodipodi="http://sodipodi.sourceforge.net/DTD/sodipodi-0.dtd"
   xmlns:xlink="http://www.w3.org/1999/xlink"
   xmlns="http://www.w3.org/2000/svg"
   xmlns:svg="http://www.w3.org/2000/svg"
   xmlns:rdf="http://www.w3.org/1999/02/22-rdf-syntax-ns#"
   xmlns:cc="http://creativecommons.org/ns#"
   xmlns:dc="http://purl.org/dc/elements/1.1/">
  <sodipodi:namedview
     id="namedview187"
     pagecolor="#ffffff"
     bordercolor="#666666"
     borderopacity="1.0"
     inkscape:pageshadow="2"
     inkscape:pageopacity="0.0"
     inkscape:pagecheckerboard="0"
     inkscape:document-units="pt"
     showgrid="false"
     fit-margin-top="0"
     fit-margin-left="0"
     fit-margin-right="0"
     fit-margin-bottom="0"
     inkscape:zoom="2.5243056"
     inkscape:cx="153.70564"
     inkscape:cy="57.045392"
     inkscape:window-width="1920"
     inkscape:window-height="1036"
     inkscape:window-x="0"
     inkscape:window-y="25"
     inkscape:window-maximized="1"
     inkscape:current-layer="figure_1" />
  <metadata
     id="metadata2">
    <rdf:RDF>
      <cc:Work>
        <dc:type
           rdf:resource="http://purl.org/dc/dcmitype/StillImage" />
        <dc:date>2022-05-26T11:39:46.132747</dc:date>
        <dc:format>image/svg+xml</dc:format>
        <dc:creator>
          <cc:Agent>
            <dc:title>Matplotlib v3.5.1, https://matplotlib.org/</dc:title>
          </cc:Agent>
        </dc:creator>
      </cc:Work>
    </rdf:RDF>
  </metadata>
  <defs
     id="defs6">
    <style
       type="text/css"
       id="style4">*{stroke-linejoin: round; stroke-linecap: butt}</style>
  </defs>
  <g
     id="figure_1"
     transform="translate(-20.128443,-64.974057)">
    <g
       id="patch_1">
      <path
         d="M 0,216 H 288 V 0 H 0 Z"
         style="fill:none"
         id="path8" />
    </g>
    <g
       id="axes_1">
      <g
         id="patch_2">
        <path
           d="m 58.709905,108 c 0,-3.47227 -0.988256,-6.87387 -2.848793,-9.80561 -1.860538,-2.931739 -4.517617,-5.274268 -7.659425,-6.752691 -3.141808,-1.478422 -6.640444,-2.032552 -10.085339,-1.59736 -3.444894,0.435192 -6.695808,1.841988 -9.371241,4.055299 L 40.409943,108 Z"
           id="path11" />
      </g>
      <g
         id="patch_3">
        <path
           d="m 28.745107,93.899638 c -3.585219,2.965951 -5.907647,7.190432 -6.490826,11.806772 -0.583178,4.61633 0.615702,9.28566 3.350682,13.05004 L 40.409943,108 Z"
           style="fill:#1f77b4"
           id="path14" />
      </g>
      <g
         id="patch_4">
        <path
           d="m 25.604963,118.75645 c 2.271186,3.12602 5.475126,5.45382 9.149982,6.64785 3.674856,1.19403 7.635143,1.19403 11.309998,0 L 40.409943,108 Z"
           style="fill:#ff7f0e"
           id="path17" />
      </g>
      <g
         id="patch_5">
        <path
           d="m 46.064943,125.4043 c 1.459975,-0.47438 2.854476,-1.13058 4.150611,-1.95313 1.296135,-0.82255 2.483634,-1.80494 3.534488,-2.92398 L 40.409943,108 Z"
           style="fill:#2ca02c"
           id="path20" />
      </g>
      <g
         id="patch_6">
        <path
           d="m 53.750042,120.52719 c 1.050854,-1.11905 1.956736,-2.36589 2.69628,-3.71112 0.739544,-1.34522 1.30689,-2.77817 1.688656,-4.26505 L 40.409943,108 Z"
           style="fill:#d62728"
           id="path23" />
      </g>
      <g
         id="patch_7">
        <path
           d="m 58.134978,112.55102 c 0.190695,-0.74271 0.334521,-1.49668 0.430626,-2.25743 0.09611,-0.76075 0.144301,-1.52679 0.144301,-2.29359 H 40.409943 Z"
           style="fill:#9467bd"
           id="path26" />
      </g>
      <g
         id="patch_8">
        <path
           d="m 58.709905,108 c 0,0 0,0 0,0 H 40.409943 Z"
           style="fill:#8c564b"
           id="path29" />
      </g>
      <g
         id="matplotlib.axis_1" />
      <g
         id="matplotlib.axis_2" />
      <g
         id="text_1">
        <!-- jour 0 -->
        <g
           transform="matrix(0.144,0,0,-0.144,20.645943,74.550057)"
           id="g54">
          <defs
             id="defs40">
            <path
               id="LMRoman8-Regular-6a"
               d="M 1453,-294 V 2822 L 448,2752 v -211 c 480,0 538,-45 538,-359 V -307 c 0,-173 -26,-819 -468,-819 -96,0 -236,25 -320,57 39,13 173,96 173,275 0,173 -121,301 -301,301 -160,0 -300,-109 -300,-307 0,-326 358,-506 755,-506 512,0 928,410 928,1012 z m 0,4147 c 0,211 -167,358 -352,358 -186,0 -352,-147 -352,-358 0,-186 147,-352 352,-352 198,0 352,166 352,352 z"
               transform="scale(0.015625)" />
            <path
               id="LMRoman8-Regular-6f"
               d="m 3200,1363 c 0,800 -659,1491 -1504,1491 C 851,2854 192,2163 192,1363 192,563 877,-64 1696,-64 c 826,0 1504,627 1504,1427 z m -570,58 c 0,-295 -12,-647 -192,-915 -172,-256 -460,-372 -742,-372 -346,0 -614,167 -755,391 -160,262 -179,576 -179,896 0,243 0,627 198,902 166,224 435,352 736,352 333,0 608,-160 755,-384 173,-269 179,-614 179,-870 z"
               transform="scale(0.015625)" />
            <path
               id="LMRoman8-Regular-75"
               d="m 3597,0 v 211 c -435,0 -487,45 -487,359 v 2252 l -972,-70 v -211 c 435,0 486,-45 486,-359 V 1069 c 0,-551 -333,-954 -813,-954 -550,0 -576,275 -576,595 v 2112 l -973,-70 v -211 c 487,0 487,-19 487,-589 V 992 c 0,-461 0,-1056 1024,-1056 601,0 832,461 864,518 h 6 V -64 Z"
               transform="scale(0.015625)" />
            <path
               id="LMRoman8-Regular-72"
               d="m 2458,2419 c 0,224 -205,403 -487,403 -416,0 -697,-313 -832,-672 h -6 v 672 l -909,-70 v -211 c 435,0 486,-45 486,-359 V 499 C 710,211 634,211 224,211 V 0 c 250,19 602,19 755,19 378,0 391,0 807,-19 v 211 h -128 c -468,0 -480,71 -480,301 v 947 c 0,480 198,1171 812,1184 -38,-25 -102,-77 -102,-224 0,-198 154,-288 282,-288 153,0 288,103 288,288 z"
               transform="scale(0.015625)" />
            <path
               id="LMRoman8-Regular-20"
               transform="scale(0.015625)"
               d="" />
            <path
               id="LMRoman8-Regular-30"
               d="m 3130,2042 c 0,684 -71,1100 -282,1510 -282,563 -800,704 -1152,704 C 890,4256 595,3654 506,3475 275,3008 262,2374 262,2042 262,1619 282,973 589,461 c 294,-474 768,-595 1107,-595 307,0 858,96 1178,729 236,461 256,1031 256,1447 z m -570,76 c 0,-377 0,-953 -77,-1312 C 2349,134 1907,45 1696,45 c -218,0 -659,102 -794,774 -70,365 -70,967 -70,1299 0,442 0,890 70,1242 135,653 634,717 794,717 218,0 659,-109 787,-691 77,-352 77,-832 77,-1268 z"
               transform="scale(0.015625)" />
          </defs>
          <use
             xlink:href="#LMRoman8-Regular-6a"
             id="use42"
             x="0"
             y="0"
             width="100%"
             height="100%" />
          <use
             xlink:href="#LMRoman8-Regular-6f"
             x="32.499985"
             id="use44"
             y="0"
             width="100%"
             height="100%" />
          <use
             xlink:href="#LMRoman8-Regular-75"
             x="85.599976"
             id="use46"
             y="0"
             width="100%"
             height="100%" />
          <use
             xlink:href="#LMRoman8-Regular-72"
             x="144.59996"
             id="use48"
             y="0"
             width="100%"
             height="100%" />
          <use
             xlink:href="#LMRoman8-Regular-20"
             x="185.99995"
             id="use50"
             y="0"
             width="100%"
             height="100%" />
          <use
             xlink:href="#LMRoman8-Regular-30"
             x="221.39995"
             id="use52"
             y="0"
             width="100%"
             height="100%" />
        </g>
      </g>
    </g>
    <g
       id="axes_2">
      <g
         id="patch_9">
        <path
           d="m 130.51115,108 c 0,-2.9685 -0.61936,-5.90461 -1.8184,-8.620175 -1.19904,-2.715567 -2.95159,-5.151325 -5.14534,-7.151192 -2.19375,-1.999867 -4.78082,-3.520193 -7.59544,-4.463557 -2.81461,-0.943364 -5.79534,-1.289176 -8.75118,-1.015277 L 109.16991,108 Z"
           id="path58" />
      </g>
      <g
         id="patch_10">
        <path
           d="m 107.20079,86.749799 c -3.952,0.366207 -7.724577,1.827711 -10.89185,4.219526 -3.167274,2.391814 -5.6054,5.620416 -7.039142,9.321335 L 109.16991,108 Z"
           style="fill:#1f77b4"
           id="path61" />
      </g>
      <g
         id="patch_11">
        <path
           d="m 89.269798,100.29066 c -1.676477,4.32748 -1.896473,9.08594 -0.626437,13.54965 1.270037,4.46371 3.962084,8.39362 7.665583,11.19037 L 109.16991,108 Z"
           style="fill:#ff7f0e"
           id="path64" />
      </g>
      <g
         id="patch_12">
        <path
           d="m 96.308944,125.03068 c 1.576146,1.19025 3.309921,2.15595 5.151626,2.86943 1.8417,0.71348 3.77357,1.16785 5.74022,1.35009 L 109.16991,108 Z"
           style="fill:#2ca02c"
           id="path67" />
      </g>
      <g
         id="patch_13">
        <path
           d="m 107.20079,129.2502 c 3.28701,0.30459 6.6003,-0.1576 9.67847,-1.35009 3.07817,-1.19249 5.83809,-3.08308 8.06202,-5.52261 L 109.16991,108 Z"
           style="fill:#d62728"
           id="path70" />
      </g>
      <g
         id="patch_14">
        <path
           d="m 124.94128,122.3775 c 1.3306,-1.4596 2.45216,-3.09688 3.33253,-4.8649 0.88036,-1.76801 1.51105,-3.64971 1.87397,-5.59116 L 109.16991,108 Z"
           style="fill:#9467bd"
           id="path73" />
      </g>
      <g
         id="patch_15">
        <path
           d="m 130.14778,111.92144 c 0.1208,-0.64623 0.21167,-1.2977 0.27233,-1.95232 0.0607,-0.65462 0.091,-1.3117 0.091,-1.96912 h -21.34124 z"
           style="fill:#8c564b"
           id="path76" />
      </g>
      <g
         id="matplotlib.axis_3" />
      <g
         id="matplotlib.axis_4" />
      <g
         id="text_2">
        <!-- jour 1 -->
        <g
           transform="matrix(0.144,0,0,-0.144,89.405912,74.550057)"
           id="g96">
          <defs
             id="defs82">
            <path
               id="LMRoman8-Regular-31"
               d="m 2861,0 v 211 h -224 c -608,0 -627,77 -627,314 v 3552 c 0,173 -13,179 -186,179 -262,-256 -602,-410 -1210,-410 v -211 c 173,0 519,0 890,173 V 525 C 1504,288 1485,211 877,211 H 653 V 0 c 262,19 813,19 1101,19 288,0 844,0 1107,-19 z"
               transform="scale(0.015625)" />
          </defs>
          <use
             xlink:href="#LMRoman8-Regular-6a"
             id="use84"
             x="0"
             y="0"
             width="100%"
             height="100%" />
          <use
             xlink:href="#LMRoman8-Regular-6f"
             x="32.499985"
             id="use86"
             y="0"
             width="100%"
             height="100%" />
          <use
             xlink:href="#LMRoman8-Regular-75"
             x="85.599976"
             id="use88"
             y="0"
             width="100%"
             height="100%" />
          <use
             xlink:href="#LMRoman8-Regular-72"
             x="144.59996"
             id="use90"
             y="0"
             width="100%"
             height="100%" />
          <use
             xlink:href="#LMRoman8-Regular-20"
             x="185.99995"
             id="use92"
             y="0"
             width="100%"
             height="100%" />
          <use
             xlink:href="#LMRoman8-Regular-31"
             x="221.39995"
             id="use94"
             y="0"
             width="100%"
             height="100%" />
        </g>
      </g>
    </g>
    <g
       id="axes_3">
      <g
         id="patch_16">
        <path
           d="m 202.75316,108 c 0,-5.70538 -1.96699,-11.239943 -5.56758,-15.66567 -3.6006,-4.425726 -8.61921,-7.477611 -14.20525,-8.638404 L 177.92988,108 Z"
           id="path100" />
      </g>
      <g
         id="patch_17">
        <path
           d="m 182.98033,83.695926 c -3.89135,-0.808632 -7.92059,-0.67099 -11.74769,0.401312 -3.82709,1.072301 -7.34127,3.048224 -10.24596,5.761018 L 177.92988,108 Z"
           style="fill:#1f77b4"
           id="path103" />
      </g>
      <g
         id="patch_18">
        <path
           d="m 160.98668,89.858256 c -4.1697,3.894223 -6.87199,9.109401 -7.64887,14.761644 -0.77688,5.65223 0.41816,11.40309 3.38258,16.27787 L 177.92988,108 Z"
           style="fill:#ff7f0e"
           id="path106" />
      </g>
      <g
         id="patch_19">
        <path
           d="m 156.72039,120.89777 c 0.88163,1.44978 1.90959,2.80535 3.06774,4.04543 1.15816,1.24008 2.44042,2.35816 3.82665,3.33667 L 177.92988,108 Z"
           style="fill:#2ca02c"
           id="path109" />
      </g>
      <g
         id="patch_20">
        <path
           d="m 163.61478,128.27987 c 3.24703,2.292 6.99753,3.77101 10.93499,4.3122 3.93747,0.54119 7.94792,0.12891 11.69292,-1.20207 L 177.92988,108 Z"
           style="fill:#d62728"
           id="path112" />
      </g>
      <g
         id="patch_21">
        <path
           d="m 186.24269,131.39 c 2.13321,-0.75814 4.15272,-1.80456 6.00228,-3.11013 1.84957,-1.30556 3.51186,-2.85804 4.9406,-4.6142 L 177.92988,108 Z"
           style="fill:#9467bd"
           id="path115" />
      </g>
      <g
         id="patch_22">
        <path
           d="m 197.18557,123.66567 c 1.78748,-2.1971 3.18581,-4.68402 4.13431,-7.35286 0.94851,-2.66883 1.43328,-5.48043 1.43328,-8.3128 L 177.92988,108 Z"
           style="fill:#8c564b"
           id="path118" />
      </g>
      <g
         id="matplotlib.axis_5" />
      <g
         id="matplotlib.axis_6" />
      <g
         id="text_3">
        <!-- jour 2 -->
        <g
           transform="matrix(0.144,0,0,-0.144,158.16588,74.550057)"
           id="g138">
          <defs
             id="defs124">
            <path
               id="LMRoman8-Regular-32"
               d="m 3053,1146 h -199 c -19,-128 -70,-448 -147,-570 -38,-51 -525,-51 -627,-51 H 941 l 864,781 c 102,96 371,307 473,396 397,365 775,717 775,1300 0,761 -640,1254 -1440,1254 -768,0 -1274,-582 -1274,-1152 0,-314 250,-358 339,-358 135,0 333,96 333,339 0,333 -320,333 -397,333 186,467 615,627 928,627 596,0 903,-506 903,-1043 0,-666 -467,-1152 -1223,-1927 L 416,243 C 339,173 339,160 339,0 h 2528 z"
               transform="scale(0.015625)" />
          </defs>
          <use
             xlink:href="#LMRoman8-Regular-6a"
             id="use126"
             x="0"
             y="0"
             width="100%"
             height="100%" />
          <use
             xlink:href="#LMRoman8-Regular-6f"
             x="32.499985"
             id="use128"
             y="0"
             width="100%"
             height="100%" />
          <use
             xlink:href="#LMRoman8-Regular-75"
             x="85.599976"
             id="use130"
             y="0"
             width="100%"
             height="100%" />
          <use
             xlink:href="#LMRoman8-Regular-72"
             x="144.59996"
             id="use132"
             y="0"
             width="100%"
             height="100%" />
          <use
             xlink:href="#LMRoman8-Regular-20"
             x="185.99995"
             id="use134"
             y="0"
             width="100%"
             height="100%" />
          <use
             xlink:href="#LMRoman8-Regular-32"
             x="221.39995"
             id="use136"
             y="0"
             width="100%"
             height="100%" />
        </g>
      </g>
    </g>
    <g
       id="axes_4">
      <g
         id="patch_23">
        <path
           d="m 275.04003,108 c 0,-5.98604 -1.8959,-11.821009 -5.4144,-16.663817 -3.51851,-4.842808 -8.48203,-8.449018 -14.17509,-10.298806 L 246.68985,108 Z"
           id="path142" />
      </g>
      <g
         id="patch_24">
        <path
           d="m 255.45054,81.037377 c -4.73258,-1.537707 -9.78764,-1.802631 -14.65503,-0.768036 -4.86738,1.034594 -9.37765,3.332693 -13.07563,6.662371 L 246.68985,108 Z"
           style="fill:#1f77b4"
           id="path145" />
      </g>
      <g
         id="patch_25">
        <path
           d="m 227.71988,86.931712 c -4.07257,3.666953 -6.99583,8.437281 -8.4142,13.730728 -1.41837,5.29344 -1.27192,10.88629 0.42155,16.09825 L 246.68985,108 Z"
           style="fill:#ff7f0e"
           id="path148" />
      </g>
      <g
         id="patch_26">
        <path
           d="m 219.72723,116.76069 c 1.22767,3.7784 3.23598,7.25689 5.89433,10.20929 2.65835,2.95239 5.90786,5.3133 9.53724,6.9292 L 246.68985,108 Z"
           style="fill:#2ca02c"
           id="path151" />
      </g>
      <g
         id="patch_27">
        <path
           d="m 235.1588,133.89918 c 4.08696,1.81963 8.54718,2.64628 13.01479,2.41215 4.4676,-0.23414 8.81698,-1.52249 12.69135,-3.75936 L 246.68985,108 Z"
           style="fill:#d62728"
           id="path154" />
      </g>
      <g
         id="patch_28">
        <path
           d="m 260.86494,132.55197 c 2.14562,-1.23877 4.11963,-2.75348 5.87152,-4.50537 1.75189,-1.75189 3.26659,-3.7259 4.50537,-5.87152 L 246.68985,108 Z"
           style="fill:#9467bd"
           id="path157" />
      </g>
      <g
         id="patch_29">
        <path
           d="m 271.24183,122.17508 c 1.23877,-2.14561 2.19096,-4.44439 2.83219,-6.83752 0.64124,-2.39313 0.96601,-4.86002 0.96601,-7.33756 h -28.35018 z"
           style="fill:#8c564b"
           id="path160" />
      </g>
      <g
         id="matplotlib.axis_7" />
      <g
         id="matplotlib.axis_8" />
      <g
         id="text_4">
        <!-- jour 3 -->
        <g
           transform="matrix(0.144,0,0,-0.144,226.92585,74.550057)"
           id="g180">
          <defs
             id="defs166">
            <path
               id="LMRoman8-Regular-33"
               d="m 3110,1094 c 0,532 -422,1018 -1075,1159 506,179 883,614 883,1126 0,512 -576,877 -1241,877 -685,0 -1203,-371 -1203,-858 0,-236 160,-339 326,-339 198,0 326,141 326,327 0,236 -204,326 -345,332 269,352 761,372 877,372 166,0 652,-52 652,-711 0,-448 -185,-717 -275,-819 -192,-198 -339,-211 -729,-237 -122,-6 -173,-13 -173,-96 0,-89 57,-89 166,-89 h 320 c 506,0 826,-372 826,-1044 C 2445,294 1990,58 1651,58 1299,58 819,186 595,525 c 231,0 391,147 391,358 0,205 -148,352 -352,352 -173,0 -352,-109 -352,-365 0,-608 652,-1004 1382,-1004 851,0 1446,588 1446,1228 z"
               transform="scale(0.015625)" />
          </defs>
          <use
             xlink:href="#LMRoman8-Regular-6a"
             id="use168"
             x="0"
             y="0"
             width="100%"
             height="100%" />
          <use
             xlink:href="#LMRoman8-Regular-6f"
             x="32.499985"
             id="use170"
             y="0"
             width="100%"
             height="100%" />
          <use
             xlink:href="#LMRoman8-Regular-75"
             x="85.599976"
             id="use172"
             y="0"
             width="100%"
             height="100%" />
          <use
             xlink:href="#LMRoman8-Regular-72"
             x="144.59996"
             id="use174"
             y="0"
             width="100%"
             height="100%" />
          <use
             xlink:href="#LMRoman8-Regular-20"
             x="185.99995"
             id="use176"
             y="0"
             width="100%"
             height="100%" />
          <use
             xlink:href="#LMRoman8-Regular-33"
             x="221.39995"
             id="use178"
             y="0"
             width="100%"
             height="100%" />
        </g>
      </g>
    </g>
  </g>
</svg>
