<?xml version="1.0" encoding="UTF-8" standalone="no"?>
<svg
   width="261.72pt"
   height="189.73125pt"
   viewBox="0 0 261.72 189.73125"
   version="1.1"
   id="svg381"
   sodipodi:docname="fig13.svg"
   inkscape:version="1.1.2 (0a00cf5, 2022-02-04)"
   xmlns:inkscape="http://www.inkscape.org/namespaces/inkscape"
   xmlns:sodipodi="http://sodipodi.sourceforge.net/DTD/sodipodi-0.dtd"
   xmlns:xlink="http://www.w3.org/1999/xlink"
   xmlns="http://www.w3.org/2000/svg"
   xmlns:svg="http://www.w3.org/2000/svg"
   xmlns:rdf="http://www.w3.org/1999/02/22-rdf-syntax-ns#"
   xmlns:cc="http://creativecommons.org/ns#"
   xmlns:dc="http://purl.org/dc/elements/1.1/">
  <sodipodi:namedview
     id="namedview383"
     pagecolor="#ffffff"
     bordercolor="#666666"
     borderopacity="1.0"
     inkscape:pageshadow="2"
     inkscape:pageopacity="0.0"
     inkscape:pagecheckerboard="0"
     inkscape:document-units="pt"
     showgrid="false"
     fit-margin-top="0"
     fit-margin-left="0"
     fit-margin-right="0"
     fit-margin-bottom="0"
     inkscape:zoom="2.5243056"
     inkscape:cx="174.30536"
     inkscape:cy="125.97524"
     inkscape:window-width="1920"
     inkscape:window-height="1036"
     inkscape:window-x="0"
     inkscape:window-y="25"
     inkscape:window-maximized="1"
     inkscape:current-layer="figure_1" />
  <metadata
     id="metadata2">
    <rdf:RDF>
      <cc:Work>
        <dc:type
           rdf:resource="http://purl.org/dc/dcmitype/StillImage" />
        <dc:date>2022-05-26T11:39:46.269449</dc:date>
        <dc:format>image/svg+xml</dc:format>
        <dc:creator>
          <cc:Agent>
            <dc:title>Matplotlib v3.5.1, https://matplotlib.org/</dc:title>
          </cc:Agent>
        </dc:creator>
      </cc:Work>
    </rdf:RDF>
  </metadata>
  <defs
     id="defs6">
    <style
       type="text/css"
       id="style4">*{stroke-linejoin: round; stroke-linecap: butt}</style>
  </defs>
  <g
     id="figure_1"
     transform="translate(-13.32,-13.30875)">
    <g
       id="patch_1">
      <path
         d="M 0,216 H 288 V 0 H 0 Z"
         style="fill:none"
         id="path8" />
    </g>
    <g
       id="axes_1">
      <g
         id="patch_2">
        <path
           d="M 32.7025,185.3825 H 275.04 V 17.124375 H 32.7025 Z"
           style="fill:none"
           id="path11" />
      </g>
      <g
         id="patch_3">
        <path
           d="M 51.877353,185.3825 H 70.421698 V 160.14378 H 51.877353 Z"
           clip-path="url(#p26e25bf9a8)"
           id="path14" />
      </g>
      <g
         id="patch_4">
        <path
           d="m 113.69184,185.3825 h 18.54434 v -25.23872 h -18.54434 z"
           clip-path="url(#p26e25bf9a8)"
           id="path17" />
      </g>
      <g
         id="patch_5">
        <path
           d="m 175.50632,185.3825 h 18.54434 v -28.04302 h -18.54434 z"
           clip-path="url(#p26e25bf9a8)"
           id="path20" />
      </g>
      <g
         id="patch_6">
        <path
           d="m 237.3208,185.3825 h 18.54435 V 151.73087 H 237.3208 Z"
           clip-path="url(#p26e25bf9a8)"
           id="path23" />
      </g>
      <g
         id="patch_7">
        <path
           d="M 51.877353,160.14378 H 70.421698 V 143.31797 H 51.877353 Z"
           clip-path="url(#p26e25bf9a8)"
           style="fill:#1f77b4"
           id="path26" />
      </g>
      <g
         id="patch_8">
        <path
           d="m 113.69184,160.14378 h 18.54434 v -16.82581 h -18.54434 z"
           clip-path="url(#p26e25bf9a8)"
           style="fill:#1f77b4"
           id="path29" />
      </g>
      <g
         id="patch_9">
        <path
           d="m 175.50632,157.33948 h 18.54434 v -19.63012 h -18.54434 z"
           clip-path="url(#p26e25bf9a8)"
           style="fill:#1f77b4"
           id="path32" />
      </g>
      <g
         id="patch_10">
        <path
           d="m 237.3208,151.73087 h 18.54435 V 123.68785 H 237.3208 Z"
           clip-path="url(#p26e25bf9a8)"
           style="fill:#1f77b4"
           id="path35" />
      </g>
      <g
         id="patch_11">
        <path
           d="M 51.877353,143.31797 H 70.421698 V 129.29646 H 51.877353 Z"
           clip-path="url(#p26e25bf9a8)"
           style="fill:#ff7f0e"
           id="path38" />
      </g>
      <g
         id="patch_12">
        <path
           d="m 113.69184,143.31797 h 18.54434 v -19.63012 h -18.54434 z"
           clip-path="url(#p26e25bf9a8)"
           style="fill:#ff7f0e"
           id="path41" />
      </g>
      <g
         id="patch_13">
        <path
           d="m 175.50632,137.70936 h 18.54434 v -28.04302 h -18.54434 z"
           clip-path="url(#p26e25bf9a8)"
           style="fill:#ff7f0e"
           id="path44" />
      </g>
      <g
         id="patch_14">
        <path
           d="m 237.3208,123.68785 h 18.54435 V 92.840531 H 237.3208 Z"
           clip-path="url(#p26e25bf9a8)"
           style="fill:#ff7f0e"
           id="path47" />
      </g>
      <g
         id="patch_15">
        <path
           d="m 51.877353,129.29646 h 18.544345 v -5.60861 H 51.877353 Z"
           clip-path="url(#p26e25bf9a8)"
           style="fill:#2ca02c"
           id="path50" />
      </g>
      <g
         id="patch_16">
        <path
           d="m 113.69184,123.68785 h 18.54434 v -8.4129 h -18.54434 z"
           clip-path="url(#p26e25bf9a8)"
           style="fill:#2ca02c"
           id="path53" />
      </g>
      <g
         id="patch_17">
        <path
           d="m 175.50632,109.66634 h 18.54434 v -8.4129 h -18.54434 z"
           clip-path="url(#p26e25bf9a8)"
           style="fill:#2ca02c"
           id="path56" />
      </g>
      <g
         id="patch_18">
        <path
           d="m 237.3208,92.840531 h 18.54435 V 70.406115 H 237.3208 Z"
           clip-path="url(#p26e25bf9a8)"
           style="fill:#2ca02c"
           id="path59" />
      </g>
      <g
         id="patch_19">
        <path
           d="m 51.877353,123.68785 h 18.544345 v -5.6086 H 51.877353 Z"
           clip-path="url(#p26e25bf9a8)"
           style="fill:#d62728"
           id="path62" />
      </g>
      <g
         id="patch_20">
        <path
           d="m 113.69184,115.27495 h 18.54434 v -14.02151 h -18.54434 z"
           clip-path="url(#p26e25bf9a8)"
           style="fill:#d62728"
           id="path65" />
      </g>
      <g
         id="patch_21">
        <path
           d="m 175.50632,101.25344 h 18.54434 V 81.623323 h -18.54434 z"
           clip-path="url(#p26e25bf9a8)"
           style="fill:#d62728"
           id="path68" />
      </g>
      <g
         id="patch_22">
        <path
           d="m 237.3208,70.406115 h 18.54435 V 45.167396 H 237.3208 Z"
           clip-path="url(#p26e25bf9a8)"
           style="fill:#d62728"
           id="path71" />
      </g>
      <g
         id="patch_23">
        <path
           d="m 51.877353,118.07925 h 18.544345 v -2.8043 H 51.877353 Z"
           clip-path="url(#p26e25bf9a8)"
           style="fill:#9467bd"
           id="path74" />
      </g>
      <g
         id="patch_24">
        <path
           d="m 113.69184,101.25344 h 18.54434 v -8.412909 h -18.54434 z"
           clip-path="url(#p26e25bf9a8)"
           style="fill:#9467bd"
           id="path77" />
      </g>
      <g
         id="patch_25">
        <path
           d="m 175.50632,81.623323 h 18.54434 V 70.406115 h -18.54434 z"
           clip-path="url(#p26e25bf9a8)"
           style="fill:#9467bd"
           id="path80" />
      </g>
      <g
         id="patch_26">
        <path
           d="m 237.3208,45.167396 h 18.54435 V 31.145885 H 237.3208 Z"
           clip-path="url(#p26e25bf9a8)"
           style="fill:#9467bd"
           id="path83" />
      </g>
      <g
         id="patch_27">
        <path
           d="m 51.877353,115.27495 h 18.544345 v 0 z"
           clip-path="url(#p26e25bf9a8)"
           style="fill:#8c564b"
           id="path86" />
      </g>
      <g
         id="patch_28">
        <path
           d="m 113.69184,92.840531 h 18.54434 v -2.804302 h -18.54434 z"
           clip-path="url(#p26e25bf9a8)"
           style="fill:#8c564b"
           id="path89" />
      </g>
      <g
         id="patch_29">
        <path
           d="m 175.50632,70.406115 h 18.54434 V 56.384604 h -18.54434 z"
           clip-path="url(#p26e25bf9a8)"
           style="fill:#8c564b"
           id="path92" />
      </g>
      <g
         id="patch_30">
        <path
           d="m 237.3208,31.145885 h 18.54435 V 17.124375 H 237.3208 Z"
           clip-path="url(#p26e25bf9a8)"
           style="fill:#8c564b"
           id="path95" />
      </g>
      <g
         id="matplotlib.axis_1">
        <g
           id="xtick_1">
          <g
             id="line2d_1">
            <defs
               id="defs99">
              <path
                 id="m7f6d32b163"
                 d="M 0,0 V 3.5"
                 style="stroke:#000000;stroke-width:0.8" />
            </defs>
            <g
               id="g103">
              <use
                 xlink:href="#m7f6d32b163"
                 x="61.149525"
                 y="185.38251"
                 style="stroke:#000000;stroke-width:0.8"
                 id="use101"
                 width="100%"
                 height="100%" />
            </g>
          </g>
          <g
             id="text_1">
            <!-- jour 0 -->
            <g
               transform="matrix(0.12,0,0,-0.12,44.679525,200.59125)"
               id="g126">
              <defs
                 id="defs112">
                <path
                   id="LMRoman8-Regular-6a"
                   d="M 1453,-294 V 2822 L 448,2752 v -211 c 480,0 538,-45 538,-359 V -307 c 0,-173 -26,-819 -468,-819 -96,0 -236,25 -320,57 39,13 173,96 173,275 0,173 -121,301 -301,301 -160,0 -300,-109 -300,-307 0,-326 358,-506 755,-506 512,0 928,410 928,1012 z m 0,4147 c 0,211 -167,358 -352,358 -186,0 -352,-147 -352,-358 0,-186 147,-352 352,-352 198,0 352,166 352,352 z"
                   transform="scale(0.015625)" />
                <path
                   id="LMRoman8-Regular-6f"
                   d="m 3200,1363 c 0,800 -659,1491 -1504,1491 C 851,2854 192,2163 192,1363 192,563 877,-64 1696,-64 c 826,0 1504,627 1504,1427 z m -570,58 c 0,-295 -12,-647 -192,-915 -172,-256 -460,-372 -742,-372 -346,0 -614,167 -755,391 -160,262 -179,576 -179,896 0,243 0,627 198,902 166,224 435,352 736,352 333,0 608,-160 755,-384 173,-269 179,-614 179,-870 z"
                   transform="scale(0.015625)" />
                <path
                   id="LMRoman8-Regular-75"
                   d="m 3597,0 v 211 c -435,0 -487,45 -487,359 v 2252 l -972,-70 v -211 c 435,0 486,-45 486,-359 V 1069 c 0,-551 -333,-954 -813,-954 -550,0 -576,275 -576,595 v 2112 l -973,-70 v -211 c 487,0 487,-19 487,-589 V 992 c 0,-461 0,-1056 1024,-1056 601,0 832,461 864,518 h 6 V -64 Z"
                   transform="scale(0.015625)" />
                <path
                   id="LMRoman8-Regular-72"
                   d="m 2458,2419 c 0,224 -205,403 -487,403 -416,0 -697,-313 -832,-672 h -6 v 672 l -909,-70 v -211 c 435,0 486,-45 486,-359 V 499 C 710,211 634,211 224,211 V 0 c 250,19 602,19 755,19 378,0 391,0 807,-19 v 211 h -128 c -468,0 -480,71 -480,301 v 947 c 0,480 198,1171 812,1184 -38,-25 -102,-77 -102,-224 0,-198 154,-288 282,-288 153,0 288,103 288,288 z"
                   transform="scale(0.015625)" />
                <path
                   id="LMRoman8-Regular-20"
                   transform="scale(0.015625)"
                   d="" />
                <path
                   id="LMRoman8-Regular-30"
                   d="m 3130,2042 c 0,684 -71,1100 -282,1510 -282,563 -800,704 -1152,704 C 890,4256 595,3654 506,3475 275,3008 262,2374 262,2042 262,1619 282,973 589,461 c 294,-474 768,-595 1107,-595 307,0 858,96 1178,729 236,461 256,1031 256,1447 z m -570,76 c 0,-377 0,-953 -77,-1312 C 2349,134 1907,45 1696,45 c -218,0 -659,102 -794,774 -70,365 -70,967 -70,1299 0,442 0,890 70,1242 135,653 634,717 794,717 218,0 659,-109 787,-691 77,-352 77,-832 77,-1268 z"
                   transform="scale(0.015625)" />
              </defs>
              <use
                 xlink:href="#LMRoman8-Regular-6a"
                 id="use114"
                 x="0"
                 y="0"
                 width="100%"
                 height="100%" />
              <use
                 xlink:href="#LMRoman8-Regular-6f"
                 x="32.499985"
                 id="use116"
                 y="0"
                 width="100%"
                 height="100%" />
              <use
                 xlink:href="#LMRoman8-Regular-75"
                 x="85.599976"
                 id="use118"
                 y="0"
                 width="100%"
                 height="100%" />
              <use
                 xlink:href="#LMRoman8-Regular-72"
                 x="144.59996"
                 id="use120"
                 y="0"
                 width="100%"
                 height="100%" />
              <use
                 xlink:href="#LMRoman8-Regular-20"
                 x="185.99995"
                 id="use122"
                 y="0"
                 width="100%"
                 height="100%" />
              <use
                 xlink:href="#LMRoman8-Regular-30"
                 x="221.39995"
                 id="use124"
                 y="0"
                 width="100%"
                 height="100%" />
            </g>
          </g>
        </g>
        <g
           id="xtick_2">
          <g
             id="line2d_2">
            <g
               id="g132">
              <use
                 xlink:href="#m7f6d32b163"
                 x="122.964"
                 y="185.38251"
                 style="stroke:#000000;stroke-width:0.8"
                 id="use130"
                 width="100%"
                 height="100%" />
            </g>
          </g>
          <g
             id="text_2">
            <!-- jour 1 -->
            <g
               transform="matrix(0.12,0,0,-0.12,106.49401,200.59125)"
               id="g150">
              <defs
                 id="defs136">
                <path
                   id="LMRoman8-Regular-31"
                   d="m 2861,0 v 211 h -224 c -608,0 -627,77 -627,314 v 3552 c 0,173 -13,179 -186,179 -262,-256 -602,-410 -1210,-410 v -211 c 173,0 519,0 890,173 V 525 C 1504,288 1485,211 877,211 H 653 V 0 c 262,19 813,19 1101,19 288,0 844,0 1107,-19 z"
                   transform="scale(0.015625)" />
              </defs>
              <use
                 xlink:href="#LMRoman8-Regular-6a"
                 id="use138"
                 x="0"
                 y="0"
                 width="100%"
                 height="100%" />
              <use
                 xlink:href="#LMRoman8-Regular-6f"
                 x="32.499985"
                 id="use140"
                 y="0"
                 width="100%"
                 height="100%" />
              <use
                 xlink:href="#LMRoman8-Regular-75"
                 x="85.599976"
                 id="use142"
                 y="0"
                 width="100%"
                 height="100%" />
              <use
                 xlink:href="#LMRoman8-Regular-72"
                 x="144.59996"
                 id="use144"
                 y="0"
                 width="100%"
                 height="100%" />
              <use
                 xlink:href="#LMRoman8-Regular-20"
                 x="185.99995"
                 id="use146"
                 y="0"
                 width="100%"
                 height="100%" />
              <use
                 xlink:href="#LMRoman8-Regular-31"
                 x="221.39995"
                 id="use148"
                 y="0"
                 width="100%"
                 height="100%" />
            </g>
          </g>
        </g>
        <g
           id="xtick_3">
          <g
             id="line2d_3">
            <g
               id="g156">
              <use
                 xlink:href="#m7f6d32b163"
                 x="184.77849"
                 y="185.38251"
                 style="stroke:#000000;stroke-width:0.8"
                 id="use154"
                 width="100%"
                 height="100%" />
            </g>
          </g>
          <g
             id="text_3">
            <!-- jour 2 -->
            <g
               transform="matrix(0.12,0,0,-0.12,168.30849,200.59125)"
               id="g174">
              <defs
                 id="defs160">
                <path
                   id="LMRoman8-Regular-32"
                   d="m 3053,1146 h -199 c -19,-128 -70,-448 -147,-570 -38,-51 -525,-51 -627,-51 H 941 l 864,781 c 102,96 371,307 473,396 397,365 775,717 775,1300 0,761 -640,1254 -1440,1254 -768,0 -1274,-582 -1274,-1152 0,-314 250,-358 339,-358 135,0 333,96 333,339 0,333 -320,333 -397,333 186,467 615,627 928,627 596,0 903,-506 903,-1043 0,-666 -467,-1152 -1223,-1927 L 416,243 C 339,173 339,160 339,0 h 2528 z"
                   transform="scale(0.015625)" />
              </defs>
              <use
                 xlink:href="#LMRoman8-Regular-6a"
                 id="use162"
                 x="0"
                 y="0"
                 width="100%"
                 height="100%" />
              <use
                 xlink:href="#LMRoman8-Regular-6f"
                 x="32.499985"
                 id="use164"
                 y="0"
                 width="100%"
                 height="100%" />
              <use
                 xlink:href="#LMRoman8-Regular-75"
                 x="85.599976"
                 id="use166"
                 y="0"
                 width="100%"
                 height="100%" />
              <use
                 xlink:href="#LMRoman8-Regular-72"
                 x="144.59996"
                 id="use168"
                 y="0"
                 width="100%"
                 height="100%" />
              <use
                 xlink:href="#LMRoman8-Regular-20"
                 x="185.99995"
                 id="use170"
                 y="0"
                 width="100%"
                 height="100%" />
              <use
                 xlink:href="#LMRoman8-Regular-32"
                 x="221.39995"
                 id="use172"
                 y="0"
                 width="100%"
                 height="100%" />
            </g>
          </g>
        </g>
        <g
           id="xtick_4">
          <g
             id="line2d_4">
            <g
               id="g180">
              <use
                 xlink:href="#m7f6d32b163"
                 x="246.59297"
                 y="185.38251"
                 style="stroke:#000000;stroke-width:0.8"
                 id="use178"
                 width="100%"
                 height="100%" />
            </g>
          </g>
          <g
             id="text_4">
            <!-- jour 3 -->
            <g
               transform="matrix(0.12,0,0,-0.12,230.12297,200.59125)"
               id="g198">
              <defs
                 id="defs184">
                <path
                   id="LMRoman8-Regular-33"
                   d="m 3110,1094 c 0,532 -422,1018 -1075,1159 506,179 883,614 883,1126 0,512 -576,877 -1241,877 -685,0 -1203,-371 -1203,-858 0,-236 160,-339 326,-339 198,0 326,141 326,327 0,236 -204,326 -345,332 269,352 761,372 877,372 166,0 652,-52 652,-711 0,-448 -185,-717 -275,-819 -192,-198 -339,-211 -729,-237 -122,-6 -173,-13 -173,-96 0,-89 57,-89 166,-89 h 320 c 506,0 826,-372 826,-1044 C 2445,294 1990,58 1651,58 1299,58 819,186 595,525 c 231,0 391,147 391,358 0,205 -148,352 -352,352 -173,0 -352,-109 -352,-365 0,-608 652,-1004 1382,-1004 851,0 1446,588 1446,1228 z"
                   transform="scale(0.015625)" />
              </defs>
              <use
                 xlink:href="#LMRoman8-Regular-6a"
                 id="use186"
                 x="0"
                 y="0"
                 width="100%"
                 height="100%" />
              <use
                 xlink:href="#LMRoman8-Regular-6f"
                 x="32.499985"
                 id="use188"
                 y="0"
                 width="100%"
                 height="100%" />
              <use
                 xlink:href="#LMRoman8-Regular-75"
                 x="85.599976"
                 id="use190"
                 y="0"
                 width="100%"
                 height="100%" />
              <use
                 xlink:href="#LMRoman8-Regular-72"
                 x="144.59996"
                 id="use192"
                 y="0"
                 width="100%"
                 height="100%" />
              <use
                 xlink:href="#LMRoman8-Regular-20"
                 x="185.99995"
                 id="use194"
                 y="0"
                 width="100%"
                 height="100%" />
              <use
                 xlink:href="#LMRoman8-Regular-33"
                 x="221.39995"
                 id="use196"
                 y="0"
                 width="100%"
                 height="100%" />
            </g>
          </g>
        </g>
      </g>
      <g
         id="matplotlib.axis_2">
        <g
           id="ytick_1">
          <g
             id="line2d_5">
            <defs
               id="defs204">
              <path
                 id="m843245b5e7"
                 d="M 0,0 H -3.5"
                 style="stroke:#000000;stroke-width:0.8" />
            </defs>
            <g
               id="g208">
              <use
                 xlink:href="#m843245b5e7"
                 x="32.702499"
                 y="185.38251"
                 style="stroke:#000000;stroke-width:0.8"
                 id="use206"
                 width="100%"
                 height="100%" />
            </g>
          </g>
          <g
             id="text_5">
            <!-- 0 -->
            <g
               transform="matrix(0.12,0,0,-0.12,19.33125,189.54687)"
               id="g213">
              <use
                 xlink:href="#LMRoman8-Regular-30"
                 id="use211"
                 x="0"
                 y="0"
                 width="100%"
                 height="100%" />
            </g>
          </g>
        </g>
        <g
           id="ytick_2">
          <g
             id="line2d_6">
            <g
               id="g219">
              <use
                 xlink:href="#m843245b5e7"
                 x="32.702499"
                 y="157.33948"
                 style="stroke:#000000;stroke-width:0.8"
                 id="use217"
                 width="100%"
                 height="100%" />
            </g>
          </g>
          <g
             id="text_6">
            <!-- 10 -->
            <g
               transform="matrix(0.12,0,0,-0.12,12.96,161.50385)"
               id="g226">
              <use
                 xlink:href="#LMRoman8-Regular-31"
                 id="use222"
                 x="0"
                 y="0"
                 width="100%"
                 height="100%" />
              <use
                 xlink:href="#LMRoman8-Regular-30"
                 x="53.099991"
                 id="use224"
                 y="0"
                 width="100%"
                 height="100%" />
            </g>
          </g>
        </g>
        <g
           id="ytick_3">
          <g
             id="line2d_7">
            <g
               id="g232">
              <use
                 xlink:href="#m843245b5e7"
                 x="32.702499"
                 y="129.29646"
                 style="stroke:#000000;stroke-width:0.8"
                 id="use230"
                 width="100%"
                 height="100%" />
            </g>
          </g>
          <g
             id="text_7">
            <!-- 20 -->
            <g
               transform="matrix(0.12,0,0,-0.12,12.96,133.46083)"
               id="g239">
              <use
                 xlink:href="#LMRoman8-Regular-32"
                 id="use235"
                 x="0"
                 y="0"
                 width="100%"
                 height="100%" />
              <use
                 xlink:href="#LMRoman8-Regular-30"
                 x="53.099991"
                 id="use237"
                 y="0"
                 width="100%"
                 height="100%" />
            </g>
          </g>
        </g>
        <g
           id="ytick_4">
          <g
             id="line2d_8">
            <g
               id="g245">
              <use
                 xlink:href="#m843245b5e7"
                 x="32.702499"
                 y="101.25343"
                 style="stroke:#000000;stroke-width:0.8"
                 id="use243"
                 width="100%"
                 height="100%" />
            </g>
          </g>
          <g
             id="text_8">
            <!-- 30 -->
            <g
               transform="matrix(0.12,0,0,-0.12,12.96,105.41781)"
               id="g252">
              <use
                 xlink:href="#LMRoman8-Regular-33"
                 id="use248"
                 x="0"
                 y="0"
                 width="100%"
                 height="100%" />
              <use
                 xlink:href="#LMRoman8-Regular-30"
                 x="53.099991"
                 id="use250"
                 y="0"
                 width="100%"
                 height="100%" />
            </g>
          </g>
        </g>
        <g
           id="ytick_5">
          <g
             id="line2d_9">
            <g
               id="g258">
              <use
                 xlink:href="#m843245b5e7"
                 x="32.702499"
                 y="73.210419"
                 style="stroke:#000000;stroke-width:0.8"
                 id="use256"
                 width="100%"
                 height="100%" />
            </g>
          </g>
          <g
             id="text_9">
            <!-- 40 -->
            <g
               transform="matrix(0.12,0,0,-0.12,12.96,77.374792)"
               id="g268">
              <defs
                 id="defs262">
                <path
                   id="LMRoman8-Regular-34"
                   d="m 3200,1050 v 211 h -678 v 2880 c 0,128 0,179 -135,179 -83,0 -89,-6 -153,-96 L 192,1261 V 1050 H 1997 V 518 c 0,-236 -19,-307 -512,-307 H 1338 V 0 l 921,19 922,-19 v 211 h -147 c -493,0 -512,71 -512,307 v 532 z M 2042,1261 H 416 l 1626,2361 z"
                   transform="scale(0.015625)" />
              </defs>
              <use
                 xlink:href="#LMRoman8-Regular-34"
                 id="use264"
                 x="0"
                 y="0"
                 width="100%"
                 height="100%" />
              <use
                 xlink:href="#LMRoman8-Regular-30"
                 x="53.099991"
                 id="use266"
                 y="0"
                 width="100%"
                 height="100%" />
            </g>
          </g>
        </g>
        <g
           id="ytick_6">
          <g
             id="line2d_10">
            <g
               id="g274">
              <use
                 xlink:href="#m843245b5e7"
                 x="32.702499"
                 y="45.167397"
                 style="stroke:#000000;stroke-width:0.8"
                 id="use272"
                 width="100%"
                 height="100%" />
            </g>
          </g>
          <g
             id="text_10">
            <!-- 50 -->
            <g
               transform="matrix(0.12,0,0,-0.12,12.96,49.331771)"
               id="g284">
              <defs
                 id="defs278">
                <path
                   id="LMRoman8-Regular-35"
                   d="m 3053,1280 c 0,742 -538,1402 -1293,1402 -320,0 -621,-103 -864,-320 v 1235 c 83,-26 339,-90 608,-90 800,0 1286,563 1286,659 0,71 -44,90 -76,90 0,0 -26,0 -84,-32 -249,-96 -544,-173 -889,-173 -378,0 -691,96 -890,173 -64,32 -83,32 -83,32 -83,0 -83,-70 -83,-186 V 2195 c 0,-115 0,-192 102,-192 51,0 71,26 103,77 76,96 320,422 864,422 358,0 531,-294 588,-416 109,-230 122,-524 122,-774 0,-237 -6,-582 -186,-864 C 2157,256 1901,58 1562,58 1146,58 736,320 589,736 c 19,-6 64,-6 64,-6 179,0 320,115 320,313 0,237 -186,320 -314,320 -115,0 -320,-64 -320,-339 0,-576 499,-1158 1235,-1158 800,0 1479,620 1479,1414 z"
                   transform="scale(0.015625)" />
              </defs>
              <use
                 xlink:href="#LMRoman8-Regular-35"
                 id="use280"
                 x="0"
                 y="0"
                 width="100%"
                 height="100%" />
              <use
                 xlink:href="#LMRoman8-Regular-30"
                 x="53.099991"
                 id="use282"
                 y="0"
                 width="100%"
                 height="100%" />
            </g>
          </g>
        </g>
        <g
           id="ytick_7">
          <g
             id="line2d_11">
            <g
               id="g290">
              <use
                 xlink:href="#m843245b5e7"
                 x="32.702499"
                 y="17.124374"
                 style="stroke:#000000;stroke-width:0.8"
                 id="use288"
                 width="100%"
                 height="100%" />
            </g>
          </g>
          <g
             id="text_11">
            <!-- 60 -->
            <g
               transform="matrix(0.12,0,0,-0.12,12.96,21.28875)"
               id="g300">
              <defs
                 id="defs294">
                <path
                   id="LMRoman8-Regular-36"
                   d="m 3110,1299 c 0,839 -633,1427 -1344,1427 -460,0 -736,-294 -883,-608 0,532 45,999 275,1389 192,320 519,583 922,583 128,0 422,-20 570,-244 -288,-12 -314,-230 -314,-300 0,-192 147,-301 301,-301 115,0 301,70 301,313 0,384 -288,698 -864,698 -890,0 -1792,-845 -1792,-2227 0,-1735 806,-2163 1427,-2163 307,0 640,83 928,358 256,250 473,518 473,1075 z m -601,7 c 0,-327 0,-608 -128,-839 C 2214,173 1990,58 1709,58 c -339,0 -551,236 -647,416 -147,288 -160,723 -160,966 0,634 346,1107 839,1107 320,0 512,-166 633,-390 135,-237 135,-525 135,-851 z"
                   transform="scale(0.015625)" />
              </defs>
              <use
                 xlink:href="#LMRoman8-Regular-36"
                 id="use296"
                 x="0"
                 y="0"
                 width="100%"
                 height="100%" />
              <use
                 xlink:href="#LMRoman8-Regular-30"
                 x="53.099991"
                 id="use298"
                 y="0"
                 width="100%"
                 height="100%" />
            </g>
          </g>
        </g>
      </g>
      <g
         id="line2d_12">
        <path
           d="M 70.421698,160.14378 H 113.69184"
           clip-path="url(#p26e25bf9a8)"
           style="fill:none;stroke:#000000;stroke-dasharray:1, 1.65;stroke-dashoffset:0"
           id="path305" />
      </g>
      <g
         id="line2d_13">
        <path
           d="m 132.23618,160.14378 43.27014,-2.8043"
           clip-path="url(#p26e25bf9a8)"
           style="fill:none;stroke:#000000;stroke-dasharray:1, 1.65;stroke-dashoffset:0"
           id="path308" />
      </g>
      <g
         id="line2d_14">
        <path
           d="m 194.05066,157.33948 43.27014,-5.60861"
           clip-path="url(#p26e25bf9a8)"
           style="fill:none;stroke:#000000;stroke-dasharray:1, 1.65;stroke-dashoffset:0"
           id="path311" />
      </g>
      <g
         id="line2d_15">
        <path
           d="M 70.421698,143.31797 H 113.69184"
           clip-path="url(#p26e25bf9a8)"
           style="fill:none;stroke:#1f77b4;stroke-dasharray:1, 1.65;stroke-dashoffset:0"
           id="path314" />
      </g>
      <g
         id="line2d_16">
        <path
           d="m 132.23618,143.31797 43.27014,-5.60861"
           clip-path="url(#p26e25bf9a8)"
           style="fill:none;stroke:#1f77b4;stroke-dasharray:1, 1.65;stroke-dashoffset:0"
           id="path317" />
      </g>
      <g
         id="line2d_17">
        <path
           d="M 194.05066,137.70936 237.3208,123.68785"
           clip-path="url(#p26e25bf9a8)"
           style="fill:none;stroke:#1f77b4;stroke-dasharray:1, 1.65;stroke-dashoffset:0"
           id="path320" />
      </g>
      <g
         id="line2d_18">
        <path
           d="m 70.421698,129.29646 43.270142,-5.60861"
           clip-path="url(#p26e25bf9a8)"
           style="fill:none;stroke:#ff7f0e;stroke-dasharray:1, 1.65;stroke-dashoffset:0"
           id="path323" />
      </g>
      <g
         id="line2d_19">
        <path
           d="m 132.23618,123.68785 43.27014,-14.02151"
           clip-path="url(#p26e25bf9a8)"
           style="fill:none;stroke:#ff7f0e;stroke-dasharray:1, 1.65;stroke-dashoffset:0"
           id="path326" />
      </g>
      <g
         id="line2d_20">
        <path
           d="M 194.05066,109.66634 237.3208,92.840531"
           clip-path="url(#p26e25bf9a8)"
           style="fill:none;stroke:#ff7f0e;stroke-dasharray:1, 1.65;stroke-dashoffset:0"
           id="path329" />
      </g>
      <g
         id="line2d_21">
        <path
           d="m 70.421698,123.68785 43.270142,-8.4129"
           clip-path="url(#p26e25bf9a8)"
           style="fill:none;stroke:#2ca02c;stroke-dasharray:1, 1.65;stroke-dashoffset:0"
           id="path332" />
      </g>
      <g
         id="line2d_22">
        <path
           d="m 132.23618,115.27495 43.27014,-14.02151"
           clip-path="url(#p26e25bf9a8)"
           style="fill:none;stroke:#2ca02c;stroke-dasharray:1, 1.65;stroke-dashoffset:0"
           id="path335" />
      </g>
      <g
         id="line2d_23">
        <path
           d="M 194.05066,101.25344 237.3208,70.406115"
           clip-path="url(#p26e25bf9a8)"
           style="fill:none;stroke:#2ca02c;stroke-dasharray:1, 1.65;stroke-dashoffset:0"
           id="path338" />
      </g>
      <g
         id="line2d_24">
        <path
           d="M 70.421698,118.07925 113.69184,101.25344"
           clip-path="url(#p26e25bf9a8)"
           style="fill:none;stroke:#d62728;stroke-dasharray:1, 1.65;stroke-dashoffset:0"
           id="path341" />
      </g>
      <g
         id="line2d_25">
        <path
           d="M 132.23618,101.25344 175.50632,81.623323"
           clip-path="url(#p26e25bf9a8)"
           style="fill:none;stroke:#d62728;stroke-dasharray:1, 1.65;stroke-dashoffset:0"
           id="path344" />
      </g>
      <g
         id="line2d_26">
        <path
           d="M 194.05066,81.623323 237.3208,45.167396"
           clip-path="url(#p26e25bf9a8)"
           style="fill:none;stroke:#d62728;stroke-dasharray:1, 1.65;stroke-dashoffset:0"
           id="path347" />
      </g>
      <g
         id="line2d_27">
        <path
           d="M 70.421698,115.27495 113.69184,92.840531"
           clip-path="url(#p26e25bf9a8)"
           style="fill:none;stroke:#9467bd;stroke-dasharray:1, 1.65;stroke-dashoffset:0"
           id="path350" />
      </g>
      <g
         id="line2d_28">
        <path
           d="M 132.23618,92.840531 175.50632,70.406115"
           clip-path="url(#p26e25bf9a8)"
           style="fill:none;stroke:#9467bd;stroke-dasharray:1, 1.65;stroke-dashoffset:0"
           id="path353" />
      </g>
      <g
         id="line2d_29">
        <path
           d="M 194.05066,70.406115 237.3208,31.145885"
           clip-path="url(#p26e25bf9a8)"
           style="fill:none;stroke:#9467bd;stroke-dasharray:1, 1.65;stroke-dashoffset:0"
           id="path356" />
      </g>
      <g
         id="line2d_30">
        <path
           d="M 70.421698,115.27495 113.69184,90.036229"
           clip-path="url(#p26e25bf9a8)"
           style="fill:none;stroke:#8c564b;stroke-dasharray:1, 1.65;stroke-dashoffset:0"
           id="path359" />
      </g>
      <g
         id="line2d_31">
        <path
           d="M 132.23618,90.036229 175.50632,56.384604"
           clip-path="url(#p26e25bf9a8)"
           style="fill:none;stroke:#8c564b;stroke-dasharray:1, 1.65;stroke-dashoffset:0"
           id="path362" />
      </g>
      <g
         id="line2d_32">
        <path
           d="M 194.05066,56.384604 237.3208,17.124375"
           clip-path="url(#p26e25bf9a8)"
           style="fill:none;stroke:#8c564b;stroke-dasharray:1, 1.65;stroke-dashoffset:0"
           id="path365" />
      </g>
      <g
         id="patch_31">
        <path
           d="M 32.7025,185.3825 V 17.124375"
           style="fill:none;stroke:#000000;stroke-width:0.5;stroke-linecap:square;stroke-linejoin:miter"
           id="path368" />
      </g>
      <g
         id="patch_32">
        <path
           d="M 41.677963,185.3825 H 266.06454"
           style="fill:none;stroke:#000000;stroke-width:0.5;stroke-linecap:square;stroke-linejoin:miter"
           id="path371" />
      </g>
    </g>
  </g>
  <defs
     id="defs379">
    <clipPath
       id="p26e25bf9a8">
      <rect
         x="32.702499"
         y="17.124374"
         width="242.33749"
         height="168.25812"
         id="rect376" />
    </clipPath>
  </defs>
</svg>
