<?xml version="1.0" encoding="UTF-8" standalone="no"?>
<svg
   width="255.34618pt"
   height="71.376289pt"
   viewBox="0 0 255.34618 71.376289"
   version="1.1"
   id="svg489"
   sodipodi:docname="fig12.svg"
   inkscape:version="1.1.2 (0a00cf5, 2022-02-04)"
   xmlns:inkscape="http://www.inkscape.org/namespaces/inkscape"
   xmlns:sodipodi="http://sodipodi.sourceforge.net/DTD/sodipodi-0.dtd"
   xmlns:xlink="http://www.w3.org/1999/xlink"
   xmlns="http://www.w3.org/2000/svg"
   xmlns:svg="http://www.w3.org/2000/svg"
   xmlns:rdf="http://www.w3.org/1999/02/22-rdf-syntax-ns#"
   xmlns:cc="http://creativecommons.org/ns#"
   xmlns:dc="http://purl.org/dc/elements/1.1/">
  <sodipodi:namedview
     id="namedview491"
     pagecolor="#ffffff"
     bordercolor="#666666"
     borderopacity="1.0"
     inkscape:pageshadow="2"
     inkscape:pageopacity="0.0"
     inkscape:pagecheckerboard="0"
     inkscape:document-units="pt"
     showgrid="false"
     fit-margin-top="0"
     fit-margin-left="0"
     fit-margin-right="0"
     fit-margin-bottom="0"
     inkscape:zoom="1.2621528"
     inkscape:cx="64.176066"
     inkscape:cy="94.283356"
     inkscape:window-width="1920"
     inkscape:window-height="1036"
     inkscape:window-x="0"
     inkscape:window-y="25"
     inkscape:window-maximized="1"
     inkscape:current-layer="figure_1" />
  <metadata
     id="metadata306">
    <rdf:RDF>
      <cc:Work>
        <dc:type
           rdf:resource="http://purl.org/dc/dcmitype/StillImage" />
        <dc:date>2022-05-20T12:58:07.927968</dc:date>
        <dc:format>image/svg+xml</dc:format>
        <dc:creator>
          <cc:Agent>
            <dc:title>Matplotlib v3.5.1, https://matplotlib.org/</dc:title>
          </cc:Agent>
        </dc:creator>
      </cc:Work>
    </rdf:RDF>
  </metadata>
  <defs
     id="defs310">
    <style
       type="text/css"
       id="style308">*{stroke-linejoin: round; stroke-linecap: butt}</style>
  </defs>
  <g
     id="figure_1"
     transform="translate(-19.694029,-65.408471)">
    <g
       id="patch_1">
      <path
         d="M 0,216 H 288 V 0 H 0 Z"
         style="fill:none"
         id="path312" />
    </g>
    <g
       id="axes_1">
      <g
         id="patch_2">
        <path
           d="m 59.314878,108 c 0,-3.32065 -0.855255,-6.586 -2.483063,-9.480297 -1.627808,-2.894298 -3.973953,-5.321143 -6.811566,-7.045865 -2.837614,-1.724722 -6.072185,-2.689876 -9.390937,-2.802133 -3.318752,-0.112258 -6.611148,0.63212 -9.558821,2.161154 L 39.975529,108 Z"
           id="path315" />
      </g>
      <g
         id="patch_3">
        <path
           d="m 31.070491,90.832859 c -4.077977,2.115351 -7.271735,5.616077 -9.005012,9.870531 -1.733278,4.25445 -1.895157,8.99037 -0.45643,13.35325 L 39.975529,108 Z"
           style="fill:#1f77b4"
           id="path318" />
      </g>
      <g
         id="patch_4">
        <path
           d="m 21.609049,114.05664 c 1.294823,3.92649 3.815282,7.33616 7.189316,9.72567 3.374033,2.38952 7.427027,3.63523 11.560691,3.55324 L 39.975529,108 Z"
           style="fill:#ff7f0e"
           id="path321" />
      </g>
      <g
         id="patch_5">
        <path
           d="m 40.359056,127.33555 c 1.872515,-0.0371 3.729743,-0.3461 5.513435,-0.91718 1.783692,-0.57108 3.475005,-1.39825 5.020892,-2.45557 L 39.975529,108 Z"
           style="fill:#2ca02c"
           id="path324" />
      </g>
      <g
         id="patch_6">
        <path
           d="m 50.893383,123.9628 c 1.502081,-1.02736 2.851661,-2.26161 4.008758,-3.66619 1.157097,-1.40457 2.11017,-2.96547 2.830983,-4.63644 L 39.975529,108 Z"
           style="fill:#d62728"
           id="path327" />
      </g>
      <g
         id="patch_7">
        <path
           d="m 57.733124,115.66017 c 0.415445,-0.96307 0.751854,-1.95834 1.005898,-2.97597 0.254045,-1.01763 0.424884,-2.05423 0.510825,-3.09956 L 39.975529,108 Z"
           style="fill:#9467bd"
           id="path330" />
      </g>
      <g
         id="patch_8">
        <path
           d="m 59.249847,109.58464 c 0.02167,-0.26353 0.03792,-0.52747 0.04877,-0.79165 0.01084,-0.26419 0.01626,-0.52858 0.01626,-0.79299 H 39.975528 Z"
           style="fill:#8c564b"
           id="path333" />
      </g>
      <g
         id="matplotlib.axis_1" />
      <g
         id="matplotlib.axis_2" />
      <g
         id="text_1">
        <!-- jour 0 -->
        <g
           transform="matrix(0.144,0,0,-0.144,20.211529,74.984471)"
           id="g358">
          <defs
             id="defs344">
            <path
               id="LMRoman8-Regular-6a"
               d="M 1453,-294 V 2822 L 448,2752 v -211 c 480,0 538,-45 538,-359 V -307 c 0,-173 -26,-819 -468,-819 -96,0 -236,25 -320,57 39,13 173,96 173,275 0,173 -121,301 -301,301 -160,0 -300,-109 -300,-307 0,-326 358,-506 755,-506 512,0 928,410 928,1012 z m 0,4147 c 0,211 -167,358 -352,358 -186,0 -352,-147 -352,-358 0,-186 147,-352 352,-352 198,0 352,166 352,352 z"
               transform="scale(0.015625)" />
            <path
               id="LMRoman8-Regular-6f"
               d="m 3200,1363 c 0,800 -659,1491 -1504,1491 C 851,2854 192,2163 192,1363 192,563 877,-64 1696,-64 c 826,0 1504,627 1504,1427 z m -570,58 c 0,-295 -12,-647 -192,-915 -172,-256 -460,-372 -742,-372 -346,0 -614,167 -755,391 -160,262 -179,576 -179,896 0,243 0,627 198,902 166,224 435,352 736,352 333,0 608,-160 755,-384 173,-269 179,-614 179,-870 z"
               transform="scale(0.015625)" />
            <path
               id="LMRoman8-Regular-75"
               d="m 3597,0 v 211 c -435,0 -487,45 -487,359 v 2252 l -972,-70 v -211 c 435,0 486,-45 486,-359 V 1069 c 0,-551 -333,-954 -813,-954 -550,0 -576,275 -576,595 v 2112 l -973,-70 v -211 c 487,0 487,-19 487,-589 V 992 c 0,-461 0,-1056 1024,-1056 601,0 832,461 864,518 h 6 V -64 Z"
               transform="scale(0.015625)" />
            <path
               id="LMRoman8-Regular-72"
               d="m 2458,2419 c 0,224 -205,403 -487,403 -416,0 -697,-313 -832,-672 h -6 v 672 l -909,-70 v -211 c 435,0 486,-45 486,-359 V 499 C 710,211 634,211 224,211 V 0 c 250,19 602,19 755,19 378,0 391,0 807,-19 v 211 h -128 c -468,0 -480,71 -480,301 v 947 c 0,480 198,1171 812,1184 -38,-25 -102,-77 -102,-224 0,-198 154,-288 282,-288 153,0 288,103 288,288 z"
               transform="scale(0.015625)" />
            <path
               id="LMRoman8-Regular-20"
               transform="scale(0.015625)"
               d="" />
            <path
               id="LMRoman8-Regular-30"
               d="m 3130,2042 c 0,684 -71,1100 -282,1510 -282,563 -800,704 -1152,704 C 890,4256 595,3654 506,3475 275,3008 262,2374 262,2042 262,1619 282,973 589,461 c 294,-474 768,-595 1107,-595 307,0 858,96 1178,729 236,461 256,1031 256,1447 z m -570,76 c 0,-377 0,-953 -77,-1312 C 2349,134 1907,45 1696,45 c -218,0 -659,102 -794,774 -70,365 -70,967 -70,1299 0,442 0,890 70,1242 135,653 634,717 794,717 218,0 659,-109 787,-691 77,-352 77,-832 77,-1268 z"
               transform="scale(0.015625)" />
          </defs>
          <use
             xlink:href="#LMRoman8-Regular-6a"
             id="use346"
             x="0"
             y="0"
             width="100%"
             height="100%" />
          <use
             xlink:href="#LMRoman8-Regular-6f"
             x="32.499985"
             id="use348"
             y="0"
             width="100%"
             height="100%" />
          <use
             xlink:href="#LMRoman8-Regular-75"
             x="85.599976"
             id="use350"
             y="0"
             width="100%"
             height="100%" />
          <use
             xlink:href="#LMRoman8-Regular-72"
             x="144.59996"
             id="use352"
             y="0"
             width="100%"
             height="100%" />
          <use
             xlink:href="#LMRoman8-Regular-20"
             x="185.99995"
             id="use354"
             y="0"
             width="100%"
             height="100%" />
          <use
             xlink:href="#LMRoman8-Regular-30"
             x="221.39995"
             id="use356"
             y="0"
             width="100%"
             height="100%" />
        </g>
      </g>
    </g>
    <g
       id="axes_2">
      <g
         id="patch_9">
        <path
           d="m 130.82291,108 c 0,-2.96232 -0.59595,-5.89459 -1.75231,-8.621899 -1.15635,-2.727305 -2.84964,-5.194314 -4.97887,-7.253862 -2.12923,-2.059549 -4.65119,-3.669854 -7.41545,-4.734857 -2.76425,-1.065003 -5.71472,-1.563098 -8.67541,-1.464571 L 108.7355,108 Z"
           id="path362" />
      </g>
      <g
         id="patch_10">
        <path
           d="m 108.00087,85.924811 c -4.18738,0.139348 -8.249939,1.467306 -11.71118,3.82812 -3.461242,2.360815 -6.180346,5.658435 -7.838399,9.506096 L 108.7355,108 Z"
           style="fill:#1f77b4"
           id="path365" />
      </g>
      <g
         id="patch_11">
        <path
           d="m 88.451291,99.259027 c -1.755279,4.073283 -2.243578,8.582353 -1.400979,12.936963 0.842599,4.35462 2.977654,8.35608 6.125675,11.48059 L 108.7355,108 Z"
           style="fill:#ff7f0e"
           id="path368" />
      </g>
      <g
         id="patch_12">
        <path
           d="m 93.175987,123.67658 c 1.508553,1.49729 3.225363,2.76902 5.09726,3.7758 1.871893,1.00678 3.879353,1.73811 5.960203,2.17134 L 108.7355,108 Z"
           style="fill:#2ca02c"
           id="path371" />
      </g>
      <g
         id="patch_13">
        <path
           d="m 104.23345,129.62372 c 3.62891,0.75554 7.3903,0.58555 10.93627,-0.49425 3.54597,-1.0798 6.76372,-3.03505 9.35564,-5.68492 L 108.7355,108 Z"
           style="fill:#d62728"
           id="path374" />
      </g>
      <g
         id="patch_14">
        <path
           d="m 124.52536,123.44455 c 1.51431,-1.54817 2.79273,-3.31067 3.79416,-5.23085 1.00144,-1.92018 1.71504,-3.97724 2.11789,-6.10508 L 108.7355,108 Z"
           style="fill:#9467bd"
           id="path377" />
      </g>
      <g
         id="patch_15">
        <path
           d="m 130.43741,112.10862 c 0.12815,-0.67688 0.22456,-1.3594 0.28891,-2.04529 0.0644,-0.6859 0.0966,-1.37444 0.0966,-2.06335 L 108.7355,108 Z"
           style="fill:#8c564b"
           id="path380" />
      </g>
      <g
         id="matplotlib.axis_3" />
      <g
         id="matplotlib.axis_4" />
      <g
         id="text_2">
        <!-- jour 1 -->
        <g
           transform="matrix(0.144,0,0,-0.144,88.971498,74.984471)"
           id="g400">
          <defs
             id="defs386">
            <path
               id="LMRoman8-Regular-31"
               d="m 2861,0 v 211 h -224 c -608,0 -627,77 -627,314 v 3552 c 0,173 -13,179 -186,179 -262,-256 -602,-410 -1210,-410 v -211 c 173,0 519,0 890,173 V 525 C 1504,288 1485,211 877,211 H 653 V 0 c 262,19 813,19 1101,19 288,0 844,0 1107,-19 z"
               transform="scale(0.015625)" />
          </defs>
          <use
             xlink:href="#LMRoman8-Regular-6a"
             id="use388"
             x="0"
             y="0"
             width="100%"
             height="100%" />
          <use
             xlink:href="#LMRoman8-Regular-6f"
             x="32.499985"
             id="use390"
             y="0"
             width="100%"
             height="100%" />
          <use
             xlink:href="#LMRoman8-Regular-75"
             x="85.599976"
             id="use392"
             y="0"
             width="100%"
             height="100%" />
          <use
             xlink:href="#LMRoman8-Regular-72"
             x="144.59996"
             id="use394"
             y="0"
             width="100%"
             height="100%" />
          <use
             xlink:href="#LMRoman8-Regular-20"
             x="185.99995"
             id="use396"
             y="0"
             width="100%"
             height="100%" />
          <use
             xlink:href="#LMRoman8-Regular-31"
             x="221.39995"
             id="use398"
             y="0"
             width="100%"
             height="100%" />
        </g>
      </g>
    </g>
    <g
       id="axes_3">
      <g
         id="patch_16">
        <path
           d="m 203.13679,108 c 0,-5.87752 -2.02087,-11.580032 -5.72187,-16.145983 -3.70099,-4.565952 -8.86169,-7.723429 -14.61193,-8.940024 L 177.49547,108 Z"
           id="path404" />
      </g>
      <g
         id="patch_17">
        <path
           d="m 182.80299,82.913993 c -4.13345,-0.874529 -8.41969,-0.714037 -12.47617,0.467152 -4.05649,1.181188 -7.75884,3.346858 -10.77665,6.303731 L 177.49547,108 Z"
           style="fill:#1f77b4"
           id="path407" />
      </g>
      <g
         id="patch_18">
        <path
           d="m 159.55017,89.684876 c -4.06544,3.98335 -6.69113,9.209146 -7.46062,14.848544 -0.76948,5.6394 0.36019,11.3776 3.20985,16.3045 L 177.49547,108 Z"
           style="fill:#ff7f0e"
           id="path410" />
      </g>
      <g
         id="patch_19">
        <path
           d="m 155.2994,120.83792 c 0.93982,1.6249 2.05524,3.1417 3.32619,4.5231 1.27094,1.38141 2.68974,2.61908 4.23087,3.69075 L 177.49547,108 Z"
           style="fill:#2ca02c"
           id="path413" />
      </g>
      <g
         id="patch_20">
        <path
           d="m 162.85646,129.05177 c 3.11036,2.16289 6.66176,3.60981 10.39804,4.2364 3.73628,0.6266 7.56541,0.41743 11.21121,-0.61241 L 177.49547,108 Z"
           style="fill:#d62728"
           id="path416" />
      </g>
      <g
         id="patch_21">
        <path
           d="m 184.46571,132.67576 c 2.41241,-0.68144 4.71191,-1.71299 6.825,-3.06167 2.11309,-1.34869 4.01703,-2.99999 5.65096,-4.90114 L 177.49547,108 Z"
           style="fill:#9467bd"
           id="path419" />
      </g>
      <g
         id="patch_22">
        <path
           d="m 196.94167,124.71295 c 1.98274,-2.307 3.53922,-4.94854 4.59651,-7.80085 1.05729,-2.85231 1.59861,-5.87014 1.59861,-8.91211 L 177.49547,108 Z"
           style="fill:#8c564b"
           id="path422" />
      </g>
      <g
         id="matplotlib.axis_5" />
      <g
         id="matplotlib.axis_6" />
      <g
         id="text_3">
        <!-- jour 2 -->
        <g
           transform="matrix(0.144,0,0,-0.144,157.73147,74.984471)"
           id="g442">
          <defs
             id="defs428">
            <path
               id="LMRoman8-Regular-32"
               d="m 3053,1146 h -199 c -19,-128 -70,-448 -147,-570 -38,-51 -525,-51 -627,-51 H 941 l 864,781 c 102,96 371,307 473,396 397,365 775,717 775,1300 0,761 -640,1254 -1440,1254 -768,0 -1274,-582 -1274,-1152 0,-314 250,-358 339,-358 135,0 333,96 333,339 0,333 -320,333 -397,333 186,467 615,627 928,627 596,0 903,-506 903,-1043 0,-666 -467,-1152 -1223,-1927 L 416,243 C 339,173 339,160 339,0 h 2528 z"
               transform="scale(0.015625)" />
          </defs>
          <use
             xlink:href="#LMRoman8-Regular-6a"
             id="use430"
             x="0"
             y="0"
             width="100%"
             height="100%" />
          <use
             xlink:href="#LMRoman8-Regular-6f"
             x="32.499985"
             id="use432"
             y="0"
             width="100%"
             height="100%" />
          <use
             xlink:href="#LMRoman8-Regular-75"
             x="85.599976"
             id="use434"
             y="0"
             width="100%"
             height="100%" />
          <use
             xlink:href="#LMRoman8-Regular-72"
             x="144.59996"
             id="use436"
             y="0"
             width="100%"
             height="100%" />
          <use
             xlink:href="#LMRoman8-Regular-20"
             x="185.99995"
             id="use438"
             y="0"
             width="100%"
             height="100%" />
          <use
             xlink:href="#LMRoman8-Regular-32"
             x="221.39995"
             id="use440"
             y="0"
             width="100%"
             height="100%" />
        </g>
      </g>
    </g>
    <g
       id="axes_4">
      <g
         id="patch_23">
        <path
           d="m 275.0402,108 c 0,-6.08854 -1.93177,-12.022875 -5.5159,-16.944693 -3.58414,-4.921819 -8.63908,-8.581812 -14.43373,-10.450615 L 246.25544,108 Z"
           id="path446" />
      </g>
      <g
         id="patch_24">
        <path
           d="m 255.09057,80.604692 c -4.58898,-1.479974 -9.47712,-1.783443 -14.21392,-0.882442 -4.73681,0.901001 -9.17216,2.977918 -12.89732,6.039348 L 246.25544,108 Z"
           style="fill:#1f77b4"
           id="path449" />
      </g>
      <g
         id="patch_25">
        <path
           d="m 227.97933,85.761598 c -4.26983,3.509058 -7.44003,8.174695 -9.12997,13.43673 -1.68994,5.262032 -1.82917,10.901092 -0.40097,16.240112 L 246.25544,108 Z"
           style="fill:#ff7f0e"
           id="path452" />
      </g>
      <g
         id="patch_26">
        <path
           d="m 218.44839,115.43844 c 1.05026,3.92618 2.92023,7.58577 5.48653,10.73728 2.56629,3.15152 5.77119,5.72407 9.4032,7.54792 L 246.25544,108 Z"
           style="fill:#2ca02c"
           id="path455" />
      </g>
      <g
         id="patch_27">
        <path
           d="m 233.33812,133.72364 c 4.0381,2.02776 8.49752,3.07646 13.01613,3.06095 4.51862,-0.0155 8.97073,-1.09481 12.99482,-3.15025 L 246.25544,108 Z"
           style="fill:#d62728"
           id="path458" />
      </g>
      <g
         id="patch_28">
        <path
           d="m 259.34907,133.63434 c 2.23694,-1.1426 4.31474,-2.5731 6.18037,-4.25502 1.86564,-1.68192 3.50312,-3.60083 4.87068,-5.70779 L 246.25544,108 Z"
           style="fill:#9467bd"
           id="path461" />
      </g>
      <g
         id="patch_29">
        <path
           d="m 270.40012,123.67153 c 1.50633,-2.32075 2.67021,-4.84661 3.45569,-7.49952 0.78549,-2.65291 1.18439,-5.40526 1.18439,-8.17201 h -28.78476 z"
           style="fill:#8c564b"
           id="path464" />
      </g>
      <g
         id="matplotlib.axis_7" />
      <g
         id="matplotlib.axis_8" />
      <g
         id="text_4">
        <!-- jour 3 -->
        <g
           transform="matrix(0.144,0,0,-0.144,226.49144,74.984471)"
           id="g484">
          <defs
             id="defs470">
            <path
               id="LMRoman8-Regular-33"
               d="m 3110,1094 c 0,532 -422,1018 -1075,1159 506,179 883,614 883,1126 0,512 -576,877 -1241,877 -685,0 -1203,-371 -1203,-858 0,-236 160,-339 326,-339 198,0 326,141 326,327 0,236 -204,326 -345,332 269,352 761,372 877,372 166,0 652,-52 652,-711 0,-448 -185,-717 -275,-819 -192,-198 -339,-211 -729,-237 -122,-6 -173,-13 -173,-96 0,-89 57,-89 166,-89 h 320 c 506,0 826,-372 826,-1044 C 2445,294 1990,58 1651,58 1299,58 819,186 595,525 c 231,0 391,147 391,358 0,205 -148,352 -352,352 -173,0 -352,-109 -352,-365 0,-608 652,-1004 1382,-1004 851,0 1446,588 1446,1228 z"
               transform="scale(0.015625)" />
          </defs>
          <use
             xlink:href="#LMRoman8-Regular-6a"
             id="use472"
             x="0"
             y="0"
             width="100%"
             height="100%" />
          <use
             xlink:href="#LMRoman8-Regular-6f"
             x="32.499985"
             id="use474"
             y="0"
             width="100%"
             height="100%" />
          <use
             xlink:href="#LMRoman8-Regular-75"
             x="85.599976"
             id="use476"
             y="0"
             width="100%"
             height="100%" />
          <use
             xlink:href="#LMRoman8-Regular-72"
             x="144.59996"
             id="use478"
             y="0"
             width="100%"
             height="100%" />
          <use
             xlink:href="#LMRoman8-Regular-20"
             x="185.99995"
             id="use480"
             y="0"
             width="100%"
             height="100%" />
          <use
             xlink:href="#LMRoman8-Regular-33"
             x="221.39995"
             id="use482"
             y="0"
             width="100%"
             height="100%" />
        </g>
      </g>
    </g>
  </g>
</svg>
