<?xml version="1.0" encoding="UTF-8" standalone="no"?>
<svg
   width="262.07999pt"
   height="187.87125pt"
   viewBox="0 0 262.07999 187.87125"
   version="1.1"
   id="svg323"
   sodipodi:docname="distribution.svg"
   inkscape:export-filename="distribution-400.webp"
   inkscape:export-xdpi="100"
   inkscape:export-ydpi="100"
   inkscape:version="1.2 (dc2aeda, 2022-05-15)"
   xmlns:inkscape="http://www.inkscape.org/namespaces/inkscape"
   xmlns:sodipodi="http://sodipodi.sourceforge.net/DTD/sodipodi-0.dtd"
   xmlns:xlink="http://www.w3.org/1999/xlink"
   xmlns="http://www.w3.org/2000/svg"
   xmlns:svg="http://www.w3.org/2000/svg"
   xmlns:rdf="http://www.w3.org/1999/02/22-rdf-syntax-ns#"
   xmlns:cc="http://creativecommons.org/ns#"
   xmlns:dc="http://purl.org/dc/elements/1.1/">
  <sodipodi:namedview
     id="namedview325"
     pagecolor="#ffffff"
     bordercolor="#000000"
     borderopacity="0.25"
     inkscape:showpageshadow="2"
     inkscape:pageopacity="0.0"
     inkscape:pagecheckerboard="0"
     inkscape:deskcolor="#d1d1d1"
     inkscape:document-units="pt"
     showgrid="false"
     inkscape:zoom="2.6909722"
     inkscape:cx="130.43613"
     inkscape:cy="126.53419"
     inkscape:window-width="1920"
     inkscape:window-height="1017"
     inkscape:window-x="0"
     inkscape:window-y="0"
     inkscape:window-maximized="1"
     inkscape:current-layer="axes_1" />
  <metadata
     id="metadata2">
    <rdf:RDF>
      <cc:Work>
        <dc:type
           rdf:resource="http://purl.org/dc/dcmitype/StillImage" />
        <dc:date>2022-05-18T22:35:25.595614</dc:date>
        <dc:format>image/svg+xml</dc:format>
        <dc:creator>
          <cc:Agent>
            <dc:title>Matplotlib v3.5.1, https://matplotlib.org/</dc:title>
          </cc:Agent>
        </dc:creator>
      </cc:Work>
    </rdf:RDF>
  </metadata>
  <defs
     id="defs6">
    <style
       type="text/css"
       id="style4">*{stroke-linejoin: round; stroke-linecap: butt}</style>
  </defs>
  <g
     id="figure_1"
     transform="translate(-12.96,-12.96)">
    <g
       id="patch_1">
      <path
         d="M 0,216 H 288 V 0 H 0 Z"
         style="fill:none"
         id="path8" />
    </g>
    <g
       id="axes_1">
      <g
         id="patch_2">
        <path
           d="M 50.9,170.725 H 275.04 V 12.96 H 50.9 Z"
           style="fill:none"
           id="path11" />
      </g>
      <g
         id="patch_3">
        <path
           d="m 101.416,164.88185 h 81.6006"
           clip-path="url(#p9e52864367)"
           style="fill:none;stroke:#000000;stroke-linecap:round"
           id="path14" />
        <path
           d="m 103.416,166.88185 -2,-2 2,-2"
           clip-path="url(#p9e52864367)"
           style="fill:none;stroke:#000000;stroke-linecap:round"
           id="path16" />
        <path
           d="m 181.0166,162.88185 2,2 -2,2"
           clip-path="url(#p9e52864367)"
           style="fill:none;stroke:#000000;stroke-linecap:round"
           id="path18" />
      </g>
      <g
         id="matplotlib.axis_1">
        <g
           id="xtick_1">
          <g
             id="line2d_1">
            <defs
               id="defs22">
              <path
                 id="md601c4331f"
                 d="M 0,0 V 3.5"
                 style="stroke:#000000;stroke-width:0.8" />
            </defs>
            <g
               id="g26">
              <use
                 xlink:href="#md601c4331f"
                 x="59.201481"
                 y="170.72501"
                 style="stroke:#000000;stroke-width:0.8"
                 id="use24" />
            </g>
          </g>
          <g
             id="text_1">
            <!-- 0 -->
            <g
               transform="matrix(0.12,0,0,-0.12,56.015856,186.05375)"
               id="g34">
              <defs
                 id="defs30">
                <path
                   id="LMRoman8-Regular-30"
                   d="m 3130,2042 c 0,684 -71,1100 -282,1510 -282,563 -800,704 -1152,704 C 890,4256 595,3654 506,3475 275,3008 262,2374 262,2042 262,1619 282,973 589,461 c 294,-474 768,-595 1107,-595 307,0 858,96 1178,729 236,461 256,1031 256,1447 z m -570,76 c 0,-377 0,-953 -77,-1312 C 2349,134 1907,45 1696,45 c -218,0 -659,102 -794,774 -70,365 -70,967 -70,1299 0,442 0,890 70,1242 135,653 634,717 794,717 218,0 659,-109 787,-691 77,-352 77,-832 77,-1268 z"
                   transform="scale(0.015625)" />
              </defs>
              <use
                 xlink:href="#LMRoman8-Regular-30"
                 id="use32" />
            </g>
          </g>
        </g>
        <g
           id="xtick_2">
          <g
             id="line2d_2">
            <g
               id="g40">
              <use
                 xlink:href="#md601c4331f"
                 x="100.70889"
                 y="170.72501"
                 style="stroke:#000000;stroke-width:0.8"
                 id="use38" />
            </g>
          </g>
          <g
             id="text_2">
            <!-- 1 -->
            <g
               transform="matrix(0.12,0,0,-0.12,97.523264,186.05375)"
               id="g48">
              <defs
                 id="defs44">
                <path
                   id="LMRoman8-Regular-31"
                   d="m 2861,0 v 211 h -224 c -608,0 -627,77 -627,314 v 3552 c 0,173 -13,179 -186,179 -262,-256 -602,-410 -1210,-410 v -211 c 173,0 519,0 890,173 V 525 C 1504,288 1485,211 877,211 H 653 V 0 c 262,19 813,19 1101,19 288,0 844,0 1107,-19 z"
                   transform="scale(0.015625)" />
              </defs>
              <use
                 xlink:href="#LMRoman8-Regular-31"
                 id="use46" />
            </g>
          </g>
        </g>
        <g
           id="xtick_3">
          <g
             id="line2d_3">
            <g
               id="g54">
              <use
                 xlink:href="#md601c4331f"
                 x="142.21629"
                 y="170.72501"
                 style="stroke:#000000;stroke-width:0.8"
                 id="use52" />
            </g>
          </g>
          <g
             id="text_3">
            <!-- 2 -->
            <g
               transform="matrix(0.12,0,0,-0.12,139.03067,186.05375)"
               id="g62">
              <defs
                 id="defs58">
                <path
                   id="LMRoman8-Regular-32"
                   d="m 3053,1146 h -199 c -19,-128 -70,-448 -147,-570 -38,-51 -525,-51 -627,-51 H 941 l 864,781 c 102,96 371,307 473,396 397,365 775,717 775,1300 0,761 -640,1254 -1440,1254 -768,0 -1274,-582 -1274,-1152 0,-314 250,-358 339,-358 135,0 333,96 333,339 0,333 -320,333 -397,333 186,467 615,627 928,627 596,0 903,-506 903,-1043 0,-666 -467,-1152 -1223,-1927 L 416,243 C 339,173 339,160 339,0 h 2528 z"
                   transform="scale(0.015625)" />
              </defs>
              <use
                 xlink:href="#LMRoman8-Regular-32"
                 id="use60" />
            </g>
          </g>
        </g>
        <g
           id="xtick_4">
          <g
             id="line2d_4">
            <g
               id="g68">
              <use
                 xlink:href="#md601c4331f"
                 x="183.72371"
                 y="170.72501"
                 style="stroke:#000000;stroke-width:0.8"
                 id="use66" />
            </g>
          </g>
          <g
             id="text_4">
            <!-- 3 -->
            <g
               transform="matrix(0.12,0,0,-0.12,180.53808,186.05375)"
               id="g76">
              <defs
                 id="defs72">
                <path
                   id="LMRoman8-Regular-33"
                   d="m 3110,1094 c 0,532 -422,1018 -1075,1159 506,179 883,614 883,1126 0,512 -576,877 -1241,877 -685,0 -1203,-371 -1203,-858 0,-236 160,-339 326,-339 198,0 326,141 326,327 0,236 -204,326 -345,332 269,352 761,372 877,372 166,0 652,-52 652,-711 0,-448 -185,-717 -275,-819 -192,-198 -339,-211 -729,-237 -122,-6 -173,-13 -173,-96 0,-89 57,-89 166,-89 h 320 c 506,0 826,-372 826,-1044 C 2445,294 1990,58 1651,58 1299,58 819,186 595,525 c 231,0 391,147 391,358 0,205 -148,352 -352,352 -173,0 -352,-109 -352,-365 0,-608 652,-1004 1382,-1004 851,0 1446,588 1446,1228 z"
                   transform="scale(0.015625)" />
              </defs>
              <use
                 xlink:href="#LMRoman8-Regular-33"
                 id="use74" />
            </g>
          </g>
        </g>
        <g
           id="xtick_5">
          <g
             id="line2d_5">
            <g
               id="g82">
              <use
                 xlink:href="#md601c4331f"
                 x="225.23111"
                 y="170.72501"
                 style="stroke:#000000;stroke-width:0.8"
                 id="use80" />
            </g>
          </g>
          <g
             id="text_5">
            <!-- 4 -->
            <g
               transform="matrix(0.12,0,0,-0.12,222.04549,186.05375)"
               id="g90">
              <defs
                 id="defs86">
                <path
                   id="LMRoman8-Regular-34"
                   d="m 3200,1050 v 211 h -678 v 2880 c 0,128 0,179 -135,179 -83,0 -89,-6 -153,-96 L 192,1261 V 1050 H 1997 V 518 c 0,-236 -19,-307 -512,-307 H 1338 V 0 l 921,19 922,-19 v 211 h -147 c -493,0 -512,71 -512,307 v 532 z M 2042,1261 H 416 l 1626,2361 z"
                   transform="scale(0.015625)" />
              </defs>
              <use
                 xlink:href="#LMRoman8-Regular-34"
                 id="use88" />
            </g>
          </g>
        </g>
        <g
           id="xtick_6">
          <g
             id="line2d_6">
            <g
               id="g96">
              <use
                 xlink:href="#md601c4331f"
                 x="266.73853"
                 y="170.72501"
                 style="stroke:#000000;stroke-width:0.8"
                 id="use94" />
            </g>
          </g>
          <g
             id="text_6">
            <!-- 5 -->
            <g
               transform="matrix(0.12,0,0,-0.12,263.55289,186.05375)"
               id="g104">
              <defs
                 id="defs100">
                <path
                   id="LMRoman8-Regular-35"
                   d="m 3053,1280 c 0,742 -538,1402 -1293,1402 -320,0 -621,-103 -864,-320 v 1235 c 83,-26 339,-90 608,-90 800,0 1286,563 1286,659 0,71 -44,90 -76,90 0,0 -26,0 -84,-32 -249,-96 -544,-173 -889,-173 -378,0 -691,96 -890,173 -64,32 -83,32 -83,32 -83,0 -83,-70 -83,-186 V 2195 c 0,-115 0,-192 102,-192 51,0 71,26 103,77 76,96 320,422 864,422 358,0 531,-294 588,-416 109,-230 122,-524 122,-774 0,-237 -6,-582 -186,-864 C 2157,256 1901,58 1562,58 1146,58 736,320 589,736 c 19,-6 64,-6 64,-6 179,0 320,115 320,313 0,237 -186,320 -314,320 -115,0 -320,-64 -320,-339 0,-576 499,-1158 1235,-1158 800,0 1479,620 1479,1414 z"
                   transform="scale(0.015625)" />
              </defs>
              <use
                 xlink:href="#LMRoman8-Regular-35"
                 id="use102" />
            </g>
          </g>
        </g>
        <g
           id="text_7">
          <!-- valeur de la mesure -->
          <g
             transform="matrix(0.12,0,0,-0.12,108.57813,200.71125)"
             id="g158">
            <defs
               id="defs118">
              <path
                 id="LMRoman8-Regular-76"
                 d="m 3443,2547 v 211 c -224,-19 -237,-19 -499,-19 -58,0 -358,0 -557,19 v -211 c 224,-13 282,-153 282,-262 0,-64 -13,-96 -39,-154 L 1939,518 1184,2253 c -38,83 -38,134 -38,134 0,160 230,160 339,160 v 211 c -275,-19 -576,-19 -698,-19 -134,0 -441,0 -646,19 v -211 c 390,0 422,-38 518,-256 L 1619,77 c 45,-96 83,-141 173,-141 90,0 134,51 166,128 l 877,2035 c 154,359 371,442 608,448 z"
                 transform="scale(0.015625)" />
              <path
                 id="LMRoman8-Regular-61"
                 d="M 3290,576 V 928 H 3091 V 576 c 0,-262 -96,-365 -230,-365 -237,0 -237,295 -237,365 v 1331 c 0,627 -608,947 -1190,947 -532,0 -1005,-204 -1005,-627 0,-192 134,-307 301,-307 179,0 300,128 300,301 0,153 -96,262 -236,294 236,160 582,160 627,160 358,0 717,-249 717,-774 V 1702 C 1766,1683 1338,1664 890,1478 326,1235 218,864 218,653 218,102 864,-64 1306,-64 c 467,0 755,262 896,518 32,-243 198,-486 480,-486 64,0 608,26 608,608 z M 2138,902 c 0,-620 -525,-787 -781,-787 -333,0 -615,224 -615,531 0,423 397,858 1396,890 z"
                 transform="scale(0.015625)" />
              <path
                 id="LMRoman8-Regular-6c"
                 d="m 1709,0 v 211 c -410,0 -487,0 -487,288 v 3943 l -953,-71 v -211 c 435,0 486,-45 486,-358 V 499 C 755,211 678,211 269,211 V 0 c 249,19 608,19 717,19 128,0 473,0 723,-19 z"
                 transform="scale(0.015625)" />
              <path
                 id="LMRoman8-Regular-65"
                 d="m 2822,768 c 0,26 -19,90 -102,90 -70,0 -83,-45 -96,-84 C 2394,154 1843,134 1728,134 1440,134 1146,269 954,563 762,858 762,1267 762,1459 h 1881 c 141,0 179,0 179,147 0,570 -313,1248 -1216,1248 C 813,2854 192,2195 192,1402 192,576 883,-64 1690,-64 c 812,0 1132,685 1132,832 z m -435,858 H 768 c 58,896 602,1049 838,1049 749,0 775,-902 781,-1049 z"
                 transform="scale(0.015625)" />
              <path
                 id="LMRoman8-Regular-75"
                 d="m 3597,0 v 211 c -435,0 -487,45 -487,359 v 2252 l -972,-70 v -211 c 435,0 486,-45 486,-359 V 1069 c 0,-551 -333,-954 -813,-954 -550,0 -576,275 -576,595 v 2112 l -973,-70 v -211 c 487,0 487,-19 487,-589 V 992 c 0,-461 0,-1056 1024,-1056 601,0 832,461 864,518 h 6 V -64 Z"
                 transform="scale(0.015625)" />
              <path
                 id="LMRoman8-Regular-72"
                 d="m 2458,2419 c 0,224 -205,403 -487,403 -416,0 -697,-313 -832,-672 h -6 v 672 l -909,-70 v -211 c 435,0 486,-45 486,-359 V 499 C 710,211 634,211 224,211 V 0 c 250,19 602,19 755,19 378,0 391,0 807,-19 v 211 h -128 c -468,0 -480,71 -480,301 v 947 c 0,480 198,1171 812,1184 -38,-25 -102,-77 -102,-224 0,-198 154,-288 282,-288 153,0 288,103 288,288 z"
                 transform="scale(0.015625)" />
              <path
                 id="LMRoman8-Regular-20"
                 transform="scale(0.015625)"
                 d="" />
              <path
                 id="LMRoman8-Regular-64"
                 d="m 3546,0 v 211 c -436,0 -487,45 -487,359 v 3872 l -953,-71 v -211 c 435,0 486,-45 486,-358 V 2451 c -224,243 -525,371 -858,371 C 934,2822 224,2202 224,1376 224,589 864,-64 1670,-64 c 378,0 692,179 903,403 V -64 Z m -973,794 c 0,-116 0,-141 -96,-269 -179,-256 -474,-410 -775,-410 -294,0 -550,154 -704,391 -172,249 -204,563 -204,864 0,371 57,633 204,857 154,237 442,416 768,416 308,0 615,-153 807,-486 z"
                 transform="scale(0.015625)" />
              <path
                 id="LMRoman8-Regular-6d"
                 d="m 5485,0 v 211 c -410,0 -487,0 -487,288 v 1440 c 0,519 -224,883 -921,883 -589,0 -883,-403 -986,-588 -115,460 -480,588 -896,588 -621,0 -915,-441 -998,-614 h -7 v 614 l -928,-70 v -211 c 436,0 487,-45 487,-359 V 499 C 749,211 672,211 262,211 V 0 c 276,19 557,19 730,19 186,0 454,0 730,-19 v 211 c -410,0 -487,0 -487,288 v 1159 c 0,672 506,985 909,985 416,0 486,-326 486,-678 V 499 c 0,-288 -76,-288 -486,-288 V 0 c 275,19 557,19 730,19 185,0 454,0 729,-19 v 211 c -409,0 -486,0 -486,288 v 1159 c 0,672 505,985 909,985 416,0 486,-326 486,-678 V 499 c 0,-288 -77,-288 -486,-288 V 0 c 275,19 556,19 729,19 186,0 455,0 730,-19 z"
                 transform="scale(0.015625)" />
              <path
                 id="LMRoman8-Regular-73"
                 d="m 2451,826 c 0,307 -185,755 -947,896 -51,12 -410,76 -435,76 -199,45 -499,180 -499,436 0,192 140,460 748,460 717,0 749,-524 762,-704 6,-51 51,-70 96,-70 102,0 102,45 102,166 v 602 c 0,102 0,166 -83,166 -32,0 -51,0 -153,-102 -13,-6 -71,-64 -90,-64 0,0 -19,0 -58,26 -102,70 -288,140 -576,140 -896,0 -1094,-486 -1094,-793 0,-320 237,-506 256,-525 256,-192 403,-218 832,-294 301,-58 794,-148 794,-583 0,-249 -167,-544 -756,-544 -646,0 -832,499 -915,839 -25,83 -32,115 -109,115 -102,0 -102,-51 -102,-173 V 102 c 0,-102 0,-166 83,-166 39,0 45,6 160,128 32,32 103,115 135,147 288,-262 588,-275 755,-275 813,0 1094,467 1094,890 z"
                 transform="scale(0.015625)" />
            </defs>
            <use
               xlink:href="#LMRoman8-Regular-76"
               id="use120" />
            <use
               xlink:href="#LMRoman8-Regular-61"
               x="56.099991"
               id="use122" />
            <use
               xlink:href="#LMRoman8-Regular-6c"
               x="109.19998"
               id="use124" />
            <use
               xlink:href="#LMRoman8-Regular-65"
               x="138.69997"
               id="use126" />
            <use
               xlink:href="#LMRoman8-Regular-75"
               x="185.89996"
               id="use128" />
            <use
               xlink:href="#LMRoman8-Regular-72"
               x="244.89995"
               id="use130" />
            <use
               xlink:href="#LMRoman8-Regular-20"
               x="286.29993"
               id="use132" />
            <use
               xlink:href="#LMRoman8-Regular-64"
               x="321.69995"
               id="use134" />
            <use
               xlink:href="#LMRoman8-Regular-65"
               x="380.69992"
               id="use136" />
            <use
               xlink:href="#LMRoman8-Regular-20"
               x="427.89993"
               id="use138" />
            <use
               xlink:href="#LMRoman8-Regular-6c"
               x="463.2999"
               id="use140" />
            <use
               xlink:href="#LMRoman8-Regular-61"
               x="492.7999"
               id="use142" />
            <use
               xlink:href="#LMRoman8-Regular-20"
               x="545.8999"
               id="use144" />
            <use
               xlink:href="#LMRoman8-Regular-6d"
               x="581.29987"
               id="use146" />
            <use
               xlink:href="#LMRoman8-Regular-65"
               x="669.79987"
               id="use148" />
            <use
               xlink:href="#LMRoman8-Regular-73"
               x="716.99988"
               id="use150" />
            <use
               xlink:href="#LMRoman8-Regular-75"
               x="758.89984"
               id="use152" />
            <use
               xlink:href="#LMRoman8-Regular-72"
               x="817.89984"
               id="use154" />
            <use
               xlink:href="#LMRoman8-Regular-65"
               x="859.2998"
               id="use156" />
          </g>
        </g>
      </g>
      <g
         id="matplotlib.axis_2">
        <g
           id="ytick_1">
          <g
             id="line2d_7">
            <defs
               id="defs163">
              <path
                 id="m002e72504a"
                 d="M 0,0 H -3.5"
                 style="stroke:#000000;stroke-width:0.8" />
            </defs>
            <g
               id="g167">
              <use
                 xlink:href="#m002e72504a"
                 x="50.900002"
                 y="164.88185"
                 style="stroke:#000000;stroke-width:0.8"
                 id="use165" />
            </g>
          </g>
          <g
             id="text_8">
            <!-- 0.0 -->
            <g
               transform="matrix(0.12,0,0,-0.12,27.6175,169.04623)"
               id="g179">
              <defs
                 id="defs171">
                <path
                   id="LMRoman8-Regular-2e"
                   d="M 1299,352 C 1299,570 1126,710 947,710 730,710 589,538 589,358 589,141 762,0 941,0 c 217,0 358,173 358,352 z"
                   transform="scale(0.015625)" />
              </defs>
              <use
                 xlink:href="#LMRoman8-Regular-30"
                 id="use173" />
              <use
                 xlink:href="#LMRoman8-Regular-2e"
                 x="53.099991"
                 id="use175" />
              <use
                 xlink:href="#LMRoman8-Regular-30"
                 x="82.599976"
                 id="use177" />
            </g>
          </g>
        </g>
        <g
           id="ytick_2">
          <g
             id="line2d_8">
            <g
               id="g185">
              <use
                 xlink:href="#m002e72504a"
                 x="50.900002"
                 y="116.18895"
                 style="stroke:#000000;stroke-width:0.8"
                 id="use183" />
            </g>
          </g>
          <g
             id="text_9">
            <!-- 0.2 -->
            <g
               transform="matrix(0.12,0,0,-0.12,27.6175,120.35333)"
               id="g194">
              <use
                 xlink:href="#LMRoman8-Regular-30"
                 id="use188" />
              <use
                 xlink:href="#LMRoman8-Regular-2e"
                 x="53.099991"
                 id="use190" />
              <use
                 xlink:href="#LMRoman8-Regular-32"
                 x="82.599976"
                 id="use192" />
            </g>
          </g>
        </g>
        <g
           id="ytick_3">
          <g
             id="line2d_9">
            <g
               id="g200">
              <use
                 xlink:href="#m002e72504a"
                 x="50.900002"
                 y="67.496048"
                 style="stroke:#000000;stroke-width:0.8"
                 id="use198" />
            </g>
          </g>
          <g
             id="text_10">
            <!-- 0.4 -->
            <g
               transform="matrix(0.12,0,0,-0.12,27.6175,71.660424)"
               id="g209">
              <use
                 xlink:href="#LMRoman8-Regular-30"
                 id="use203" />
              <use
                 xlink:href="#LMRoman8-Regular-2e"
                 x="53.099991"
                 id="use205" />
              <use
                 xlink:href="#LMRoman8-Regular-34"
                 x="82.599976"
                 id="use207" />
            </g>
          </g>
        </g>
        <g
           id="ytick_4">
          <g
             id="line2d_10">
            <g
               id="g215">
              <use
                 xlink:href="#m002e72504a"
                 x="50.900002"
                 y="18.803148"
                 style="stroke:#000000;stroke-width:0.8"
                 id="use213" />
            </g>
          </g>
          <g
             id="text_11">
            <!-- 0.6 -->
            <g
               transform="matrix(0.12,0,0,-0.12,27.6175,22.967523)"
               id="g227">
              <defs
                 id="defs219">
                <path
                   id="LMRoman8-Regular-36"
                   d="m 3110,1299 c 0,839 -633,1427 -1344,1427 -460,0 -736,-294 -883,-608 0,532 45,999 275,1389 192,320 519,583 922,583 128,0 422,-20 570,-244 -288,-12 -314,-230 -314,-300 0,-192 147,-301 301,-301 115,0 301,70 301,313 0,384 -288,698 -864,698 -890,0 -1792,-845 -1792,-2227 0,-1735 806,-2163 1427,-2163 307,0 640,83 928,358 256,250 473,518 473,1075 z m -601,7 c 0,-327 0,-608 -128,-839 C 2214,173 1990,58 1709,58 c -339,0 -551,236 -647,416 -147,288 -160,723 -160,966 0,634 346,1107 839,1107 320,0 512,-166 633,-390 135,-237 135,-525 135,-851 z"
                   transform="scale(0.015625)" />
              </defs>
              <use
                 xlink:href="#LMRoman8-Regular-30"
                 id="use221" />
              <use
                 xlink:href="#LMRoman8-Regular-2e"
                 x="53.099991"
                 id="use223" />
              <use
                 xlink:href="#LMRoman8-Regular-36"
                 x="82.599976"
                 id="use225" />
            </g>
          </g>
        </g>
        <g
           id="text_12">
          <!-- distribution -->
          <g
             transform="matrix(0,-0.12,-0.12,0,21.28875,124.4525)"
             id="g262">
            <defs
               id="defs236">
              <path
                 id="LMRoman8-Regular-69"
                 d="m 1664,0 v 211 c -416,0 -442,32 -442,282 v 2329 l -934,-70 v -211 c 410,0 467,-39 467,-352 V 499 C 755,211 678,211 269,211 V 0 c 249,19 608,19 704,19 83,0 467,0 691,-19 z m -365,3853 c 0,211 -166,358 -352,358 -185,0 -352,-147 -352,-358 0,-186 147,-352 352,-352 199,0 352,166 352,352 z"
                 transform="scale(0.015625)" />
              <path
                 id="LMRoman8-Regular-74"
                 d="m 2259,800 v 358 H 2061 V 813 c 0,-442 -199,-679 -442,-679 -429,0 -429,551 -429,653 v 1760 h 954 v 211 H 1190 V 3936 H 992 C 986,3354 723,2746 128,2726 V 2547 H 704 V 800 c 0,-749 576,-864 870,-864 429,0 685,384 685,864 z"
                 transform="scale(0.015625)" />
              <path
                 id="LMRoman8-Regular-62"
                 d="m 3546,1382 c 0,807 -660,1440 -1440,1440 -506,0 -820,-275 -928,-390 v 2010 l -954,-71 v -211 c 435,0 486,-45 486,-358 V 0 h 199 l 230,397 c 154,-218 455,-461 890,-461 813,0 1517,627 1517,1446 z m -570,7 c 0,-147 0,-602 -230,-903 -231,-288 -532,-371 -743,-371 -307,0 -563,160 -729,410 -77,121 -77,128 -77,249 v 1248 c 0,122 0,135 96,250 185,237 486,371 774,371 333,0 583,-198 711,-390 108,-173 198,-397 198,-864 z"
                 transform="scale(0.015625)" />
              <path
                 id="LMRoman8-Regular-6f"
                 d="m 3200,1363 c 0,800 -659,1491 -1504,1491 C 851,2854 192,2163 192,1363 192,563 877,-64 1696,-64 c 826,0 1504,627 1504,1427 z m -570,58 c 0,-295 -12,-647 -192,-915 -172,-256 -460,-372 -742,-372 -346,0 -614,167 -755,391 -160,262 -179,576 -179,896 0,243 0,627 198,902 166,224 435,352 736,352 333,0 608,-160 755,-384 173,-269 179,-614 179,-870 z"
                 transform="scale(0.015625)" />
              <path
                 id="LMRoman8-Regular-6e"
                 d="m 3597,0 v 211 c -410,0 -487,0 -487,288 v 1440 c 0,538 -243,883 -915,883 -633,0 -921,-460 -998,-614 h -7 v 614 l -928,-70 v -211 c 436,0 487,-45 487,-359 V 499 C 749,211 672,211 262,211 V 0 c 276,19 557,19 730,19 186,0 454,0 730,-19 v 211 c -410,0 -487,0 -487,288 v 1159 c 0,672 512,985 903,985 390,0 486,-275 486,-678 V 499 c 0,-288 -77,-288 -486,-288 V 0 c 275,19 556,19 729,19 186,0 455,0 730,-19 z"
                 transform="scale(0.015625)" />
            </defs>
            <use
               xlink:href="#LMRoman8-Regular-64"
               id="use238" />
            <use
               xlink:href="#LMRoman8-Regular-69"
               x="58.999985"
               id="use240" />
            <use
               xlink:href="#LMRoman8-Regular-73"
               x="88.499969"
               id="use242" />
            <use
               xlink:href="#LMRoman8-Regular-74"
               x="130.39996"
               id="use244" />
            <use
               xlink:href="#LMRoman8-Regular-72"
               x="171.69995"
               id="use246" />
            <use
               xlink:href="#LMRoman8-Regular-69"
               x="213.09995"
               id="use248" />
            <use
               xlink:href="#LMRoman8-Regular-62"
               x="242.59993"
               id="use250" />
            <use
               xlink:href="#LMRoman8-Regular-75"
               x="301.59991"
               id="use252" />
            <use
               xlink:href="#LMRoman8-Regular-74"
               x="360.59988"
               id="use254" />
            <use
               xlink:href="#LMRoman8-Regular-69"
               x="401.89987"
               id="use256" />
            <use
               xlink:href="#LMRoman8-Regular-6f"
               x="431.39987"
               id="use258" />
            <use
               xlink:href="#LMRoman8-Regular-6e"
               x="484.49988"
               id="use260" />
          </g>
        </g>
      </g>
      <g
         id="line2d_11">
        <path
           d="M 142.2163,147.06025 V 28.7365"
           clip-path="url(#p9e52864367)"
           style="fill:none;stroke:#000000;stroke-dasharray:1, 1.65;stroke-dashoffset:0"
           id="path266" />
      </g>
      <g
         id="line2d_12">
        <path
           d="m 59.616556,164.88185 9.635989,-0.10898 1.761417,-0.26284 1.346966,-0.41964 1.139741,-0.57428 1.139741,-0.83314 1.036128,-1.02542 1.13974,-1.46429 1.139741,-1.85091 1.243353,-2.48795 1.243354,-2.99046 1.450579,-4.11817 1.554192,-5.12577 1.761417,-6.60693 2.072256,-8.65979 2.797545,-12.71491 7.460121,-34.383786 2.486704,-10.142751 2.07226,-7.578906 1.96864,-6.368887 1.76142,-4.970428 1.6578,-4.034506 1.5542,-3.214662 1.45057,-2.511332 1.34697,-1.919179 1.34697,-1.534181 1.24335,-1.087119 1.24335,-0.784598 1.13974,-0.46551 1.13974,-0.234663 1.13975,-0.01572 1.24335,0.218238 1.24335,0.448315 1.34697,0.726733 1.45058,1.040427 1.6578,1.4854 1.76142,1.886177 1.96864,2.433988 2.27948,3.179548 2.69394,4.156625 3.31561,5.549237 4.66257,8.28617 12.43354,22.305926 4.55896,7.623168 4.14451,6.511316 3.93729,5.77851 3.83367,5.2303 3.73006,4.7121 3.62645,4.23109 3.62644,3.89724 3.62645,3.57814 3.73006,3.36545 3.73006,3.06599 3.83368,2.86086 3.93728,2.65534 4.0409,2.45203 4.14451,2.25318 4.35174,2.10803 4.45535,1.91263 4.76619,1.80123 4.97341,1.64134 5.28425,1.51094 5.69871,1.3968 6.11315,1.26913 6.73483,1.1671 7.35651,1.04583 7.35651,0.85064 v 0"
           clip-path="url(#p9e52864367)"
           style="fill:none;stroke:#000000;stroke-linecap:square"
           id="path269" />
      </g>
      <g
         id="patch_4">
        <path
           d="M 50.9,164.88185 V 18.803148"
           style="fill:none;stroke:#000000;stroke-width:0.5;stroke-linecap:square;stroke-linejoin:miter"
           id="path272" />
      </g>
      <g
         id="patch_5">
        <path
           d="M 59.201481,170.725 H 266.73852"
           style="fill:none;stroke:#000000;stroke-width:0.5;stroke-linecap:square;stroke-linejoin:miter"
           id="path275" />
      </g>
      <g
         id="text_13">
        <!-- moyenne $\mu$ -->
        <g
           transform="matrix(0,-0.09996,-0.09996,0,148.89487,137.86523)"
           id="g300">
          <defs
             id="defs280">
            <path
               id="LMRoman8-Regular-79"
               d="m 3443,2547 v 211 c -224,-19 -237,-19 -505,-19 -26,0 -365,0 -551,19 v -211 c 186,-13 275,-115 275,-262 0,-39 -6,-83 -38,-160 L 1939,576 1197,2253 c -45,96 -45,109 -45,134 0,154 198,160 339,160 v 211 c -288,-19 -563,-19 -704,-19 -134,0 -441,0 -646,19 v -211 c 333,0 422,-13 531,-256 L 1683,0 c -288,-678 -480,-1126 -928,-1126 -160,0 -262,76 -262,76 45,13 192,84 192,269 0,179 -135,275 -275,275 -128,0 -276,-83 -276,-281 0,-282 276,-519 621,-519 570,0 877,685 903,749 l 1177,2669 c 160,365 397,429 608,435 z"
               transform="scale(0.015625)" />
            <path
               id="Cmmi10-b9"
               d="m 178,-1203 q 0,37 6,50 l 941,3778 q 28,91 101,147 74,56 168,56 81,0 137,-49 57,-48 57,-129 0,-19 -2,-30 -2,-11 -5,-23 L 1203,1100 q -62,-266 -62,-459 0,-238 112,-391 113,-153 341,-153 465,0 819,581 3,6 4,9 2,4 2,10 l 462,1856 q 22,85 100,145 78,61 169,61 75,0 133,-50 58,-50 58,-131 0,-37 -7,-50 L 2875,684 q -47,-181 -47,-312 0,-275 188,-275 200,0 301,247 102,247 177,597 12,37 53,37 h 75 q 25,0 42,-20 17,-20 17,-42 Q 3569,469 3436,198 3303,-72 3003,-72 2791,-72 2627,50 2463,172 2413,378 2253,178 2039,53 1825,-72 1588,-72 1188,-72 959,116 L 634,-1178 q -18,-91 -93,-147 -75,-56 -169,-56 -78,0 -136,49 -58,48 -58,129 z"
               transform="scale(0.015625)" />
          </defs>
          <use
             xlink:href="#LMRoman8-Regular-6d"
             transform="translate(0,0.40625)"
             id="use282" />
          <use
             xlink:href="#LMRoman8-Regular-6f"
             transform="translate(88.499985,0.40625)"
             id="use284" />
          <use
             xlink:href="#LMRoman8-Regular-79"
             transform="translate(141.59998,0.40625)"
             id="use286" />
          <use
             xlink:href="#LMRoman8-Regular-65"
             transform="translate(197.69997,0.40625)"
             id="use288" />
          <use
             xlink:href="#LMRoman8-Regular-6e"
             transform="translate(244.89996,0.40625)"
             id="use290" />
          <use
             xlink:href="#LMRoman8-Regular-6e"
             transform="translate(303.89995,0.40625)"
             id="use292" />
          <use
             xlink:href="#LMRoman8-Regular-65"
             transform="translate(362.89993,0.40625)"
             id="use294" />
          <use
             xlink:href="#LMRoman8-Regular-20"
             transform="translate(410.09993,0.40625)"
             id="use296" />
          <use
             xlink:href="#Cmmi10-b9"
             transform="translate(445.49992,0.40625)"
             id="use298" />
        </g>
      </g>
      <g
         id="text_14">
        <!-- $\mu \pm \sigma$ -->
        <g
           transform="matrix(0.09996,0,0,-0.09996,130.67092,162.68273)"
           id="g313">
          <defs
             id="defs305">
            <path
               id="Cmsy10-a7"
               d="m 481,0 q -53,0 -88,37 -34,38 -34,91 0,47 34,87 35,41 88,41 H 2363 V 2003 H 481 q -53,0 -88,40 -34,41 -34,88 0,47 34,87 35,41 88,41 h 1882 v 1888 q 0,50 37,83 38,33 91,33 43,0 85,-33 43,-33 43,-83 V 2259 h 1881 q 47,0 81,-41 35,-40 35,-87 0,-47 -35,-88 -34,-40 -81,-40 H 2619 V 256 h 1881 q 47,0 81,-41 35,-40 35,-87 0,-53 -35,-91 -34,-37 -81,-37 z"
               transform="scale(0.015625)" />
            <path
               id="Cmmi10-be"
               d="M 1197,-72 Q 913,-72 692,64 472,200 351,431 231,663 231,941 q 0,297 134,625 135,328 368,600 233,272 526,432 294,161 604,161 h 1612 q 66,0 112,-44 47,-43 47,-118 0,-94 -67,-164 -67,-70 -161,-70 h -781 q 184,-275 184,-666 0,-322 -125,-635 Q 2559,750 2337,492 2116,234 1820,81 1525,-72 1197,-72 Z m 6,169 q 350,0 620,273 271,274 414,669 144,395 144,733 0,275 -152,433 -151,158 -423,158 -372,0 -633,-250 Q 913,1863 783,1484 653,1106 653,756 653,481 798,289 944,97 1203,97 Z"
               transform="scale(0.015625)" />
          </defs>
          <use
             xlink:href="#Cmmi10-b9"
             transform="translate(0,0.390625)"
             id="use307" />
          <use
             xlink:href="#Cmsy10-a7"
             transform="translate(77.763672,0.390625)"
             id="use309" />
          <use
             xlink:href="#Cmmi10-be"
             transform="translate(173.00781,0.390625)"
             id="use311" />
        </g>
      </g>
    </g>
  </g>
  <defs
     id="defs321">
    <clipPath
       id="p9e52864367">
      <rect
         x="50.900002"
         y="12.96"
         width="224.14"
         height="157.765"
         id="rect318" />
    </clipPath>
  </defs>
</svg>
