<?xml version="1.0" encoding="utf-8" standalone="no"?>
<!DOCTYPE svg PUBLIC "-//W3C//DTD SVG 1.1//EN"
  "http://www.w3.org/Graphics/SVG/1.1/DTD/svg11.dtd">
<svg xmlns:xlink="http://www.w3.org/1999/xlink" width="288pt" height="216pt" viewBox="0 0 288 216" xmlns="http://www.w3.org/2000/svg" version="1.1">
 <metadata>
  <rdf:RDF xmlns:dc="http://purl.org/dc/elements/1.1/" xmlns:cc="http://creativecommons.org/ns#" xmlns:rdf="http://www.w3.org/1999/02/22-rdf-syntax-ns#">
   <cc:Work>
    <dc:type rdf:resource="http://purl.org/dc/dcmitype/StillImage"/>
    <dc:date>2022-05-18T22:33:50.785264</dc:date>
    <dc:format>image/svg+xml</dc:format>
    <dc:creator>
     <cc:Agent>
      <dc:title>Matplotlib v3.5.1, https://matplotlib.org/</dc:title>
     </cc:Agent>
    </dc:creator>
   </cc:Work>
  </rdf:RDF>
 </metadata>
 <defs>
  <style type="text/css">*{stroke-linejoin: round; stroke-linecap: butt}</style>
 </defs>
 <g id="figure_1">
  <g id="patch_1">
   <path d="M 0 216 
L 288 216 
L 288 0 
L 0 0 
L 0 216 
z
" style="fill: none"/>
  </g>
  <g id="axes_1">
   <g id="patch_2">
    <path d="M 32.7025 170.725 
L 271.119238 170.725 
L 271.119238 12.96 
L 32.7025 12.96 
L 32.7025 170.725 
z
" style="fill: none"/>
   </g>
   <g id="matplotlib.axis_1">
    <g id="xtick_1">
     <g id="line2d_1">
      <defs>
       <path id="mbcfc25eafa" d="M 0 0 
L 0 3.5 
" style="stroke: #000000; stroke-width: 0.8"/>
      </defs>
      <g>
       <use xlink:href="#mbcfc25eafa" x="41.53275" y="170.725" style="stroke: #000000; stroke-width: 0.8"/>
      </g>
     </g>
     <g id="text_1">
      <!-- 2011 -->
      <g transform="translate(28.79025 186.05375)scale(0.12 -0.12)">
       <defs>
        <path id="LMRoman8-Regular-32" d="M 3053 1146 
L 2854 1146 
C 2835 1018 2784 698 2707 576 
C 2669 525 2182 525 2080 525 
L 941 525 
L 1805 1306 
C 1907 1402 2176 1613 2278 1702 
C 2675 2067 3053 2419 3053 3002 
C 3053 3763 2413 4256 1613 4256 
C 845 4256 339 3674 339 3104 
C 339 2790 589 2746 678 2746 
C 813 2746 1011 2842 1011 3085 
C 1011 3418 691 3418 614 3418 
C 800 3885 1229 4045 1542 4045 
C 2138 4045 2445 3539 2445 3002 
C 2445 2336 1978 1850 1222 1075 
L 416 243 
C 339 173 339 160 339 0 
L 2867 0 
L 3053 1146 
z
" transform="scale(0.015625)"/>
        <path id="LMRoman8-Regular-30" d="M 3130 2042 
C 3130 2726 3059 3142 2848 3552 
C 2566 4115 2048 4256 1696 4256 
C 890 4256 595 3654 506 3475 
C 275 3008 262 2374 262 2042 
C 262 1619 282 973 589 461 
C 883 -13 1357 -134 1696 -134 
C 2003 -134 2554 -38 2874 595 
C 3110 1056 3130 1626 3130 2042 
z
M 2560 2118 
C 2560 1741 2560 1165 2483 806 
C 2349 134 1907 45 1696 45 
C 1478 45 1037 147 902 819 
C 832 1184 832 1786 832 2118 
C 832 2560 832 3008 902 3360 
C 1037 4013 1536 4077 1696 4077 
C 1914 4077 2355 3968 2483 3386 
C 2560 3034 2560 2554 2560 2118 
z
" transform="scale(0.015625)"/>
        <path id="LMRoman8-Regular-31" d="M 2861 0 
L 2861 211 
L 2637 211 
C 2029 211 2010 288 2010 525 
L 2010 4077 
C 2010 4250 1997 4256 1824 4256 
C 1562 4000 1222 3846 614 3846 
L 614 3635 
C 787 3635 1133 3635 1504 3808 
L 1504 525 
C 1504 288 1485 211 877 211 
L 653 211 
L 653 0 
C 915 19 1466 19 1754 19 
C 2042 19 2598 19 2861 0 
z
" transform="scale(0.015625)"/>
       </defs>
       <use xlink:href="#LMRoman8-Regular-32"/>
       <use xlink:href="#LMRoman8-Regular-30" x="53.099991"/>
       <use xlink:href="#LMRoman8-Regular-31" x="106.199982"/>
       <use xlink:href="#LMRoman8-Regular-31" x="159.299973"/>
      </g>
     </g>
    </g>
    <g id="xtick_2">
     <g id="line2d_2">
      <g>
       <use xlink:href="#mbcfc25eafa" x="151.910869" y="170.725" style="stroke: #000000; stroke-width: 0.8"/>
      </g>
     </g>
     <g id="text_2">
      <!-- 2016 -->
      <g transform="translate(139.168369 186.05375)scale(0.12 -0.12)">
       <defs>
        <path id="LMRoman8-Regular-36" d="M 3110 1299 
C 3110 2138 2477 2726 1766 2726 
C 1306 2726 1030 2432 883 2118 
C 883 2650 928 3117 1158 3507 
C 1350 3827 1677 4090 2080 4090 
C 2208 4090 2502 4070 2650 3846 
C 2362 3834 2336 3616 2336 3546 
C 2336 3354 2483 3245 2637 3245 
C 2752 3245 2938 3315 2938 3558 
C 2938 3942 2650 4256 2074 4256 
C 1184 4256 282 3411 282 2029 
C 282 294 1088 -134 1709 -134 
C 2016 -134 2349 -51 2637 224 
C 2893 474 3110 742 3110 1299 
z
M 2509 1306 
C 2509 979 2509 698 2381 467 
C 2214 173 1990 58 1709 58 
C 1370 58 1158 294 1062 474 
C 915 762 902 1197 902 1440 
C 902 2074 1248 2547 1741 2547 
C 2061 2547 2253 2381 2374 2157 
C 2509 1920 2509 1632 2509 1306 
z
" transform="scale(0.015625)"/>
       </defs>
       <use xlink:href="#LMRoman8-Regular-32"/>
       <use xlink:href="#LMRoman8-Regular-30" x="53.099991"/>
       <use xlink:href="#LMRoman8-Regular-31" x="106.199982"/>
       <use xlink:href="#LMRoman8-Regular-36" x="159.299973"/>
      </g>
     </g>
    </g>
    <g id="xtick_3">
     <g id="line2d_3">
      <g>
       <use xlink:href="#mbcfc25eafa" x="262.288988" y="170.725" style="stroke: #000000; stroke-width: 0.8"/>
      </g>
     </g>
     <g id="text_3">
      <!-- 2021 -->
      <g transform="translate(249.546488 186.05375)scale(0.12 -0.12)">
       <use xlink:href="#LMRoman8-Regular-32"/>
       <use xlink:href="#LMRoman8-Regular-30" x="53.099991"/>
       <use xlink:href="#LMRoman8-Regular-32" x="106.199982"/>
       <use xlink:href="#LMRoman8-Regular-31" x="159.299973"/>
      </g>
     </g>
    </g>
    <g id="text_4">
     <!-- année -->
     <g transform="translate(135.980869 200.71125)scale(0.12 -0.12)">
      <defs>
       <path id="LMRoman8-Regular-61" d="M 3290 576 
L 3290 928 
L 3091 928 
L 3091 576 
C 3091 314 2995 211 2861 211 
C 2624 211 2624 506 2624 576 
L 2624 1907 
C 2624 2534 2016 2854 1434 2854 
C 902 2854 429 2650 429 2227 
C 429 2035 563 1920 730 1920 
C 909 1920 1030 2048 1030 2221 
C 1030 2374 934 2483 794 2515 
C 1030 2675 1376 2675 1421 2675 
C 1779 2675 2138 2426 2138 1901 
L 2138 1702 
C 1766 1683 1338 1664 890 1478 
C 326 1235 218 864 218 653 
C 218 102 864 -64 1306 -64 
C 1773 -64 2061 198 2202 454 
C 2234 211 2400 -32 2682 -32 
C 2746 -32 3290 -6 3290 576 
z
M 2138 902 
C 2138 282 1613 115 1357 115 
C 1024 115 742 339 742 646 
C 742 1069 1139 1504 2138 1536 
L 2138 902 
z
" transform="scale(0.015625)"/>
       <path id="LMRoman8-Regular-6e" d="M 3597 0 
L 3597 211 
C 3187 211 3110 211 3110 499 
L 3110 1939 
C 3110 2477 2867 2822 2195 2822 
C 1562 2822 1274 2362 1197 2208 
L 1190 2208 
L 1190 2822 
L 262 2752 
L 262 2541 
C 698 2541 749 2496 749 2182 
L 749 499 
C 749 211 672 211 262 211 
L 262 0 
C 538 19 819 19 992 19 
C 1178 19 1446 19 1722 0 
L 1722 211 
C 1312 211 1235 211 1235 499 
L 1235 1658 
C 1235 2330 1747 2643 2138 2643 
C 2528 2643 2624 2368 2624 1965 
L 2624 499 
C 2624 211 2547 211 2138 211 
L 2138 0 
C 2413 19 2694 19 2867 19 
C 3053 19 3322 19 3597 0 
z
" transform="scale(0.015625)"/>
       <path id="LMRoman8-Regular-e9" d="M 2822 768 
C 2822 794 2803 858 2720 858 
C 2650 858 2637 813 2624 774 
C 2394 154 1843 134 1728 134 
C 1440 134 1146 269 954 563 
C 762 858 762 1267 762 1459 
L 2643 1459 
C 2784 1459 2822 1459 2822 1606 
C 2822 2176 2509 2854 1606 2854 
C 813 2854 192 2195 192 1402 
C 192 576 883 -64 1690 -64 
C 2502 -64 2822 621 2822 768 
z
M 2387 1626 
L 768 1626 
C 826 2522 1370 2675 1606 2675 
C 2355 2675 2381 1773 2387 1626 
z
M 2355 4211 
C 2355 4358 2221 4467 2106 4467 
C 2080 4467 1990 4467 1907 4365 
L 1088 3392 
L 1222 3245 
L 2227 4000 
C 2298 4051 2355 4109 2355 4211 
z
" transform="scale(0.015625)"/>
       <path id="LMRoman8-Regular-65" d="M 2822 768 
C 2822 794 2803 858 2720 858 
C 2650 858 2637 813 2624 774 
C 2394 154 1843 134 1728 134 
C 1440 134 1146 269 954 563 
C 762 858 762 1267 762 1459 
L 2643 1459 
C 2784 1459 2822 1459 2822 1606 
C 2822 2176 2509 2854 1606 2854 
C 813 2854 192 2195 192 1402 
C 192 576 883 -64 1690 -64 
C 2502 -64 2822 621 2822 768 
z
M 2387 1626 
L 768 1626 
C 826 2522 1370 2675 1606 2675 
C 2355 2675 2381 1773 2387 1626 
z
" transform="scale(0.015625)"/>
      </defs>
      <use xlink:href="#LMRoman8-Regular-61"/>
      <use xlink:href="#LMRoman8-Regular-6e" x="53.099991"/>
      <use xlink:href="#LMRoman8-Regular-6e" x="112.099976"/>
      <use xlink:href="#LMRoman8-Regular-e9" x="171.09996"/>
      <use xlink:href="#LMRoman8-Regular-65" x="218.299957"/>
     </g>
    </g>
   </g>
   <g id="matplotlib.axis_2">
    <g id="ytick_1">
     <g id="line2d_4">
      <defs>
       <path id="m93d12cb008" d="M 0 0 
L -3.5 0 
" style="stroke: #000000; stroke-width: 0.8"/>
      </defs>
      <g>
       <use xlink:href="#m93d12cb008" x="32.7025" y="18.803148" style="stroke: #000000; stroke-width: 0.8"/>
      </g>
     </g>
     <g id="text_5">
      <!-- 10 -->
      <g transform="translate(12.96 22.967523)scale(0.12 -0.12)">
       <use xlink:href="#LMRoman8-Regular-31"/>
       <use xlink:href="#LMRoman8-Regular-30" x="53.099991"/>
      </g>
     </g>
    </g>
    <g id="ytick_2">
     <g id="line2d_5">
      <g>
       <use xlink:href="#m93d12cb008" x="32.7025" y="55.322824" style="stroke: #000000; stroke-width: 0.8"/>
      </g>
     </g>
     <g id="text_6">
      <!-- 15 -->
      <g transform="translate(12.96 59.487199)scale(0.12 -0.12)">
       <defs>
        <path id="LMRoman8-Regular-35" d="M 3053 1280 
C 3053 2022 2515 2682 1760 2682 
C 1440 2682 1139 2579 896 2362 
L 896 3597 
C 979 3571 1235 3507 1504 3507 
C 2304 3507 2790 4070 2790 4166 
C 2790 4237 2746 4256 2714 4256 
C 2714 4256 2688 4256 2630 4224 
C 2381 4128 2086 4051 1741 4051 
C 1363 4051 1050 4147 851 4224 
C 787 4256 768 4256 768 4256 
C 685 4256 685 4186 685 4070 
L 685 2195 
C 685 2080 685 2003 787 2003 
C 838 2003 858 2029 890 2080 
C 966 2176 1210 2502 1754 2502 
C 2112 2502 2285 2208 2342 2086 
C 2451 1856 2464 1562 2464 1312 
C 2464 1075 2458 730 2278 448 
C 2157 256 1901 58 1562 58 
C 1146 58 736 320 589 736 
C 608 730 653 730 653 730 
C 832 730 973 845 973 1043 
C 973 1280 787 1363 659 1363 
C 544 1363 339 1299 339 1024 
C 339 448 838 -134 1574 -134 
C 2374 -134 3053 486 3053 1280 
z
" transform="scale(0.015625)"/>
       </defs>
       <use xlink:href="#LMRoman8-Regular-31"/>
       <use xlink:href="#LMRoman8-Regular-35" x="53.099991"/>
      </g>
     </g>
    </g>
    <g id="ytick_3">
     <g id="line2d_6">
      <g>
       <use xlink:href="#m93d12cb008" x="32.7025" y="91.8425" style="stroke: #000000; stroke-width: 0.8"/>
      </g>
     </g>
     <g id="text_7">
      <!-- 20 -->
      <g transform="translate(12.96 96.006875)scale(0.12 -0.12)">
       <use xlink:href="#LMRoman8-Regular-32"/>
       <use xlink:href="#LMRoman8-Regular-30" x="53.099991"/>
      </g>
     </g>
    </g>
    <g id="ytick_4">
     <g id="line2d_7">
      <g>
       <use xlink:href="#m93d12cb008" x="32.7025" y="128.362176" style="stroke: #000000; stroke-width: 0.8"/>
      </g>
     </g>
     <g id="text_8">
      <!-- 25 -->
      <g transform="translate(12.96 132.526551)scale(0.12 -0.12)">
       <use xlink:href="#LMRoman8-Regular-32"/>
       <use xlink:href="#LMRoman8-Regular-35" x="53.099991"/>
      </g>
     </g>
    </g>
    <g id="ytick_5">
     <g id="line2d_8">
      <g>
       <use xlink:href="#m93d12cb008" x="32.7025" y="164.881852" style="stroke: #000000; stroke-width: 0.8"/>
      </g>
     </g>
     <g id="text_9">
      <!-- 30 -->
      <g transform="translate(12.96 169.046227)scale(0.12 -0.12)">
       <defs>
        <path id="LMRoman8-Regular-33" d="M 3110 1094 
C 3110 1626 2688 2112 2035 2253 
C 2541 2432 2918 2867 2918 3379 
C 2918 3891 2342 4256 1677 4256 
C 992 4256 474 3885 474 3398 
C 474 3162 634 3059 800 3059 
C 998 3059 1126 3200 1126 3386 
C 1126 3622 922 3712 781 3718 
C 1050 4070 1542 4090 1658 4090 
C 1824 4090 2310 4038 2310 3379 
C 2310 2931 2125 2662 2035 2560 
C 1843 2362 1696 2349 1306 2323 
C 1184 2317 1133 2310 1133 2227 
C 1133 2138 1190 2138 1299 2138 
L 1619 2138 
C 2125 2138 2445 1766 2445 1094 
C 2445 294 1990 58 1651 58 
C 1299 58 819 186 595 525 
C 826 525 986 672 986 883 
C 986 1088 838 1235 634 1235 
C 461 1235 282 1126 282 870 
C 282 262 934 -134 1664 -134 
C 2515 -134 3110 454 3110 1094 
z
" transform="scale(0.015625)"/>
       </defs>
       <use xlink:href="#LMRoman8-Regular-33"/>
       <use xlink:href="#LMRoman8-Regular-30" x="53.099991"/>
      </g>
     </g>
    </g>
   </g>
   <g id="line2d_9">
    <path d="M 41.53275 48.018889 
L 63.608373 55.322824 
L 85.683997 77.23463 
L 107.759621 62.626759 
L 129.835245 84.538565 
L 151.910869 113.754306 
L 173.986493 128.362176 
L 196.062116 99.146435 
L 218.13774 135.666111 
L 240.213364 128.362176 
L 262.288988 135.666111 
" clip-path="url(#pb3b5ed689a)" style="fill: none; stroke: #0000ff; stroke-linecap: square"/>
    <defs>
     <path id="me17771bcae" d="M 0 1.5 
C 0.397805 1.5 0.77937 1.341951 1.06066 1.06066 
C 1.341951 0.77937 1.5 0.397805 1.5 0 
C 1.5 -0.397805 1.341951 -0.77937 1.06066 -1.06066 
C 0.77937 -1.341951 0.397805 -1.5 0 -1.5 
C -0.397805 -1.5 -0.77937 -1.341951 -1.06066 -1.06066 
C -1.341951 -0.77937 -1.5 -0.397805 -1.5 0 
C -1.5 0.397805 -1.341951 0.77937 -1.06066 1.06066 
C -0.77937 1.341951 -0.397805 1.5 0 1.5 
z
" style="stroke: #0000ff"/>
    </defs>
    <g clip-path="url(#pb3b5ed689a)">
     <use xlink:href="#me17771bcae" x="41.53275" y="48.018889" style="fill: #0000ff; stroke: #0000ff"/>
     <use xlink:href="#me17771bcae" x="63.608373" y="55.322824" style="fill: #0000ff; stroke: #0000ff"/>
     <use xlink:href="#me17771bcae" x="85.683997" y="77.23463" style="fill: #0000ff; stroke: #0000ff"/>
     <use xlink:href="#me17771bcae" x="107.759621" y="62.626759" style="fill: #0000ff; stroke: #0000ff"/>
     <use xlink:href="#me17771bcae" x="129.835245" y="84.538565" style="fill: #0000ff; stroke: #0000ff"/>
     <use xlink:href="#me17771bcae" x="151.910869" y="113.754306" style="fill: #0000ff; stroke: #0000ff"/>
     <use xlink:href="#me17771bcae" x="173.986493" y="128.362176" style="fill: #0000ff; stroke: #0000ff"/>
     <use xlink:href="#me17771bcae" x="196.062116" y="99.146435" style="fill: #0000ff; stroke: #0000ff"/>
     <use xlink:href="#me17771bcae" x="218.13774" y="135.666111" style="fill: #0000ff; stroke: #0000ff"/>
     <use xlink:href="#me17771bcae" x="240.213364" y="128.362176" style="fill: #0000ff; stroke: #0000ff"/>
     <use xlink:href="#me17771bcae" x="262.288988" y="135.666111" style="fill: #0000ff; stroke: #0000ff"/>
    </g>
   </g>
   <g id="line2d_10">
    <path d="M 41.53275 150.273981 
L 63.608373 135.666111 
L 85.683997 142.970046 
L 107.759621 106.45037 
L 129.835245 99.146435 
L 151.910869 99.146435 
L 173.986493 69.930694 
L 196.062116 62.626759 
L 218.13774 55.322824 
L 240.213364 40.714954 
L 262.288988 18.803148 
" clip-path="url(#pb3b5ed689a)" style="fill: none; stroke: #ff0000; stroke-linecap: square"/>
    <defs>
     <path id="m0f2abc15ad" d="M 0 1.5 
C 0.397805 1.5 0.77937 1.341951 1.06066 1.06066 
C 1.341951 0.77937 1.5 0.397805 1.5 0 
C 1.5 -0.397805 1.341951 -0.77937 1.06066 -1.06066 
C 0.77937 -1.341951 0.397805 -1.5 0 -1.5 
C -0.397805 -1.5 -0.77937 -1.341951 -1.06066 -1.06066 
C -1.341951 -0.77937 -1.5 -0.397805 -1.5 0 
C -1.5 0.397805 -1.341951 0.77937 -1.06066 1.06066 
C -0.77937 1.341951 -0.397805 1.5 0 1.5 
z
" style="stroke: #ff0000"/>
    </defs>
    <g clip-path="url(#pb3b5ed689a)">
     <use xlink:href="#m0f2abc15ad" x="41.53275" y="150.273981" style="fill: #ff0000; stroke: #ff0000"/>
     <use xlink:href="#m0f2abc15ad" x="63.608373" y="135.666111" style="fill: #ff0000; stroke: #ff0000"/>
     <use xlink:href="#m0f2abc15ad" x="85.683997" y="142.970046" style="fill: #ff0000; stroke: #ff0000"/>
     <use xlink:href="#m0f2abc15ad" x="107.759621" y="106.45037" style="fill: #ff0000; stroke: #ff0000"/>
     <use xlink:href="#m0f2abc15ad" x="129.835245" y="99.146435" style="fill: #ff0000; stroke: #ff0000"/>
     <use xlink:href="#m0f2abc15ad" x="151.910869" y="99.146435" style="fill: #ff0000; stroke: #ff0000"/>
     <use xlink:href="#m0f2abc15ad" x="173.986493" y="69.930694" style="fill: #ff0000; stroke: #ff0000"/>
     <use xlink:href="#m0f2abc15ad" x="196.062116" y="62.626759" style="fill: #ff0000; stroke: #ff0000"/>
     <use xlink:href="#m0f2abc15ad" x="218.13774" y="55.322824" style="fill: #ff0000; stroke: #ff0000"/>
     <use xlink:href="#m0f2abc15ad" x="240.213364" y="40.714954" style="fill: #ff0000; stroke: #ff0000"/>
     <use xlink:href="#m0f2abc15ad" x="262.288988" y="18.803148" style="fill: #ff0000; stroke: #ff0000"/>
    </g>
   </g>
   <g id="patch_3">
    <path d="M 32.7025 164.881852 
L 32.7025 18.803148 
" style="fill: none; stroke: #000000; stroke-width: 0.5; stroke-linejoin: miter; stroke-linecap: square"/>
   </g>
   <g id="patch_4">
    <path d="M 41.53275 170.725 
L 262.288988 170.725 
" style="fill: none; stroke: #000000; stroke-width: 0.5; stroke-linejoin: miter; stroke-linecap: square"/>
   </g>
  </g>
 </g>
 <defs>
  <clipPath id="pb3b5ed689a">
   <rect x="32.7025" y="12.96" width="238.416738" height="157.765"/>
  </clipPath>
 </defs>
</svg>
